<?xml version="1.0" encoding="utf-8"?>
<!-- Generator: Adobe Illustrator 25.2.3, SVG Export Plug-In . SVG Version: 6.00 Build 0)  -->
<svg version="1.1" id="Layer_0_xA0_Image_1_" xmlns="http://www.w3.org/2000/svg" xmlns:xlink="http://www.w3.org/1999/xlink"
	 x="0px" y="0px" viewBox="0 0 1242 890.4" style="enable-background:new 0 0 1242 890.4;" xml:space="preserve">
<g>
	<path d="M740.4,584.85c-1.28,0.73-2.55,1.45-3.83,2.18c-0.12-0.17-0.23-0.34-0.35-0.51c2.16-1.78,4.11-3.8,6.61-5.2
		c5.65-3.16,11.31-6.3,16.92-9.54c1.58-0.91,3.15-1.97,4.43-3.24c3.34-3.32,6.54-6.79,9.74-10.25c0.69-0.75,1.2-1.7,1.67-2.62
		c1.89-3.7,3.79-7.4,5.58-11.15c5.09-10.68,10.08-21.41,15.2-32.08c5.04-10.5,8.75-21.45,11.32-32.8c0.25-1.09,0.48-2.19,0.85-3.25
		c0.58-1.69,1.51-2.33,2.76-2.09c1.15,0.23,1.76,1.08,1.88,2.71c0.17,2.23,0.3,4.46,0.46,6.7c0.03,0.44,0.14,0.87,0.27,1.58
		c0.94-0.88,1.65-1.55,2.82-2.65c0.01,2.62-1.4,4.35-1.42,6.59c4.86-7.52,7.65-15.68,10.37-24.07c-1.51,1.16-1.89,1.73-2.41,3.39
		c-0.31,0.99-0.56,2.02-1.05,2.92c-0.31,0.57-0.95,1.12-1.56,1.32c-1.04,0.35-2.04-0.7-1.58-1.65c2.67-5.5,2.99-11.56,4.24-17.4
		c0.62-2.89,0.86-5.88,1.71-8.7c1.5-5.01,1.55-10.27,2.79-15.29c1.36-5.49,3.25-10.86,4.92-16.27c0.07-0.21,0.25-0.38,0.71-1.04
		c1.1,4.08,0.69,7.87,1.74,11.5c4.5-12.74,10.31-25,13.08-38.51c-0.47,0.52-0.98,1.02-1.42,1.56c-5.31,6.64-10,13.71-13.92,21.23
		c-4.32,8.29-8.32,16.74-12.47,25.12c-0.92,1.86-2.03,3.64-2.83,5.54c-0.67,1.6-1.14,3.31-1.48,5.01c-0.43,2.1-0.73,4.21-2.13,6.56
		c-0.09-1.28-0.14-2.05-0.23-3.42c-3.1,5.82-5.34,11.45-9.28,16.73c-0.12-0.84-0.21-1.17-0.2-1.48c0.01-0.38,0.12-0.75-0.13-1.29
		c-0.85,1.03-1.78,2.01-2.53,3.1c-3.19,4.61-6.11,9.38-8.51,14.45c-0.39,0.82-1.1,1.49-1.64,2.25c-0.28,0.38-0.56,0.77-0.77,1.19
		c-0.36,0.71-0.7,1.44-0.98,2.19c-4.35,11.79-9.85,23.08-15.11,34.48c-2.31,5-4.25,10.18-6.44,15.24c-0.46,1.06-1.27,1.97-1.93,2.95
		c-0.09,0.13-0.23,0.22-0.35,0.33c-7.87,7.25-15.74,14.51-23.61,21.77c-0.35,0.32-0.65,0.69-0.97,1.04c0,0,0.09-0.05,0.09-0.05
		c0.34-0.69,0.56-1.48,1.04-2.05c3.97-4.7,8-9.36,11.98-14.05c0.5-0.59,0.95-1.28,1.23-2c2.03-5.13,4.04-10.26,5.97-15.42
		c0.7-1.87,1.51-3.61,2.58-5.33c1.62-2.63,2.91-5.53,3.9-8.46c2.7-7.99,4.27-16.25,4.66-24.67c0.24-5.18,0-10.39-0.1-15.58
		c-0.03-1.37,0.04-2.63,0.5-3.97c2.44-7.1,4.99-14.18,7.07-21.39c3.07-10.66,9-19.91,14.05-29.59c2.03-3.88,4.58-7.49,6.87-11.23
		c0.64-1.05,1.23-2.13,1.48-3.45c-0.34,0.28-0.71,0.54-1.02,0.85c-3.57,3.55-7.15,7.1-10.7,10.67c-0.56,0.56-1.12,1.17-1.49,1.86
		c-6.94,12.69-14.3,25.17-19.87,38.56c-1.32,3.17-2.65,6.35-3.76,9.6c-0.53,1.55-0.78,3.28-0.74,4.91
		c0.33,12.21-0.58,24.3-3.69,36.14c-0.77,2.92-2.02,5.71-3.05,8.57c-0.67,1.87-1.32,3.74-2.01,5.6c-0.22,0.59-0.49,1.18-0.82,1.72
		c-6.04,9.84-13.04,18.97-20.6,27.67c-0.15,0.17-0.37,0.28-0.77,0.57c0.15-2.29,0.02-4.3,0.79-6.42c2.63-7.21,2.82-14.7,1.82-22.25
		c-0.18-1.34-0.33-2.69-0.51-4.04c-0.01-0.05-0.11-0.08-0.32-0.24c-0.22,0.26-0.49,0.51-0.66,0.82
		c-6.62,12.41-13.21,24.84-19.85,37.25c-2.46,4.61-4.34,9.38-5.42,14.53c-0.85,4.05-2.11,8.03-3.46,11.96
		c-2.27,6.62-2.92,13.21-1.64,20.21c2.71,14.86,5.8,29.63,9.61,44.25c0.18,0.71,0.25,1.45,0.11,2.24c-1.73-1.7-2.29-3.94-3.2-5.99
		c-0.97-2.19-1.84-4.42-2.72-6.66c-0.85-2.16-1.66-4.33-2.45-6.5c-0.79-2.18-1.57-4.36-2.3-6.56c-0.76-2.27-1.47-4.56-2.18-6.85
		c-0.68-2.21-1.31-4.43-2.07-7.02c-0.34,0.66-0.61,1-0.68,1.37c-0.79,4.24-1.58,8.49-2.3,12.74c-0.13,0.77-0.1,1.61,0.07,2.38
		c4.59,20.83,8.62,41.82,15.72,62.01c0.92,2.62,2.27,5.09,3.29,7.68c0.59,1.5,0.91,3.11,1.05,4.82c-0.27-0.34-0.54-0.67-0.83-1
		c-0.05,0.03-0.1,0.06-0.14,0.08c0.06-0.03,0.13-0.05,0.19-0.08c-0.54,1.66,1.12,2.53,1.46,4.42c-0.71-0.86-1.18-1.39-1.59-1.95
		c-1.08-1.47-2.03-3-3.6-4.11c-0.84-0.59-1.34-1.77-1.79-2.77c-8.61-18.87-15.49-38.38-21.9-58.08c-0.32-0.99-0.64-1.98-0.89-2.99
		c-0.11-0.45-0.25-1.11-0.02-1.38c1.16-1.39,0.42-2.66-0.02-4.02c-0.28-0.89-0.34-1.87-0.37-2.81c-0.44-11.74-0.87-23.48-1.27-35.22
		c-0.03-1.02,0-2.11,0.31-3.07c1.1-3.34,2.07-6.75,3.56-9.91c5.23-11.1,9.62-22.48,12.56-34.41c0.19-0.76,0.43-1.65,0.95-2.17
		c2.06-2.03,2.95-4.72,4.26-7.17c0.53-0.99,0.99-2.01,1.45-3.03c4.18-9.09,4.1-9.09,4.29-19.11c0.18-9.27,0.54-18.54,0.8-27.81
		c0.03-1.1,0-2.21-0.27-3.41c-0.22,0.46-0.48,0.9-0.65,1.38c-4.3,11.45-8.6,22.9-12.88,34.36c-0.42,1.12-0.67,2.3-1,3.45
		c-1.78,6.19-4.03,12.14-8.49,17c-2.46,2.68-3.72,5.93-4.33,9.47c-0.27,1.57-0.5,3.15-0.78,4.72c-0.1,0.54,0.03,1.41-1.08,1.03
		c-0.1-0.04-0.63,0.79-0.76,1.27c-0.49,1.85-0.84,3.74-1.33,5.6c-0.58,2.17-1.31,4.26-3.04,5.88c-0.55,0.51-0.82,1.35-1.1,2.09
		c-1.86,5.02-3.64,10.07-5.55,15.07c-1.37,3.58-2.87,7.11-4.4,10.62c-0.39,0.9-1.1,1.67-1.94,2.41c0.01-1.56-1.28-2.81,0.18-4.6
		c1.46-1.78,2.19-4.25,2.93-6.51c2.06-6.39,4.03-12.81,5.1-19.47c0.11-0.69,0.28-1.47,0.69-2.01c1.65-2.2,2.17-4.79,2.67-7.38
		c1.55-8.03,2.28-16.15,2.53-24.31c0.05-1.51-0.67-3.05-1.03-4.58c-0.27-1.14-0.44-2.31-0.78-3.43c-1.01-3.37-2.19-6.69-3.11-10.08
		c-1.67-6.17-3.25-12.36-4.77-18.57c-1.43-5.82-2.72-11.67-4.09-17.51c-0.05-0.22-0.2-0.42-0.41-0.86
		c-0.31,0.73-0.61,1.27-0.78,1.84c-2.34,8.06-4.68,16.12-6.96,24.19c-0.45,1.61-0.63,3.29-0.92,4.95c-0.07,0.39-0.01,0.85-0.19,1.18
		c-1.58,2.89-1.18,6.08-1.33,9.14c-0.96,20.69-1.69,41.38-0.72,62.1c0.15,3.27,0.11,6.55,0.15,9.83c0.01,0.48,0.02,0.96-0.01,1.44
		c-0.11,1.6-0.81,2.41-2.06,2.44c-1.2,0.02-2.08-0.8-2.35-2.25c-0.32-1.73-0.6-3.47-0.91-5.19c-0.12-0.63-0.22-1.27-0.46-1.86
		c-3.54-8.76-4.86-18.03-6.33-27.27c-0.83-5.21-1.52-10.44-2.28-15.66c-0.07-0.47-0.15-0.93-0.64-1.47
		c-0.11,0.52-0.26,1.04-0.32,1.57c-0.7,6.08-0.18,12.11,0.61,18.16c1.03,7.85,1.95,15.71,2.66,23.59c0.25,2.73,0.72,5.32,1.62,7.89
		c2.88,8.24,4.19,16.73,3.64,25.47c-0.05,0.72-0.11,1.43-0.21,2.15c-0.03,0.21-0.22,0.41-0.54,0.97c-0.39-1.3-0.69-2.31-0.99-3.31
		c-1.16,6.33-2.48,12.59-1.64,19.48c-0.55-0.5-0.72-0.61-0.83-0.76c-0.13-0.18-0.21-0.4-0.45-0.89c-0.24,0.63-0.46,1-0.52,1.4
		c-0.61,4.11-1.21,8.23-1.8,12.34c-0.75,5.26-2.66,10.18-4.36,15.18c-0.61,1.81-1.02,3.69-1.48,5.54c-0.34,1.38-0.63,2.78-1.03,4.57
		c-0.53-0.85-0.82-1.33-1.32-2.14c-0.53,3.01-0.2,5.6-0.03,8.2c0.11,1.66,0.18,3.35,0.04,5.01c-0.4,4.7,0.29,9.32,1.53,13.76
		c1.4,4.98,3.39,9.79,5.2,14.65c1.06,2.84,2.29,5.63,3.4,8.45c0.13,0.34,0.05,0.76,0.06,1.15l0.05,0.03
		c-2.87-4.13-5.82-8.2-8.57-12.4c-2.58-3.94-4.83-8.09-7.46-12c-2.42-3.6-3.59-7.51-3.34-11.76c0.34-5.65,0.65-11.33,1.51-16.92
		c1.36-8.83,3.16-17.59,4.77-26.38c-0.01,0.01-0.02,0.01-0.03,0.02c-0.5,0.86-1.12,1.68-1.48,2.6
		c-4.06,10.43-8.07,20.87-12.11,31.31c-0.35,0.89-0.71,1.79-1.17,2.62c-0.15,0.27-0.66,0.55-0.95,0.49
		c-0.27-0.05-0.57-0.5-0.67-0.83c-0.11-0.36-0.02-0.79,0.02-1.19c1.51-15.38,3.75-30.64,8.11-45.5c2.63-8.97,5.56-17.86,8.44-26.76
		c1.28-3.94,1.51-7.87,1.38-12.02c-0.25-8.39-2.28-16.3-5.33-23.98c-1.97-4.95-2.36-10.11-2.55-15.29
		c-0.27-7.19-0.31-14.39-0.43-21.59c-0.04-2.18-0.2-4.2-1.73-6.06c-0.84-1.02-1.18-2.65-1.29-4.04c-0.4-5.1-0.67-10.21-0.87-15.32
		c-0.07-1.86-0.37-3.61-0.92-5.39c-1.69-5.57-3.23-11.19-4.95-17.26c-0.12,1.21-0.29,2.07-0.28,2.93
		c0.02,8.87-0.05,17.75,0.14,26.62c0.17,7.92,0.75,15.82,2.05,23.64c0.12,0.71,0.28,1.41,0.41,2.12c0.2,1.04-0.01,1.93-1.01,2.45
		c-1.06,0.55-2.13,0.35-2.84-0.51c-0.63-0.78-1.17-1.75-1.38-2.72c-0.62-2.81-1.19-5.64-1.53-8.49
		c-1.66-14.05-3.55-28.08-4.76-42.17c-0.92-10.74-0.96-21.56-1.38-32.34c-0.03-0.87,0-1.75-0.34-2.75
		c-0.19,0.42-0.46,0.82-0.55,1.26c-0.84,3.99-1.67,7.98-2.46,11.98c-0.17,0.86-0.25,1.74-0.26,2.62
		c-0.16,10.63-0.26,21.27-0.45,31.9c-0.2,11.6-0.25,23.2,0.66,34.77c0.35,4.45,1.16,8.87,1.97,13.26
		c1.53,8.34,3.13,16.66,4.85,24.95c0.53,2.56,1.5,5.04,2.37,7.53c1.37,3.92,2.88,7.8,4.22,11.73c1.52,4.48,3.44,8.77,5.81,12.87
		c1.32,2.28,2.56,4.62,3.8,6.94c0.36,0.66,0.99,1.32,0.21,2.42c-2.42-1.37-3.64-3.9-5.51-5.72c-1.89-1.83-3.05-4.42-4.9-6.66
		c0.06,1.05,0.09,2.1,0.19,3.15c0.19,1.98-0.2,3.75-1.33,5.46c-0.86,1.32-1.43,2.85-1.98,4.35c-1.5,4.13-2.92,8.3-4.38,12.44
		c-0.29,0.82-0.62,1.62-1.25,2.37c0.09-1.61,0.24-3.21,0.27-4.82c0.14-7.47-0.92-14.8-2.56-22.08c-1.81-8.03-3.56-16.08-5.29-24.13
		c-0.23-1.07-0.12-2.2-0.21-3.3c-0.08-1.02-0.08-2.08-0.35-3.06c-2.01-7.49-4.21-14.93-6.09-22.45
		c-3.09-12.33-6.18-24.67-8.86-37.09c-1.06-4.89-1.07-10-1.46-15.02c-0.31-3.99-0.34-7.99-0.69-11.97
		c-0.64-7.46,0.3-14.85,0.83-22.26c0.37-5.18,0.82-10.36,1.18-15.55c0.06-0.87,0.43-1.92-0.7-2.7c-0.24,0.35-0.54,0.63-0.64,0.96
		c-1.61,5.46-2.41,11.06-2.99,16.71c-0.58,5.65-1.37,11.27-2.07,16.9c-0.08,0.63-0.19,1.25-0.71,1.96c-2.5-7.56-5-15.13-7.5-22.69
		c-1.08,2.76-1.64,5.55-1.71,8.38c-0.15,6.79-0.47,13.6-0.2,20.39c0.56,14.3,1.18,28.61,2.28,42.87c0.79,10.2,3.02,20.22,5.31,30.21
		c2.62,11.4,6.57,22.39,10.01,33.54c0.61,1.98,1.55,3.85,2.35,5.77c0.33,0.78,0.56,1.57-0.34,2.11c-0.9,0.54-1.75,0.25-2.36-0.49
		c-0.61-0.73-1.19-1.53-1.6-2.38c-1.8-3.74-3.6-7.49-5.29-11.28c-2.12-4.75-4.12-9.54-6.19-14.31c-0.25-0.58-0.48-1.27-0.93-1.65
		c-2.43-2.03-3.25-4.89-4.09-7.72c-0.92-3.14-1.67-6.33-3.64-9.07c-0.35-0.48-0.37-1.21-0.5-1.83c-0.77-3.51-2.21-6.7-4.73-9.29
		c-4.83-4.96-7.53-11.05-9.57-17.51c-0.67-2.11-1.4-4.17-2.82-6.47c0,1.01-0.04,1.54,0.01,2.05c1.04,12.35,2.08,24.7,3.13,37.05
		c0.03,0.4,0.16,0.85,0.02,1.18c-0.2,0.47-0.56,1.15-0.93,1.2c-0.52,0.07-1.38-0.19-1.6-0.59c-0.46-0.81-0.69-1.78-0.84-2.72
		c-0.32-2.07-0.93-4-1.82-5.92c-1.88-4.03-2.44-8.44-2.96-12.8c-1.03-8.73-1.85-17.49-2.93-26.22c-0.76-6.11-1.81-12.18-2.75-18.26
		c-0.13-0.83-0.4-1.63-1.06-2.4c-0.06,0.41-0.18,0.81-0.18,1.22c0.19,10.87,0.66,21.75,0.54,32.62
		c-0.13,12.38,2.13,24.32,5.62,36.09c0.86,2.91,1.72,5.83,2.82,8.66c1.84,4.72,4.37,9,7.87,12.77c3.41,3.69,6.51,7.67,9.62,11.63
		c2.48,3.16,3.75,6.83,4.02,10.86c0.2,3.03,0.45,6.06,0.8,9.08c0.18,1.57,0.63,3.11,0.96,4.67c0.49,2.26,1.36,4.51,1.41,6.77
		c0.27,12.96,2.6,25.59,5.9,38.06c3.83,14.49,8.82,28.55,15.84,41.83c1.68,3.18,3.57,6.24,5.35,9.36c0.3,0.52,0.56,1.06,0.46,1.85
		c-0.47-0.66-0.96-1.31-1.42-1.98c-10.54-15.12-17.56-31.85-22.72-49.45c-0.35-1.21-0.58-2.43-1.62-3.39
		c-0.52-0.48-0.7-1.43-0.83-2.2c-0.68-4.09-1.31-8.19-1.93-12.3c-0.51-3.4-1-6.8-1.48-10.2c-0.18-1.27-0.21-2.55-0.42-3.81
		c-0.35-2.2-0.77-4.39-1.19-6.57c-0.48-2.51-1.13-5-1.47-7.53c-0.5-3.73-1.91-7.1-3.76-10.29c-1.18-2.03-2.03-4.14-2.7-6.37
		c-0.57-1.89-1.28-3.72-2.85-5.78c0.17,1.39,0.26,2.23,0.36,3.07c-0.13,0.07-0.25,0.14-0.38,0.21c-0.75-1.16-1.45-2.36-2.29-3.46
		c-0.44-0.58-1.12-0.99-1.68-1.48c0.05-0.1,0.09-0.19,0.13-0.29c-0.06,0.09-0.13,0.17-0.19,0.26c0.41,0.86,0.83,1.72,1.24,2.59
		l-0.01,0.01c-1.13-1.8-2.46-3.51-3.34-5.43c-3.37-7.35-8.15-13.73-13.38-19.8c-1.86-2.17-4.1-4.01-6.15-6.01
		c-0.74-0.73-1.91-1.09-1.84-2.54c0.02-0.45-0.78-0.94-1.22-1.41c-3.14-3.3-6.41-6.49-9.42-9.91
		c-9.54-10.88-19.18-21.69-26.92-33.99c-1.4-2.23-2.75-4.5-4.06-6.79c-0.92-1.61-1.54-3.33-1.49-5.24c0.01-0.54-0.07-1.14-0.3-1.63
		c-1.77-3.83-3.59-7.63-5.64-11.98c-0.67,3.3-2.07,5.75-0.98,9.03c3.71,11.24,7.16,22.56,11.92,33.41c1.03,2.34,2.17,4.63,3.31,6.92
		c0.24,0.49,0.62,0.92,0.99,1.32c3.35,3.65,6.69,7.32,10.09,10.93c4,4.25,8.04,8.46,12.11,12.64c3.02,3.1,6.36,5.83,9.97,8.24
		c0.76,0.51,1.27,1.37,1.95,2.01c1.4,1.3,2.83,2.56,4.26,3.82c0.54,0.47,1.14,0.88,1.65,1.38c0.19,0.19,0.33,0.67,0.22,0.84
		c-0.19,0.29-0.61,0.63-0.9,0.61c-0.62-0.05-1.24-0.28-1.82-0.51c-0.44-0.17-0.86-0.43-1.25-0.71c-7.07-5.19-14.5-9.93-20.57-16.39
		c-1.3-1.38-2.95-2.44-4.44-3.64c-0.19-0.15-0.39-0.38-0.59-0.39c-2.99-0.18-4.4-2.61-6.29-4.37c-0.17-0.16-0.38-0.28-0.56-0.41
		c-2.32,0.52-2.35,0.55-4.29-1.08c-1.03-0.87-2.06-1.79-2.9-2.84c-4.15-5.17-8.4-10.28-12.31-15.64
		c-5.89-8.08-11.37-16.43-15.98-25.33c-0.59-1.13-1.31-2.2-1.9-3.33c-0.35-0.66-0.52-1.42,0.24-1.93c0.76-0.52,1.36-0.07,1.85,0.52
		c1.8,2.14,3.59,4.29,5.41,6.42c0.48,0.56,1.02,1.07,1.54,1.6c0.13-0.1,0.26-0.2,0.39-0.3c-0.15-0.42-0.27-0.86-0.46-1.26
		c-4.86-10.35-9.72-20.7-14.58-31.04c-3.1-6.6-6.78-12.87-11.12-18.74c-0.24-0.32-0.45-0.67-0.72-0.96
		c-5.88-6.22-8.91-13.93-11.52-21.87c-0.29-0.9-0.59-1.79-1.25-2.66c0,1.25,0,2.5,0,3.74c-1.45-1.85-2.55-3.69-2.95-5.95
		c-0.97-5.43-1.94-10.87-3.28-16.21c-0.65-2.58-2-5.03-3.29-7.4c-2.79-5.12-5.55-10.27-8.67-15.2c-2.86-4.51-6.17-8.74-9.3-13.09
		c-0.44-0.61-0.99-1.13-1.85-2.09c4.35,22.89,11.54,44.21,21.08,65.36c0.2-2.34,0.34-4.21,0.51-6.08c0.17-1.78,0.01-3.62,0.93-5.68
		c0.49,0.77,0.78,1.2,1.03,1.65c0.31,0.56,0.43,1.32,0.88,1.69c1.87,1.51,2.02,3.72,2.42,5.78c1.14,5.8,2.11,11.64,3.3,17.43
		c0.85,4.13,1.97,8.21,2.92,12.32c1.01,4.36,1.89,8.75,2.97,13.09c0.46,1.84,1.34,3.57,1.94,5.38c0.17,0.52,0.24,1.33-0.04,1.68
		c-0.57,0.72-1.58,0.65-2.12,0.01c-0.7-0.83-1.13-1.88-1.64-2.86c-0.62-1.19-1.17-2.42-1.81-3.61c-0.12-0.22-0.5-0.29-0.76-0.44
		c0-0.12,0.01-0.24,0.01-0.36c-0.08,0.04-0.17,0.08-0.25,0.11c0.1,0.07,0.2,0.14,0.29,0.21c0.04,0.39,0,0.81,0.14,1.16
		c2.41,5.99,4.38,12.18,7.89,17.69c0.89,1.4,1.66,2.89,2.49,4.33c0.16-0.07,0.33-0.13,0.49-0.2c-0.61-1.71-1.23-3.42-1.88-5.23
		c1.63-0.42,1.87,1.37,3.24,1.74c0.13-2.26,0.26-4.38,0.39-6.49c0.05-0.8,0.01-1.6,0.12-2.39c0.13-0.97,0.76-1.57,1.69-1.8
		c0.96-0.23,1.84,0.12,2.27,0.95c0.58,1.12,1,2.34,1.38,3.55c1.65,5.17,3.11,10.4,4.93,15.51c1.39,3.9,2.93,7.8,4.86,11.46
		c8.19,15.54,16.32,31.12,24.93,46.43c4.95,8.8,12.48,15.26,21.53,19.84c4.13,2.09,8.34,3.99,11.8,7.22c1.32,1.23,3.06,2,4.59,3.01
		c0.48,0.32,0.93,0.71,0.33,1.33c0,0,0.05-0.05,0.05-0.05c0.74,0.59,1.43,1.27,2.23,1.77c4.74,2.96,9.52,5.88,14.28,8.81
		c1.63,1.01,3.29,1.98,4.87,3.06c0.76,0.52,1.36,1.26,2.04,1.92c-0.95,1.06-1.84,0.92-2.77,0.5c-5.38-2.43-10.92-4.58-16.11-7.37
		c-6.61-3.55-12.94-7.61-19.4-11.45c-0.48-0.28-0.98-0.55-1.5-0.73c-7.72-2.74-14.72-6.96-21.96-10.69
		c-0.84-0.44-1.55-1.13-2.37-1.62c-1.07-0.64-2.19-1.19-3.46-1.88c-0.32,1.34-0.06,2.15,0.46,3.01c0.86,1.43,1.74,2.87,2.33,4.42
		c5.07,13.29,10.04,26.61,15.12,39.89c1.75,4.56,3.13,9.18,4.13,13.98c1.3,6.25,3.19,12.37,4.8,18.55
		c2.16,8.27,4.24,16.57,7.58,24.48c0.15,0.37,0.42,0.8,0.35,1.13c-0.62,2.61,1.22,4.26,2.19,6.34c0.59-0.23,1.01-0.4,1.43-0.57
		l-0.05-0.05c-0.42,2.1-1.42,2.63-3.02,1.5c-1.07-0.75-1.79-1.97-3.44-1.81c-0.33,0.03-0.93-1.19-1.16-1.91
		c-2.14-6.53-4.44-13.01-6.29-19.62c-2.83-10.11-6.61-19.86-10.65-29.52c-1.57-3.76-3.16-7.51-4.76-11.26
		c-0.33-0.78-0.76-1.52-1.22-2.44c-0.67,0.45-1.13,0.74-1.56,1.06c-5.48,4.01-10.94,8.05-16.45,12.03
		c-10.42,7.55-20.86,15.07-31.31,22.58c-1.33,0.96-2.32,2.12-3.15,3.53c-6.15,10.47-12.24,20.99-18.57,31.35
		c-3.87,6.33-8.15,12.42-12.26,18.61c-0.46,0.69-1.06,1.29-1.55,1.88c-0.33-0.2-0.4-0.23-0.45-0.28c-0.05-0.05-0.1-0.12-0.13-0.2
		c-0.02-0.07-0.03-0.16-0.01-0.24c0.03-0.16,0.06-0.31,0.12-0.46c0.14-0.37,0.29-0.74,0.45-1.11c5.43-12.62,10.86-25.23,16.28-37.85
		c0.02-0.05-0.05-0.13-0.2-0.48c-0.72,0.52-1.38,1.02-2.06,1.51c-10.87,7.88-21.66,15.87-32.64,23.6c-4.49,3.16-9.43,5.7-14.07,8.66
		c-2.55,1.63-4.9,3.57-7.37,5.33c-0.76,0.54-1.62,0.93-2.43,1.39c0,0,0.06,0.06,0.06,0.06c0.62-0.6,1.2-1.27,1.87-1.8
		c5.38-4.25,10.7-8.58,16.2-12.68c11.13-8.31,21.74-17.23,32.29-26.25c0.54-0.46,1.13-0.85,1.7-1.28c-0.03-0.04-0.05-0.07-0.07-0.11
		c0,0.06,0.01,0.11,0.01,0.17c-1.23-0.39-1.94,0.58-2.74,1.13c-9.7,6.61-19.4,13.21-29.03,19.92c-6.62,4.61-13.12,9.37-19.69,14.04
		c-0.62,0.44-1.37,0.7-2.05,1.04c0,0,0.06,0.05,0.06,0.05c1.42-1.15,2.79-2.36,4.25-3.46c18.93-14.23,38.19-27.97,58.02-40.92
		c2.62-1.71,4.78-3.64,5.99-6.6c0.69-1.69,1.71-3.25,2.55-4.89c2.18-4.29,3.87-8.69,4.79-13.48c1.67-8.71,3.8-17.33,5.73-25.99
		c0.19-0.85,0.32-1.71,0.52-2.76c-0.84-0.42-1.58-0.86-2.37-1.18c-5.42-2.17-10.88-4.23-16.25-6.51c-2.49-1.06-4.77-2.6-7.2-3.8
		c-7.45-3.7-14.96-7.29-21.94-11.84c-4.69-3.06-9.28-6.26-13.89-9.43c-3.29-2.26-6.55-4.56-9.82-6.85
		c-0.97-0.68-2.03-1.29-1.94-2.79c0.02-0.39-0.44-0.82-0.7-1.21c-6.17-9.24-12.35-18.48-18.53-27.71c-0.17-0.26-0.37-0.51-0.51-0.72
		c-0.24-0.04-0.42-0.13-0.55-0.09c-3.73,1.2-3.98,1.5-3.32,5.43c0.86,5.16,2.65,10.03,4.82,14.78c2.6,5.67,5.1,11.38,7.82,16.99
		c0.89,1.84,2.32,3.42,3.55,5.08c2.58,3.45,5.17,6.89,7.8,10.29c0.96,1.24,2.06,2.38,3.45,3.96c-1.01-0.17-1.52-0.2-1.99-0.35
		c-3.99-1.31-7.06-3.98-10.02-6.83c-1.21-1.16-2.47-2.26-3.75-3.35c-0.33-0.28-0.81-0.38-1.51-0.69c-0.06,1.1-0.17,1.95-0.15,2.79
		c0.18,10.31,0.41,20.62,0.58,30.94c0.24,15.11,0.39,30.22,0.67,45.33c0.07,3.83,0.55,7.65,0.75,11.48
		c0.18,3.43,0.29,6.87,0.29,10.31c0,0.89-0.33,1.92-0.86,2.63c-0.91,1.21-2.14,1.07-2.86-0.26c-0.44-0.82-0.68-1.78-0.84-2.71
		c-0.18-1.01-0.16-2.06-0.23-3.06c-2-0.65-2.07-0.65-2.15-2.81c-0.24-6.31-0.38-12.63-0.62-18.94c-0.1-2.47-0.32-4.94-0.57-7.41
		c-0.08-0.76-0.44-1.49-0.69-2.23c-0.08-0.22-0.35-0.41-0.34-0.61c0.27-4.75-1.22-9.26-1.95-13.87c-1.5-9.58-2.23-19.21-2.83-28.87
		c-0.47-7.66-1.13-15.31-1.95-22.93c-0.33-3.07-1.29-6.09-2.08-9.1c-0.4-1.52-0.87-3.02-2.4-4c-0.66-0.42-0.96-1.43-1.35-2.21
		c-0.38-0.78-0.66-1.6-1.04-2.54c-0.68,0.13-1.31,0.17-1.89,0.36c-6.08,1.96-12.13,4.05-18.25,5.91c-9.63,2.93-19.28,5.8-28.97,8.54
		c-11.52,3.26-22.37,8.09-33,13.49c-0.91,0.46-1.83,1.01-2.58,1.71c-9.89,9.21-19.77,18.43-29.62,27.68
		c-8.76,8.23-16.39,17.5-24.42,26.41c-10.59,11.76-21.41,23.33-32.06,35.04c-4.73,5.2-9.26,10.59-13.95,15.83
		c-3.41,3.81-7.02,7.44-10.42,11.27c-6.99,7.89-16.39,11.71-25.84,15.44c-0.73,0.29-1.54,0.4-2.32,0.56
		c-0.37,0.08-0.75,0.1-1.24-0.2c0.36-0.17,0.72-0.33,1.07-0.5c3.86-1.91,7.74-3.8,11.57-5.76c0.69-0.35,1.28-0.95,1.85-1.5
		c4.06-3.85,8.1-7.73,12.17-11.58c5.58-5.29,10.65-11.01,15.56-16.94c10.39-12.57,21.09-24.89,31.7-37.28
		c13.37-15.61,26.51-31.41,38.99-47.75c2.71-3.55,5.13-7.38,8.22-10.56c2.48-2.56,4.91-5.43,8.77-6.42
		c2.19-0.56,4.26-1.83,6.23-3.02c6.77-4.1,13.48-8.3,20.21-12.46c1.43-0.88,2.85-1.78,4.29-2.64c1.5-0.88,3.05-1.54,3.11-3.78
		c0.03-1.3,1.16-2.15,2.57-2.51c0.7-0.18,1.46-0.67,1.9-1.24c2.19-2.8,4.69-5.22,7.77-7.05c2.08-1.25,3.25-3.26,4.13-5.45
		c1.66-4.12,2.41-8.44,2.9-12.83c0.95-8.51-0.56-16.73-3.04-24.82c-0.14-0.46-0.3-0.91-0.45-1.37c-1.43-4.28-1.43-4.28-5.83-5.1
		c-0.31-0.06-0.64-0.04-0.95-0.08c-2.24-0.32-2.89-1.95-1.46-3.72c0.39-0.49,0.94-0.85,1.43-1.26c0.42-0.35,0.84-0.69,1.38-1.13
		c-0.35-0.78-0.61-1.53-1.01-2.2c-2.7-4.53-5.24-9.18-8.2-13.53c-2.1-3.08-4.8-5.77-7.23-8.63c-0.77-0.91-1.64-1.75-2.3-2.74
		c-1.54-2.3-3.7-3.7-6.21-4.69c-9.46-3.69-18.95-7.28-28.34-11.14c-3.67-1.51-7.49-2.22-11.29-3.15
		c-11.26-2.75-22.52-5.51-33.76-8.34c-2.31-0.58-4.53-1.5-6.79-2.26c0.02-0.16,0.03-0.32,0.05-0.48c0.48-0.05,0.99-0.22,1.45-0.13
		c5.8,1.14,11.63,2.16,17.39,3.51c16.2,3.8,32.55,6.79,48.95,9.56c2.12,0.36,4.23,0.87,6.32,1.4c2.98,0.75,2.97,0.78,4.69-1.97
		l0.02,0.01c1.07-0.98,1.31-2.08,0.66-3.43c-0.44-0.93-0.71-1.95-1.05-2.93c-5.7-16.85-12.23-33.42-16.82-50.64
		c-0.86-3.23-2.03-6.38-3.04-9.57c-0.13-0.43-0.17-0.89-0.32-1.72c0.69,0.37,1.2,0.48,1.38,0.78c0.6,1.03,1.22,2.09,1.57,3.22
		c3.62,11.39,9.06,22,14.09,32.76c4.63,9.91,9.72,19.6,14.66,29.37c0.9,1.78,2.01,3.45,3.09,5.13c0.96,1.49,2.19,2.55,3.87,3.39
		c1.54,0.76,2.64,2.41,3.93,3.67c0.03-0.03,0.06-0.06,0.08-0.09c-0.05,0.02-0.1,0.03-0.15,0.04c-0.04-0.53,0.07-1.14-0.16-1.56
		c-0.84-1.54-1.71-3.08-2.72-4.51c-1.41-2.01-2.18-4.23-2.8-6.57c-1.62-6.1-3.23-12.2-5.05-18.24c-1.54-5.12-3.35-10.17-5.08-15.24
		c-3.13-9.17-7.09-17.99-11.04-26.82c-3.3-7.36-6.25-14.88-9.44-22.3c-1.1-2.57-2.47-5.02-3.65-7.55c-0.92-1.97-0.92-2.21-0.84-4.01
		c0.51,0.38,1,0.64,1.34,1.03c0.64,0.72,1.24,1.47,1.76,2.27c10.09,15.2,18.7,31.1,23.25,48.94c0.45,1.76,1.13,3.51,2,5.11
		c5.73,10.53,11.53,21.03,17.33,31.52c3.21,5.81,6.38,11.64,10.46,16.91c0.48,0.63,0.97,1.33,1.18,2.08
		c0.66,2.41,2.33,4.14,3.84,5.99c2.47,3.04,5.06,6,7.34,9.18c1.99,2.77,4.74,4.43,7.75,6.01c-0.19-0.35-0.35-0.72-0.58-1.03
		c-0.87-1.18-2.15-2.05-2.13-3.83c0.01-0.57-0.95-1.21-1.55-1.71c-0.94-0.78-1.91-1.4-1.21-2.95c0.26-0.57-0.2-1.46-0.39-2.55
		c1.27,0.79,2.23,1.55,3.31,2c1.08,0.45,2.29,0.61,3.72,0.96c0.37-1.24,0.83-2.34,1-3.49c0.29-1.97,0.46-3.97,0.56-5.96
		c0.17-3.67,0.2-7.35,0.39-11.02c0.15-2.98-0.15-5.87-0.93-8.77c-0.42-1.57-0.34-3.3-0.37-4.95c-0.01-0.46,0.42-0.94,0.88-1.9
		c1.57,2.61,2.92,4.85,4.27,7.09c0.14-0.07,0.29-0.14,0.43-0.22c-1.12-3.21-1.93-6.59-3.44-9.61c-2.67-5.3-4.14-10.88-5.04-16.68
		c-0.2-1.26-0.44-2.51-1.01-3.78c-0.1,0.57-0.27,1.13-0.28,1.7c-0.07,6.08-0.15,12.15-0.13,18.23c0,1.14,0.46,2.28,0.74,3.58
		c-0.56,0.78-1.28,0.58-1.79-0.21c-0.56-0.86-1.12-1.8-1.34-2.79c-0.58-2.56-1.08-5.16-1.42-7.76c-0.47-3.57-0.57-7.19-1.19-10.72
		c-0.45-2.56-1.32-5.09-2.28-7.52c-2.44-6.16-5.04-12.26-7.59-18.38c-0.21-0.51-0.48-1.06-0.87-1.42c-2.64-2.44-4.29-5.56-6.04-8.6
		c-2.11-3.69-5.01-6.63-8.49-8.98c-2.3-1.55-3.31-3.56-3.08-6.3c0.07-0.78,0.03-1.61-0.18-2.36c-2.54-9.33-5.12-18.65-7.69-27.98
		c-0.06-0.22-0.19-0.43-0.48-1.07c-0.47,1.39-0.82,2.45-1.18,3.51c-0.83,2.44-1.28,4.91-1.2,7.52c0.15,4.79,0.11,9.59,0.17,14.39
		c0.02,1.19,0.04,2.4,0.24,3.58c0.18,1.05-0.18,1.8-0.76,2.71c-1.55-1.32-1.51-2.95-1.63-4.51c-0.34-4.54-0.67-9.08-1.01-13.63
		c-0.02-0.32-0.04-0.64-0.11-0.95c-2.03-9.25-0.92-18.46,0.36-27.65c0.22-1.62,0.16-3.13-0.24-4.72
		c-4.58-18.3-9.08-36.62-13.66-54.91c-1.17-4.65-2.57-9.24-3.85-13.86c-0.23-0.85-0.45-1.7-0.56-2.57c-0.04-0.3,0.27-0.65,0.64-1.47
		c0.7,1.5,1.2,2.58,1.69,3.66c0.1-0.03,0.21-0.05,0.31-0.08c0.06-0.84,0.11-1.69,0.17-2.53l-0.1-0.03c0.59,2.72,1.17,5.45,1.78,8.17
		c0.24,1.09,0.52,2.17,0.85,3.24c2.81,9.25,5.61,18.5,8.47,27.74c1.16,3.74,2.48,7.43,3.73,11.13c0.09,0.26,0.29,0.49,0.71,1.19
		c0.19-1.96,0.29-3.42,0.47-4.88c0.95-7.95,2.85-15.71,4.61-23.51c1.46-6.45,2.33-13.05,3.1-19.63c0.53-4.54-0.76-8.88-2.99-12.89
		c-2.79-5.03-5.58-10.07-8.37-15.1c-0.11-0.21-0.27-0.39-0.45-0.64c-0.93,0.27-1.76,0.5-2.58,0.77c-5.62,1.83-11.2,3.84-16.88,5.45
		c-12.22,3.48-24.52,6.68-36.74,10.14c-10.07,2.85-20.09,5.89-30.11,8.92c-1.35,0.41-2.55,1.26-3.85,1.84
		c-1.15,0.51-2.36,1.35-3.52,1.3c-2.91-0.11-5.46,1.03-8.14,1.78c-0.31,0.09-0.6,0.29-0.9,0.31c-0.68,0.04-1.5,0.24-2.01-0.06
		c-0.76-0.44-0.38-1.26-0.07-1.93c0.06-0.13,0.03-0.3,0.06-0.59c-1.44-0.71-2.95-1.41-4.41-2.2c-0.91-0.49-1.79-1.07-2.58-1.73
		c-0.85-0.7-1.3-1.66-0.93-2.78c0.38-1.13,1.33-1.58,2.44-1.59c1.03-0.01,2.09,0.02,3.1,0.23c1.48,0.31,3,0.62,4.37,1.23
		c1.71,0.76,2.85,0.32,3.94-1.05c0.84-1.06,1.78-2.07,2.78-2.97c0.94-0.85,1.97-1.63,3.06-2.28c1.51-0.9,3.18-1.18,4.82-0.39
		c1.12,0.54,2.13,0.43,3.23,0.03c2.48-0.9,4.96-1.78,7.46-2.62c1.06-0.35,2.14-0.68,3.23-0.86c3.6-0.57,5.13,1.07,4.24,4.66
		c0.66-0.22,1.25-0.39,1.82-0.62c35.16-14.15,69.99-29.04,103.73-46.36c3.84-1.97,7.58-4.14,11.38-6.18
		c10.05-5.4,19.11-12.22,27.92-19.4c1.58-1.29,2.54-1.52,3.35-0.75c0.84,0.8,0.61,1.76-0.63,3.34
		c-11.31,14.39-22.62,28.79-33.88,43.22c-0.61,0.78-1.07,1.82-1.21,2.79c-0.6,4.03-1.04,8.07-1.53,12.12
		c-0.02,0.2,0.09,0.42,0.19,0.89c0.65-0.57,1.19-0.99,1.67-1.47c2.75-2.79,5.5-5.58,8.22-8.4c1.43-1.49,2.67-3.2,4.24-4.52
		c4.28-3.59,8.69-7.02,13.05-10.5c3-2.4,6-4.78,8.01-8.17c0.75-1.27,1.87-2.14,3.43-2.38c2.88-0.44,4.82-2.61,7.12-4.09
		c1.61-1.03,3.07-2.3,4.56-3.51c0.49-0.39,1.03-0.84,1.27-1.39c1.26-2.83,3.88-4.36,6.03-6.87c0.1,0.78,0.15,1.15,0.2,1.52
		c-0.21,0.28-0.43,0.56-0.63,0.85c0.03,0.03,0.05,0.05,0.07,0.08c-0.05-0.04-0.1-0.07-0.14-0.11c0.21-0.29,0.43-0.58,0.64-0.87
		c0.92-2.77,0.92-2.77,2.81-3.94c-0.12,0.95-0.23,1.79-0.35,2.71c3.3-1.44,20.89-16.55,25.65-22.07c-0.94,0.45-1.45,0.64-1.91,0.92
		c-14.39,8.81-28.77,17.63-43.15,26.45c-0.07,0.04-0.13,0.09-0.2,0.13c-0.83,0.49-1.75,1.18-2.49,0.01
		c-0.67-1.06,0.16-1.81,0.92-2.41c2.13-1.69,4.23-3.42,6.44-5c12.29-8.78,24.58-17.57,36.93-26.27c7.19-5.07,14.47-10,21.75-14.94
		c2.11-1.43,4.3-2.79,6.57-3.93c2.38-1.19,3.38-0.59,3.62,2.09c0.1,1.13-0.04,2.45-0.55,3.43c-1.54,2.98-3.16,5.93-5.02,8.71
		c-4.71,7.04-9.54,14.01-14.37,20.97c-4.78,6.9-9.59,13.78-14.43,20.64c-1.13,1.6-1.94,3.27-2.28,5.21
		c-0.82,4.72-1.72,9.44-2.58,14.15c-0.38,2.08-0.34,4.14,0.48,6.13c0.15,0.37,0.27,0.75,0.36,1.14
		c2.96,13.12,7.34,25.82,11.19,38.68c4.07,13.59,6.69,27.48,8.51,41.53c0.26,1.98,0.57,3.95,0.84,5.93c0.02,0.14-0.1,0.29-0.16,0.46
		c-0.81,0.37-1.22-0.18-1.46-0.76c-0.4-0.96-0.71-1.95-1-2.95c-5.26-18.13-11.37-35.96-18.8-53.34c-3.36-7.86-6.07-15.99-9.08-23.99
		c-0.33-0.89-0.69-1.77-1.22-3.13c-0.38,0.92-0.64,1.42-0.81,1.96c-2.69,8.78-3.88,17.8-4.24,26.93
		c-0.31,8.07-0.34,16.15-0.58,24.22c-0.06,2.06-0.53,4.1-0.68,6.16c-0.07,0.92,0.07,1.9,0.32,2.79c2.69,9.62,5.33,19.26,8.15,28.84
		c3.71,12.57,7.55,25.1,11.38,37.64c0.24,0.77,0.79,1.45,1.19,2.18c-0.03,0.24-0.05,0.47-0.07,0.7c0.06,0,0.13,0,0.19,0
		c-0.05-0.22-0.11-0.44-0.16-0.66c-1.06-6.87-2.28-13.73-3.14-20.63c-1.36-10.95-2.49-21.92-3.7-32.89
		c-0.6-5.48-1.17-10.97-1.7-16.46c-0.16-1.67-0.21-3.35-0.21-5.02c-0.01-0.95,0.12-1.92,1.54-2.46c0.33,0.81,0.73,1.55,0.92,2.33
		c0.53,2.18,1.03,4.31,2.5,6.15c0.66,0.83,0.92,2.03,1.18,3.11c2.61,10.72,5.23,21.43,7.75,32.17c2.94,12.53,5.83,25.07,8.65,37.63
		c0.87,3.89,2.7,7.33,4.57,10.77c0.29,0.54,0.75,1.06,1.25,1.42c7.41,5.24,12.72,12.3,17.27,20c0.39,0.66,0.84,1.29,1.26,1.93
		c0.16-0.05,0.33-0.09,0.49-0.14c-0.19-1.36-0.33-2.73-0.59-4.08c-1.43-7.54-2.91-15.06-4.32-22.6
		c-3.86-20.67-7.71-41.34-11.49-62.02c-0.68-3.69-1.42-7.44-1.44-11.16c-0.02-3.51-0.95-6.72-1.71-10.03
		c-0.2-0.86-0.71-1.85,0.57-2.83c0.52,0.68,1.22,1.25,1.47,1.98c0.6,1.71,0.94,3.51,1.47,5.25c3.58,11.94,7.25,23.86,10.76,35.83
		c2.27,7.75,4.32,15.56,6.47,23.34c0.1,0.37,0.26,0.73,0.82,1.11c0.17-1.59,0.37-3.17,0.5-4.76c0.2-2.46,0.35-4.93,0.53-7.4
		c0.2-2.78,0.61-5.57,0.57-8.35c-0.22-13.27-0.58-26.54-0.86-39.81c-0.12-5.76-0.07-11.52-0.22-17.27
		c-0.22-7.99-0.58-15.98-0.83-23.97c-0.21-6.63-0.31-13.27-0.51-19.9c-0.14-4.79,0.15-9.59-0.8-14.35
		c-0.27-1.33-0.08-2.83,0.96-4.65c0.37,2.02,0.6,3.53,0.94,5.01c0.21,0.9,0.62,1.74,0.9,2.62c0.16,0.52,0.28,1.06,0.33,1.6
		c1.85,22.39,3.95,44.76,6.7,67.06c0.55,4.44,1.23,8.87,1.87,13.3c0.07,0.51,0.3,0.99,0.62,2.03c0.43-1.27,0.7-1.99,0.92-2.74
		c1.39-4.76,3.01-9.46,4.1-14.29c1.24-5.44,3.23-10.64,4.42-16.1c1.19-5.46,2.96-10.8,4.12-16.27c1.01-4.76,1.76-9.6,2.2-14.45
		c0.64-6.95,1.65-13.8,3.59-20.5c0.04-0.15,0.07-0.31,0.11-0.47c0.19-0.68,0.24-1.61,1.24-1.42c0.94,0.19,0.76,1.12,0.72,1.8
		c-0.34,4.86-0.6,9.73-1.11,14.58c-1.33,12.64-2.91,25.26-2.64,38.01c0.03,1.41,0.28,2.86,0.68,4.22c1.15,3.83,2.45,7.61,3.66,11.42
		c1.19,3.71,3.12,6.96,5.74,9.86c0.91,1.01,1.37,2.44,1.88,3.38c0-3.76-0.03-7.84,0.01-11.92c0.05-4.16,0.03-8.32,0.3-12.47
		c0.26-4.06,0.53-8.17,1.4-12.13c0.87-3.95,0.22-8.23,2.19-11.93c0.19,0,0.37,0,0.56,0c0.15,0.47,0.43,0.95,0.42,1.42
		c-0.02,2.08-0.08,4.16-0.21,6.23c-0.71,12.07-0.57,24.14,0.23,36.2c0.39,5.83,1.77,11.5,4.7,16.48c4.3,7.33,9.33,14.23,16.72,18.84
		c4.95,3.09,10.13,5.79,15.21,8.66c0.19,0.11,0.45,0.12,0.89,0.23c0.03-0.58,0.11-1.08,0.07-1.58c-0.23-2.79-0.67-5.57-0.7-8.36
		c-0.05-3.63-0.73-7.11-1.54-10.63c-3.1-13.64-5.98-27.33-9.07-40.98c-1.13-4.98-2.65-9.88-3.98-14.82
		c-0.21-0.77-0.44-1.55-0.49-2.34c-0.03-0.46,0.27-0.93,0.53-1.73c0.56,0.64,0.95,0.92,1.13,1.31c1.7,3.7,3.36,7.41,4.33,11.4
		c2.49,10.25,5.08,20.48,7.64,30.72c0.22,0.9,0.5,1.78,0.74,2.67c0.16-0.02,0.32-0.03,0.48-0.05c0.04-0.82,0.11-1.64,0.13-2.46
		c0.27-10.07,0.53-20.14,0.82-30.21c0.2-7.14,1.51-14.14,2.71-21.16c0.89-5.2,1.91-10.38,1.39-15.72c-0.18-1.83,0.3-2.18,2.76-2.73
		c1.45-3.76,2.91-7.67,4.84-11.34c0.16,0.04,0.32,0.08,0.48,0.12c0,0.58,0.07,1.17-0.01,1.74c-1.19,8.79-2.41,17.58-3.6,26.38
		c-0.16,1.19-0.34,2.38-0.37,3.57c-0.26,12.71-0.54,25.42-0.72,38.14c-0.06,4.31,0.12,8.63,0.2,12.95c0.01,0.55,0.14,1.09,0.53,1.68
		c0.15-0.71,0.36-1.42,0.45-2.14c1.22-10.4,2.35-20.81,3.68-31.2c0.34-2.65,1.25-5.24,1.98-7.84c0.24-0.87,1.07-1.35,1.88-1.1
		c0.56,0.17,1.24,0.82,1.38,1.37c0.43,1.73,0.87,3.46,0.88,5.29c0.02,7.83,0.25,15.66,0.21,23.49c-0.04,7.76-0.24,15.51-0.47,23.27
		c-0.28,9.51,1.03,18.82,3.3,28.02c2.11,8.54,4.31,17.05,6.49,25.57c0.19,0.73,0.49,1.43,0.86,2.5c0.4-0.66,0.64-0.95,0.77-1.29
		c3.73-9.63,7.32-19.32,8.75-29.6c0.77-5.54,1.15-11.13,1.57-16.71c0.39-5.26,0.59-10.54,0.89-15.81
		c0.54-9.39-0.22-18.69-1.98-27.91c-2.27-11.86-4.51-23.72-6.75-35.58c-0.25-1.33-0.48-2.68-0.58-4.03c-0.05-0.7,0.21-1.42,0.38-2.4
		c1.82,1.3,2.48,2.82,2.86,4.45c1,4.36,1.9,8.75,2.84,13.12c0.26,1.24,0.5,2.49,0.75,3.77c0.76-0.22,1.57-0.73,1.96-0.51
		c0.61,0.35,1.09,1.14,1.34,1.84c0.51,1.43,0.82,2.92,1.24,4.38c0.15,0.5,0.39,0.97,0.81,1.97c0.61-2.79,1.12-5.04,1.6-7.29
		c4.52-21.19,9.47-42.29,15.28-63.17c1.35-4.85,2.8-9.68,5.3-14.11c0.34-0.6,0.43-1.36,0.59-2.06c0.44-1.87,0.85-3.74,1.31-5.6
		c0.18-0.74,0.37-1.54,1.16-1.89c0.22,0.17,0.45,0.28,0.44,0.35c-0.74,4.14-1.52,8.28-2.27,12.42c-2.4,13.3-4.81,26.59-7.18,39.89
		c-2.56,14.33-4.73,28.7-6.17,43.2c-0.99,10-0.43,19.94-0.09,29.9c0.14,4.07,0.47,8.14,0.81,12.21c0.18,2.15,0.41,4.31,0.87,6.41
		c2.58,11.64,5.52,23.18,9.63,34.39c0.93,2.53,2.16,5,3.59,7.28c4.84,7.69,10.55,14.67,17.56,20.51c1.51,1.26,2.98,2.61,4.98,3.31
		c2.84-13.74,2.51-27.4,0.77-41.14c-0.16,0.92-0.36,1.83-0.47,2.76c-0.7,6.04-1.38,12.07-2.08,18.11c-0.06,0.56-0.06,1.15-0.28,1.65
		c-0.2,0.44-0.64,1.05-1,1.07c-0.42,0.02-1.14-0.43-1.27-0.82c-0.29-0.89-0.42-1.87-0.4-2.82c0.08-4.24,0.22-8.47,0.38-12.71
		c0.52-14.39,0.82-28.77,0.32-43.17c-0.21-5.95-1.34-11.74-2.24-17.58c-1.73-2.65-0.89-5.64-0.98-8.47c-0.1-2.86,0.15-5.74,0.4-8.6
		c0.67-7.72,1.41-15.44,2.16-23.16c0.13-1.35,0.35-2.69,0.64-4.01c0.76-3.43,1.57-6.86,2.38-10.28c0.14-0.59,0.33-1.17,0.86-1.71
		c0.08,2.59,0.22,5.17,0.22,7.76c-0.01,12.07-0.13,24.15-0.06,36.22c0.02,3.1,0.53,6.2,0.89,9.29c0.05,0.47,0.49,0.89,0.75,1.34
		c0.43-0.29,1.04-0.48,1.24-0.89c0.43-0.84,0.74-1.78,0.93-2.71c1.34-6.82,2.61-13.66,3.96-20.48c1.57-7.92,3.34-15.8,4.77-23.75
		c1.09-6.05,1.73-12.19,2.69-18.27c0.56-3.55,1.53-7.04,2-10.59c0.63-4.75,0.95-9.54,1.39-14.32c0.3-3.26,0.58-6.53,0.88-9.79
		c0.15-1.58,0.52-3.17-0.19-4.72c-0.13-0.28-0.11-0.63-0.11-0.95c-0.01-3.75,0-7.51,0.38-11.39c0.19,0.42,0.47,0.81,0.57,1.25
		c1.09,4.84,2.12,9.68,3.23,14.51c0.36,1.56,0.76,3.12,1.35,4.6c0.71,1.77,0.81,3.53,0.58,5.4c-2.07,16.53-2.85,33.14-3.2,49.77
		c-0.04,1.91-0.31,3.82-0.41,5.74c-0.06,1.19,0.04,2.38,0.03,3.57c-0.03,2.64,0.07,5.28-0.14,7.9c-0.57,6.94-0.74,13.88-0.68,20.84
		c0.07,8.39-0.45,16.79-0.56,25.18c-0.13,10.55-0.1,21.11-0.15,31.66c-0.01,2.5,0.46,4.89,1.12,7.31
		c2.05,7.56,3.93,15.17,5.88,22.76c0.22,0.85,0.46,1.69,0.72,2.64c0.47-0.05,0.9-0.1,1.31-0.15c0.09,0.17,0.21,0.3,0.24,0.45
		c0.93,5.35,2,10.69,2.73,16.07c1.06,7.84,1.86,15.71,2.8,23.57c0.15,1.26,0.55,2.48,0.66,3.74c0.09,0.99,0.16,2.08-0.15,2.99
		c-2.98,8.62-5.66,17.32-7.51,26.27c-0.63,3.06-0.28,6.1,0.48,9.03c1.22,4.71,2.76,9.35,4.18,14.01c0.08,0.27,0.32,0.5,0.7,1.07
		c0.57-3.33,0.95-6.31,1.6-9.24c2.1-9.56,2.47-19.34,3.83-29c0.32-2.3,0.62-4.6,0.87-6.9c0.17-1.53,0.52-2.91,1.55-4.18
		c0.59-0.73,0.76-1.92,0.85-2.92c0.44-4.86,0.81-9.72,1.15-14.58c0.13-1.91,0.51-3.92,0.11-5.73c-2.51-11.25-2.83-22.82-5.14-34.09
		c-0.84-4.1-2.07-8.04-3.9-11.81c-0.31-0.64-0.6-1.32-0.73-2.02c-1.15-5.88-2.25-11.78-3.39-17.66c-0.95-4.89-1.24-9.82-1.08-14.8
		c0.1-2.95,0.16-5.92,0.05-8.87c-0.8-22.47-0.49-44.93,0.35-67.4c0.02-0.48,0.06-0.96,0.01-1.44c-0.21-2.53-0.43-4.97,0.35-7.55
		c0.7-2.32,0.44-4.92,0.72-7.38c0.58-5.08,1.27-10.15,1.87-15.23c0.23-1.98,0.34-3.98,0.55-5.96c0.14-1.35,0.3-2.71,0.61-4.02
		c0.1-0.41,0.71-0.69,1.09-1.03c0.23,0.45,0.66,0.91,0.66,1.36c-0.07,3.26-0.22,6.51-0.34,9.77c0,0.12,0.1,0.25,0.28,0.67
		c0.25-1.08,0.5-1.9,0.63-2.74c1.54-10.11,3.18-20.21,4.55-30.34c0.85-6.26,1.34-12.58,0.27-18.88c-0.28-1.64-0.65-3.3-1.22-4.86
		c-7.14-19.61-13.73-39.39-19.16-59.55c-0.37-1.38-0.67-2.8-0.84-4.22c-0.14-1.17,0.19-2.24,1.41-2.78
		c1.27-0.57,2.17,0.12,2.93,0.99c1.36,1.55,2.66,3.16,4.03,4.78c-0.25,0.08-0.53,0.17-0.97,0.31c0.45,1.24,0.99,2.46,1.34,3.73
		c1.93,6.93,3.82,13.86,5.72,20.8c1.44,5.24,2.86,10.48,4.31,15.72c0.16,0.58,0.4,1.13,0.96,1.63c0-3.71,0-7.42,0-11.13
		c0.16-0.04,0.31-0.07,0.47-0.11c0.18,0.67,0.45,1.33,0.52,2.02c0.33,3.18,0.76,6.36,0.86,9.54c0.21,6.27,1.32,12.32,3.14,18.35
		c2.52,8.33,4.52,16.81,6.73,25.23c0.18,0.71,0.22,1.45,0.32,2.18c-0.21,0.06-0.42,0.11-0.63,0.17c-1.65-4-3.3-7.99-5.14-12.43
		c-0.24,0.73-0.41,1.02-0.43,1.33c-1.14,18.54-3.45,36.93-6.89,55.17c-1.91,10.14-2.27,20.31-1.18,30.56
		c0.58,5.49,1.13,10.98,1.55,16.48c0.36,4.85,1.74,9.45,3.43,13.93c3.32,8.83,6.84,17.59,10.42,26.31c1.7,4.14,3.73,8.14,5.63,12.19
		c0.32,0.68,0.75,1.32,1.55,1.87c-0.17-3.07-0.39-6.14-0.5-9.21c-0.11-3.04-0.16-6.08-0.14-9.11c0.02-3.08-0.31-6.18,0.22-9.45
		c1.22,0.37,1.71,1.57,2.9,1.28c0.22-0.05,0.89,0.88,0.99,1.42c0.21,1.17,0.21,2.38,0.25,3.58c0.2,5.55,0.99,11.02,2.85,16.24
		c1.01,2.84,2.34,5.63,3.95,8.16c4.31,6.75,10.72,10.09,18.62,10.68c2.39,0.18,4.52-0.31,6.39-2.04
		c5.69-5.27,11.47-10.44,17.21-15.66c0.53-0.48,0.99-1.03,1.47-1.53c-1.41-4.94-0.61-9.89-0.45-14.8
		c0.48-14.38,1.13-28.76,1.64-43.14c0.45-12.87,0.81-25.73,1.22-38.6c0.02-0.6,0.18-1.2,0.69-1.86c0.22,0.45,0.56,0.88,0.64,1.36
		c0.81,4.88,1.73,9.76,2.31,14.67c2.08,17.41,2.47,34.93,2.9,52.43c0.02,0.76,0.09,1.52,0.47,2.35c0.18-0.39,0.41-0.77,0.54-1.18
		c1.57-4.97,2.74-10,3.35-15.2c1.45-12.4,2.59-24.81,2.71-37.31c0.01-0.96,0.11-1.92,0.13-2.88c0.03-1.16,0.45-1.87,1.84-1.52
		c0.06-0.63,0.14-1.09,0.14-1.56c0.03-8.08,0.04-16.15,0.07-24.23c0-1.14-0.3-2.41,0.86-3.26c1.08,0.22,1.22,1,1.39,1.79
		c1.63,8.02,1.94,16.17,2.4,24.31c0.41,7.27,0.87,14.53,1.3,21.79c0.04,0.72,0.13,1.44,0.1,2.16c-0.42,11.66,1.51,23.12,3.23,34.57
		c0.58,3.83,0.38,7.4-1.05,11.03c-3.02,7.66-5.91,15.37-8.73,23.11c-2.3,6.31-4.29,12.73-6.63,19.02
		c-2.92,7.87-6.08,15.65-9.07,23.49c-0.77,2.01-1.33,4.1-1.95,6.17c-0.13,0.43-0.09,0.9,0.22,1.53c0.5-0.68,1.04-1.34,1.5-2.05
		c1.31-2.01,2.52-4.09,3.92-6.03c0.68-0.95,1.67-1.67,2.52-2.5c0.56-0.55,1.21-1.05,1.65-1.68c2.81-3.99,5.55-8.02,8.36-12.01
		c3.82-5.44,7.3-11.08,10.16-17.09c0.72-1.51,1.64-2.93,2.59-4.31c0.3-0.44,1.02-0.6,1.54-0.88c0.24,0.62,0.74,1.28,0.65,1.85
		c-0.25,1.65-0.6,3.31-1.15,4.89c-3.09,8.85-6.59,17.51-11.57,25.51c-0.25,0.4-0.46,0.84-0.74,1.34c1.72,2.31-0.4,4.13-0.9,6.18
		c2.25,0.71,3.35,0.35,4.56-1.75c1.56-2.7,3-5.46,4.51-8.2c0.52-0.95,1.07-1.88,1.95-2.65c0,0.52,0.06,1.04-0.01,1.55
		c-0.72,5.42-0.67,10.85-0.19,16.28c0.11,1.19,0.28,2.41,0.71,3.51c0.63,1.63,0.69,3.24,0.56,4.94c-0.45,5.85-1.68,11.54-3.4,17.14
		c-1.76,5.73-3.54,11.46-5.31,17.19c-0.23,0.75-0.43,1.52-0.8,2.85c0.92-0.7,1.42-1.1,1.94-1.48c1.39-1.02,2.56-1.14,3.51-0.34
		c1.04,0.87,0.81,1.88,0.46,3.05c-0.68,2.21-1.62,4.49-1.62,6.73c0,4-2,7.26-3.17,10.82c-0.12,0.37-0.14,0.78-0.2,1.18
		c0.02,0.1,0.04,0.2,0.05,0.3c-0.04-0.11-0.08-0.22-0.12-0.34c0.4-0.29,0.96-0.5,1.18-0.89c2.67-4.64,5.4-9.25,7.88-13.99
		c0.83-1.59,1.23-3.48,1.49-5.28c1.7-11.81,4.55-23.38,7.1-35.01c1.2-5.47,2.43-10.93,3.49-16.42c0.54-2.82,0.75-5.7,1.08-8.56
		c0.05-0.47,0.14-1.1-0.1-1.4c-1.33-1.65-0.5-3.2,0.19-4.67c1.7-3.62,3.53-7.17,5.3-10.75c0.27-0.55,0.55-1.1,0.94-1.88
		c-0.87-0.04-1.48-0.12-2.08-0.08c-4.15,0.21-8.29,0.45-12.44,0.68c-1.11,0.06-2.14-0.07-2.56-1.27c-0.42-1.21,0.31-1.97,1.23-2.57
		c0.54-0.35,1.11-0.63,1.67-0.94c3.42-1.91,6.83-3.84,10.26-5.72c7.42-4.07,12.74-10.23,17.56-17.04c5.01-7.07,6.5-15.18,7.83-23.4
		c1.55-9.61,1.62-19.26,0.69-28.94c-0.12-1.19-0.14-2.39-0.2-3.59c-0.01-0.14,0.1-0.28,0.25-0.69c0.33,0.61,0.69,1.02,0.79,1.5
		c0.63,3.13,1.42,6.25,1.75,9.41c1.27,12.19,0.43,24.27-2.35,36.21c-0.12,0.51-0.18,1.03,0.14,1.72c0.62-1.26,1.33-2.49,1.84-3.8
		c0.61-1.56,1.12-3.17,1.54-4.79c0.37-1.43,1.05-2.58,2-3.73c1.42-1.71,2.75-3.57,3.7-5.57c1.96-4.11,3.69-8.33,5.4-12.54
		c0.37-0.92,0.33-2.03,0.35-3.06c0.2-10.17-0.67-20.28-1.64-30.39c-0.38-3.95-0.01-7.98,0.03-11.97c0-0.24-0.01-0.52,0.1-0.7
		c0.24-0.38,0.59-0.99,0.86-0.98c0.45,0.03,1.17,0.4,1.26,0.76c0.35,1.3,0.55,2.65,0.71,3.99c0.52,4.28,0.89,8.58,1.53,12.84
		c0.42,2.76,1.15,5.47,1.85,8.18c1.57,6.12,3.15,12.23,4.82,18.32c0.67,2.46,1.61,4.85,2.33,7.3c0.6,2.05,0.98,4.16,1.56,6.21
		c1.11,3.92,2.29,7.83,3.45,11.73c0.24,0.81,0.55,1.6,0.83,2.4c0.17-0.02,0.34-0.04,0.51-0.06c0.3-2.02,0.66-4.03,0.88-6.05
		c1.31-11.84,2.7-23.67,3.84-35.53c1.29-13.53,2.34-27.07,3.53-40.61c0.05-0.58,0.43-1.12,0.61-1.69c0.34-1.12,0.65-2.25,1.06-3.66
		c0.29,0.54,0.63,0.89,0.64,1.24c0.01,0.95-0.04,1.92-0.21,2.86c-0.73,4.03-0.59,8.06-0.06,12.09c0.04,0.32,0.08,0.64,0.07,0.96
		c-0.1,6.55,0.23,13.15-0.41,19.65c-1.09,11.01-1.4,22.02-1.37,33.05c0.04,14.15,0.27,28.3,0.41,42.46
		c0.01,0.96,0.03,1.92-0.02,2.88c-0.19,3.37,0.07,6.68,0.71,10.01c0.43,2.26,0.36,4.6,0.61,6.9c0.42,3.85,0.93,7.69,1.39,11.52
		c0.35-0.03,0.47-0.02,0.48-0.05c1.98-5.03,4.87-9.66,5.78-15.14c2.3-13.82,5.96-27.33,9.63-40.83c0.66-2.44,1.35-4.88,2.3-7.29
		c0.48,1.13,0.34,2.26,0.18,3.35c-0.83,5.69-1.56,11.41-2.6,17.06c-1.41,7.64-2.41,15.31-2.89,23.06c-0.32,5.1-0.9,10.19-1.35,15.29
		c-0.07,0.79-0.1,1.58-0.17,2.7c1.88-1.33,2.72-3.15,3.94-4.62c1.2-1.44,2.3-2.96,3.7-4.8c0.1,0.78,0.18,1.07,0.18,1.35
		c-0.05,3.19-0.17,6.39-0.15,9.58c0.01,1.4-0.3,2.63-0.86,3.91c-2.63,6-5.18,12.04-7.68,18.09c-0.48,1.16-0.77,2.46-0.85,3.71
		c-0.33,4.79-0.54,9.58-0.79,14.37c-0.02,0.31,0.04,0.62,0.11,1.44c0.62-0.89,1.04-1.4,1.37-1.97c2.57-4.44,5.46-8.66,8.84-12.52
		c2.91-3.33,6.11-6.34,9.91-8.63c1.08-0.65,1.52-1.51,1.78-2.66c4.21-18.72,8.44-37.43,12.67-56.15c0.45-2.01,0.86-4.04,0.93-6.21
		c-1.99,3.93-3.96,7.87-5.98,11.79c-2.04,3.94-4.14,7.84-6.22,11.76c-0.16-0.04-0.31-0.08-0.47-0.12c-0.06-0.52-0.17-1.03-0.16-1.54
		c0.11-3.83,0.27-7.66,0.37-11.49c0.03-1.25,0.47-2.29,1.19-3.31c6.18-8.79,11.39-18.14,15.94-27.86c0.5-1.08,0.92-2.22,1.2-3.38
		c1.42-5.82,2.79-11.66,4.15-17.49c0.46-1.96,1.11-3.77,2.23-5.5c0.83-1.29,1.05-2.98,1.55-4.48c0.29-0.86,0.61-1.7,0.96-2.66
		c1.62,0.67,1.64,1.86,1.59,2.92c-0.13,2.87-0.31,5.75-0.59,8.61c-1.21,12.33-2.34,24.68-3.73,36.99c-1.13,9.92-2.6,19.8-3.78,29.82
		c0.29-0.8,0.61-1.6,0.85-2.42c4.18-14.35,8.38-28.69,12.5-43.06c2.31-8.07,4.48-16.18,6.73-24.26c0.33-1.18,0.35-2.27,0.03-3.5
		c-0.39-1.53-0.45-3.16-0.49-4.75c-0.19-7.35-0.22-14.71-0.49-22.06c-0.37-9.85-1.33-19.62-4.24-29.11
		c-0.22-0.73-0.45-1.45-0.81-2.6c-0.44,0.9-0.72,1.36-0.91,1.86c-5.65,14.7-11.56,29.3-16.86,44.12
		c-4.15,11.58-7.56,23.42-11.28,35.15c-0.66,2.1-0.62,2.11-1.68,3.39c-0.91-0.47-0.75-1.3-0.63-2.05
		c1.48-9.39,2.64-18.86,4.58-28.16c1.82-8.75,4.26-17.39,6.81-25.96c2.85-9.58,5.66-19.15,8.23-28.82
		c1.23-4.63,1.64-9.02,0.52-13.65c-0.79-3.26-1.32-6.58-1.9-9.89c-0.33-1.86-1.1-3.46-2.17-5c-8.87-12.72-17.71-25.47-26.55-38.22
		c-1.18-1.7-2.29-3.44-3.2-5.47c0.39,0.15,0.82,0.24,1.17,0.46c7.78,4.74,15.59,9.46,23.32,14.28c1.95,1.22,3.74,2.73,5.51,4.21
		c5.88,4.93,11.71,9.92,17.57,14.87c0.47,0.4,1.02,0.7,1.71,1.17c0.09-0.71,0.15-1.19,0.21-1.68c1.79,0.28,1.72,2.02,2.64,2.91
		c-0.03,0.2-0.05,0.4-0.07,0.61c0.1-0.01,0.2-0.02,0.3-0.03c-0.09-0.18-0.19-0.35-0.28-0.53c0.22-0.22,0.61-0.64,0.62-0.63
		c1.58,1.46,3.43,2.76,4.59,4.51c1,1.51,2.06,2.79,3.49,3.82c0.93,0.66,1.73,1.31,1.51,2.7c-0.1,0.64,0.3,1.39,0.57,2.05
		c2.15,5.17,4.31,10.33,6.5,15.47c0.25,0.58,0.32,1.47,1.46,1.15c0.25-0.07,0.84,0.57,1.09,0.99c2.2,3.75,5.88,5.64,9.65,7.13
		c1.74,0.69,4.02,0.58,5.91,0.16c5.9-1.3,11.29-3.87,16.42-7.35c-0.35-0.59-0.58-1.08-0.91-1.5c-9.96-12.71-19.94-25.41-29.91-38.11
		c-0.25-0.31-0.53-0.61-0.72-0.95c-0.42-0.76-0.47-1.55,0.18-2.21c0.65-0.67,1.42-0.66,2.19-0.19c0.4,0.25,0.77,0.57,1.14,0.87
		c9.7,8.01,19.95,15.18,31.03,21.2c18.84,10.24,38.23,19.33,57.86,27.93c19.91,8.72,39.75,17.63,60.2,25.06
		c8.11,2.95,16.32,5.62,24.49,8.42c0.45,0.16,0.91,0.31,1.36,0.47c2.6,0.94,2.6,0.94,2.12,3.97c-0.6-0.14-1.21-0.24-1.79-0.42
		c-11.22-3.49-22.38-7.18-33.66-10.45c-14.89-4.31-29.92-8.16-44.81-12.46c-9.74-2.81-19.37-6.04-29.02-9.15
		c-4.8-1.54-9.62-2.93-14.6-3.73c-2.32-0.37-3.7,0.82-3.42,3.13c0.4,3.41,0.88,6.82,1.25,10.24c0.13,1.16,0.49,1.87,1.72,2.22
		c1.63,0.46,2.94,1.62,3.24,3.25c0.37,2.07,1.67,3.35,3.15,4.81c0.64-0.33,1.29-0.79,2.02-1.03c1.73-0.55,3.48-1.33,5.26-1.42
		c4.53-0.22,7.23,3.64,5.73,7.9c-0.27,0.75-0.62,1.48-1,2.18c-2.79,5.12-5.58,10.25-8.4,15.35c-1.67,3.02-3.31,6.07-3.71,9.55
		c-0.19,1.63-0.14,3.36,0.18,4.96c0.46,2.34,1.18,4.65,1.94,6.92c2.49,7.52,4.68,15.12,6.28,22.88c0.06,0.3,0.21,0.58,0.48,1.3
		c0.4-0.91,0.7-1.48,0.92-2.08c4.04-10.95,7.49-22.09,10.55-33.36c0.73-2.7,1.55-5.38,2.53-8c1.95-5.18,3.44-10.47,4.2-15.96
		c0.05-0.39,0.19-0.77,0.29-1.16l-0.05-0.03c0.11,0.78,0.22,1.56,0.4,2.81c0.71-1.46,1.25-2.58,2.03-4.19
		c0.32,0.93,0.61,1.34,0.56,1.71c-0.11,0.87-0.37,1.71-0.59,2.56c-3.24,12.53-6.52,25.05-9.72,37.59
		c-2.71,10.61-5.36,21.23-7.98,31.86c-0.28,1.13-0.27,2.37-0.19,3.54c0.46,6.29,1.06,12.57,1.45,18.87
		c0.11,1.81-0.35,3.65-0.52,5.47c-0.6,6.28-1.18,12.56-1.78,18.85c-0.15,1.54-0.12,3.15-1.73,4.62c-0.3-1.03-0.71-1.75-0.7-2.47
		c0.09-4.7,0.28-9.4,0.42-14.1c0.03-0.96-0.09-1.93,0.03-2.88c0.54-4.18-0.65-8.07-1.92-11.95c-0.04-0.13-0.21-0.23-0.43-0.46
		c-0.24,0.64-0.5,1.19-0.65,1.77c-2.4,8.79-4.81,17.57-7.16,26.37c-0.3,1.13-0.4,2.36-0.36,3.53c0.08,2.52-0.67,4.62-2.9,5.91
		c-1.51,0.88-1.93,2.14-2.1,3.75c-0.33,3.1-0.82,6.18-1.3,9.26c-0.13,0.86-0.36,1.74-0.72,2.52c-1.46,3.17-4.95,4.07-7.82,2.07
		c-0.38-0.26-0.74-0.56-1.1-0.84c-1.78,0.94-2.48,2.62-3.11,4.21c-2.52,6.39-4.8,12.87-7.38,19.24c-2.03,5.01-1.87,10.32-2.58,15.52
		c-0.41,3-0.9,5.99-1.51,8.96c-0.2,0.98-0.79,1.92-1.37,2.77c-0.5,0.74-1.18,0.74-1.48,0.27c0.22-1.89,0.56-3.43,0.56-4.97
		c0.01-5.59-0.09-11.19-0.16-16.79c-0.01-0.75-0.11-1.5-0.63-2.26c-0.35,2-0.72,4-1.03,6c-0.77,5.01-2.25,9.76-4.34,14.4
		c-1.5,3.33-2.38,6.94-3.53,10.43c0,0,0.01,0.14,0.01,0.14l0.01-0.21c1.11-1.71,2.23-3.41,3.32-5.12c0.36-0.57,0.67-1.17,1.08-1.88
		c1.45,1.18,1.3,2.59,1.32,3.89c0.01,0.86-0.18,1.76-0.45,2.59c-1.02,3.1-1.08,6.27-0.92,9.49c0.19,3.67,0.24,7.35,0.43,11.02
		c0.1,1.99,0.29,3.99,0.59,5.96c0.17,1.15,0.63,2.25,1,3.48c1.43-0.38,2.64-0.54,3.71-1.02c1.01-0.45,1.87-1.24,2.82-1.89
		c0.06,1.3,0.2,2.42,0.14,3.53c-0.03,0.49-0.38,1.06-0.76,1.4c-1.19,1.06-2.41,1.92-2.41,3.87c0,0.81-1.19,1.62-1.82,2.44
		c-0.19,0.25-0.34,0.53-0.54,0.85c1.58-0.36,4.9-2.61,6.09-4.15c3.62-4.68,7.22-9.37,10.81-14.07c0.24-0.31,0.49-0.66,0.59-1.03
		c0.72-2.69,2.4-4.84,3.86-7.13c1.89-2.96,3.73-5.97,5.4-9.06c6.56-12.17,13.08-24.37,19.52-36.61c1.14-2.17,2.01-4.54,2.64-6.91
		c3.25-12.29,8.18-23.88,14.5-34.88c2.55-4.43,5.25-8.78,7.97-13.11c0.91-1.45,1.83-2.97,3.66-4.15c-0.05,0.85,0,1.38-0.12,1.85
		c-0.18,0.69-0.41,1.39-0.74,2.02c-4.96,9.69-8.26,20.1-12.88,29.94c-4.32,9.19-8.31,18.53-11.41,28.21
		c-3.07,9.59-5.94,19.24-8.87,28.87c-0.33,1.07-0.56,2.17-0.73,3.27c-0.47,3.13-1.49,6.02-3.33,8.64c-0.87,1.24-1.57,2.6-2.24,3.96
		c-0.21,0.43-0.08,1.03-0.11,1.55c0,0-0.13-0.05-0.13-0.05l0.1,0.09c0.95-1.71,2.32-2.96,4.03-3.93c1-0.57,2.08-1.26,2.71-2.19
		c1.49-2.17,2.92-4.42,4.05-6.78c6.46-13.48,12.85-26.99,19.21-40.52c2.04-4.34,3.97-8.73,5.84-13.15c0.87-2.05,1.45-4.23,2.21-6.33
		c0.57-1.58,1.16-3.15,1.84-4.68c0.3-0.68,0.82-1.25,1.56-2.36c0.18,0.97,0.38,1.35,0.29,1.64c-4.72,14.93-9.44,29.86-14.24,44.77
		c-2,6.22-4.04,12.45-6.39,18.54c-1.04,2.68-0.52,4.57,1.31,6.43c0.28,0.28,0.55,0.58,0.78,0.83c0.22,0.04,0.39,0.12,0.53,0.1
		c8.77-1.79,17.56-3.48,26.29-5.4c12.57-2.76,25.1-5.7,37.65-8.54c2.65-0.6,5.32-1.11,7.99-1.62c0.8-0.15,1.63-0.15,2.45-0.22
		c0.05,0.21,0.09,0.41,0.14,0.62c-1.67,0.65-3.3,1.42-5.02,1.92c-5.61,1.62-11.22,3.21-16.87,4.68c-7.5,1.95-15.05,3.75-22.56,5.66
		c-1.62,0.41-3.22,0.95-4.76,1.59c-8.18,3.44-16.34,6.94-24.51,10.39c-2.13,0.9-4.37,1.57-6.41,2.64c-1.3,0.68-2.44,1.79-3.44,2.89
		c-1.61,1.76-2.96,3.76-4.57,5.52c-5.98,6.51-9.89,14.3-13.91,22.04c-0.14,0.28-0.22,0.59-0.39,1.09c0.51,0.42,1.1,0.81,1.58,1.31
		c0.6,0.62,1.28,1.25,1.64,2.01c0.65,1.39-0.01,2.64-1.53,2.83c-3.49,0.44-6.56,1.84-9.57,3.57c-1.5,0.86-3.24,1.33-4.82,2.06
		c-0.69,0.32-1.42,0.74-1.9,1.32c-2.31,2.76-4.62,5.52-6.78,8.39c-3.75,4.98-7.27,10.14-11.68,14.6c-0.17,0.17-0.41,0.34-0.46,0.55
		c-0.66,3.17-3.09,5.36-4.46,8.14c-0.36,0.73-0.63,1.52-0.94,2.28c0.2,0.11,0.39,0.22,0.59,0.32c0.45-0.58,0.9-1.17,1.35-1.75
		c3.3-4.31,6.6-8.63,9.92-12.92c0.43-0.56,1.01-1.02,1.55-1.48c0.16-0.14,0.43-0.13,0.72-0.21c1.09,1.05-0.26,2.09,0.01,3.24
		c0.69,0.04,1.37,0.08,2.15,0.12c0.57-1.31,1.08-2.55,1.64-3.78c1.6-3.5,3.34-6.93,5.9-9.84c0.99-1.12,2.12-2.23,3.41-2.95
		c3.31-1.85,6.76,0.36,6.42,4.12c-0.16,1.71-0.79,3.42-1.4,5.05c-2.49,6.67-4.83,13.38-5.99,20.44c-0.89,5.4-1,10.81-0.27,16.25
		c0.18,1.35,0.74,2.22,2.01,2.68c0.83,0.3,1.63,0.66,2.46,0.96c9.97,3.74,19.5,8.46,29.03,13.17c0.57,0.28,1.09,0.67,1.66,0.95
		c1,0.49,0.76,1.21,0.33,2c3.26,1.46,6.49,2.84,9.67,4.33c3.18,1.5,6.33,3.08,9.46,4.67c3.09,1.57,6.34,2.84,9.3,4.66
		c-0.04,0.18-0.08,0.36-0.12,0.54c-0.48,0.05-1,0.24-1.43,0.11c-1.37-0.42-2.73-0.9-4.06-1.46c-12-5.07-23.98-10.21-36.01-15.21
		c-5.68-2.36-11.48-4.44-17.23-6.63c-0.73-0.28-1.48-0.49-2.57-0.85c0.76,2.76,1.98,4.85,4.13,6.18c3.18,1.97,5.83,4.45,8.1,7.39
		c0.39,0.51,1.11,0.9,1.75,1.05c1.74,0.42,2.58,1.57,2.76,3.2c0.11,0.95,0.37,1.6,1.23,2.12c8.39,5.13,16.71,10.38,25.14,15.43
		c2.79,1.67,5.9,2.81,8.81,4.3c1.33,0.68,2.72,1.44,3.74,2.49c2.45,2.52,4.87,5.1,6.99,7.89c20.5,26.93,42.61,52.53,64.78,78.08
		c5.19,5.98,10.04,12.24,15.06,18.36c1.12,1.36,2.24,2.72,3.5,3.94c6.53,6.36,13.09,12.69,19.68,18.99c0.97,0.92,2.1,1.75,3.29,2.35
		c3.92,1.96,7.9,3.8,11.85,5.69c0,0.16,0,0.32,0,0.48c-9.39-2.03-17.66-6.53-25.37-12.01c-2.95-2.1-5.3-5.06-7.82-7.72
		c-2.58-2.73-5.13-5.5-7.53-8.39c-6.27-7.59-13.04-14.71-19.72-21.93c-10.63-11.51-21.14-23.13-31.49-34.89
		c-8.3-9.44-16.98-18.49-26.2-27.02c-7.28-6.73-14.51-13.52-21.8-20.24c-0.98-0.9-2.13-1.71-3.32-2.29
		c-5.46-2.65-10.85-5.49-16.48-7.73c-6.22-2.47-12.64-4.5-19.04-6.48c-9.24-2.85-18.56-5.42-27.81-8.23
		c-5.12-1.55-10.17-3.35-15.26-5.01c-0.97-0.32-1.96-0.54-3.2-0.87c-0.16,1.76-0.37,3.25-0.42,4.75
		c-0.22,6.39-0.46,12.78-0.58,19.18c-0.23,12.09-1.48,24.09-3.07,36.06c-0.15,1.16-0.08,2.36-0.12,3.53
		c-0.01,0.23,0.06,0.49-0.04,0.68c-1.38,2.61-1.04,5.46-1.06,8.21c-0.05,6.55,0.07,13.11,0.13,19.67c0.01,0.96,0.01,1.92,0,2.88
		c-0.02,1.21-0.04,2.44-1.95,1.89c0,1.3,0.04,2.33-0.01,3.36c-0.04,0.79-0.06,1.64-0.36,2.34c-0.29,0.66-0.86,1.54-1.45,1.67
		c-1.03,0.22-1.79-0.65-2.08-1.61c-0.28-0.9-0.43-1.88-0.44-2.82c-0.05-3.76-0.2-7.52,0-11.27c0.33-6.32,0.11-12.62-0.12-18.93
		c-0.26-7.27-0.42-14.54-0.48-21.82c-0.12-13.67-0.12-27.34-0.2-41.01c-0.02-3.04-0.2-6.07-0.32-9.11
		c-0.01-0.37-0.12-0.74-0.22-1.33c-1.64,0.65-2.61,1.78-3.68,2.82c-2.28,2.23-4.57,4.46-7,6.52c-1.37,1.16-3.06,1.92-5.15,2.19
		c0.23-0.51,0.3-0.82,0.47-1.05c2.15-2.97,4.36-5.9,6.47-8.89c1.93-2.74,3.8-5.52,5.65-8.32c0.43-0.66,0.72-1.42,1.02-2.16
		c2.04-5.04,3.99-10.11,6.11-15.11c2.1-4.95,3.85-9.99,4.86-15.28c0.38-1.96,0.51-3.94,0.16-6.02c-1.16-0.46-2.26-0.89-3.5-1.38
		c-0.39,0.58-0.75,1.08-1.07,1.61c-5.61,9.22-11.2,18.44-16.81,27.66c-0.17,0.27-0.5,0.53-0.51,0.8c-0.05,3.03-2.77,3.9-4.53,5.44
		c-2.4,2.09-5.13,3.8-7.63,5.79c-9.02,7.2-18.59,13.56-28.84,18.9c-2.76,1.44-5.38,3.14-8.12,4.64c-1.75,0.96-3.57,1.79-5.39,2.6
		c-5.32,2.39-10.66,4.73-15.98,7.11c-0.95,0.42-1.88,0.87-3.12,0.2c0.31-0.44,0.48-0.9,0.81-1.12c2.67-1.76,5.29-3.63,8.08-5.16
		c1.68-0.92,3.65-1.29,5.48-1.92c0.02-0.02,0.04-0.04,0.06-0.06c-0.05,0-0.1,0.01-0.14,0.01c-0.09-0.3-0.18-0.61-0.3-1.05
		c1.09-0.72,2.19-1.51,3.34-2.21c6.06-3.69,11.36-8.28,16.16-13.48c3.14-3.41,6.43-6.69,9.53-10.13c1.11-1.23,1.91-2.73,2.79-4.15
		c0.92-1.49,1.68-3.08,2.64-4.54c4.23-6.4,8.5-12.78,12.78-19.16c2.97-4.44,4.94-9.31,6.27-14.45c0.33-1.27,0.76-2.58,0.22-4.34
		c-0.49,0.6-0.77,0.89-0.99,1.23c-0.17,0.26-0.29,0.57-0.38,0.88c-3.08,10.21-10.02,18.11-15.98,26.59
		c-0.04,0.05-0.13,0.06-0.59,0.24c0.19-0.91,0.31-1.62,0.49-2.32c2.35-9.3,4.71-18.6,7.06-27.9c0.41-1.63,0.85-3.25-0.33-4.8
		c-0.2-0.26-0.23-0.82-0.09-1.13c0.71-1.51,0.35-3.01-0.02-4.46c-2.17-8.35-4.41-16.69-6.64-25.03c-0.06-0.21-0.27-0.38-0.44-0.61
		c-0.29,0.19-0.57,0.34-0.81,0.54c-9.65,8.02-19.29,16.08-28.96,24.07c-5.44,4.49-10.55,9.29-15.02,14.78
		c-2.37,2.91-4.96,5.65-7.51,8.41c-2.61,2.82-4.39,5.93-4.95,9.87c-1.25,8.78-2.93,17.5-4.17,26.28c-0.6,4.24-0.5,8.58-0.93,12.85
		c-0.62,6.23-0.54,12.46,0.26,18.64c1.51,11.58,3.68,23.04,6.29,34.43c1.68,7.32,3.2,14.68,4.84,22.01c0.31,1.39,0.77,2.77,1.31,4.1
		c0.76,1.85,1.57,3.68,2.5,5.45c7.97,15.15,15,30.74,21.56,46.55c0.83,1.99,1.74,3.96,2.82,5.82c4.54,7.9,9.16,15.76,13.73,23.64
		c0.39,0.67,0.65,1.41,1.23,2.68c-0.96-0.36-1.49-0.42-1.82-0.71c-3.47-3.13-6.32-6.77-8.49-10.91c-2.9-5.53-6.25-10.79-9.81-15.91
		c-1.23-1.77-2.4-3.59-3.5-5.45c-7.47-12.58-14.92-25.17-22.36-37.77c-2.65-4.49-4.6-9.29-6.37-14.19
		c-1.63-4.52-2.86-9.14-4.1-13.77c-0.59-2.21-1.49-4.39-2.57-6.42c-4.59-8.61-9.67-16.94-15.19-24.99
		c-1.35-1.96-2.99-3.69-5.02-5.38c-0.59,1.23-1.09,2.22-1.53,3.23c-3.7,8.53-6.21,17.47-9.11,26.27
		c-3.09,9.37-4.74,19.07-6.79,28.69c-0.87,4.06-1.91,8.09-2.9,12.13c-0.19,0.76-0.47,1.5-0.75,2.37c-1.41-0.28-2.23,0.42-3.11,1.32
		c-1.5,1.54-2.57,1.14-3.35-1.07l-0.06,0.04c0.44,0.09,0.87,0.18,1.49,0.3c0.67-2.04,2.39-3.77,1.54-6.24
		c-0.11-0.33,0.07-0.78,0.19-1.16c2.91-9.1,4.26-18.53,5.94-27.89c1.26-7,2.24-14.04,3.48-21.05c0.47-2.67,1.23-5.3,2.01-7.89
		c4.28-14.16,8.58-28.31,12.93-42.44c0.44-1.43,1.25-2.75,1.84-4.14c0.36-0.85,0.62-1.73,1.02-2.86c-1.75-0.1-2.72,0.75-3.73,1.43
		c-7.03,4.78-14.48,8.77-22.28,12.13c-1.02,0.44-2,0.97-2.93,1.57c-10.37,6.63-20.5,13.68-32.19,17.96c-1.05,0.39-2.06,1-3.24-0.18
		c0.39-0.43,0.73-0.95,1.2-1.29c1.99-1.47,3.98-2.94,6.04-4.33c4.24-2.86,8.54-5.64,12.78-8.5c0.58-0.39,1.62-0.64,1.17-1.77
		c0.18,0.07,0.37,0.13,0.55,0.2c0.01-0.02,0.01-0.04,0.02-0.06C740.77,584.96,740.58,584.91,740.4,584.85z M126.66,727.96
		c0.09-0.26,0.18-0.52,0.26-0.78c0.28-0.11,0.56-0.23,0.84-0.34c-0.09-0.11-0.17-0.22-0.26-0.32c-0.18,0.23-0.36,0.47-0.54,0.7
		c-0.08,0.23-0.17,0.47-0.25,0.69c-0.02-0.03-0.04-0.07-0.06-0.1C126.66,727.86,126.66,727.91,126.66,727.96z M234.78,610.08
		c0.22-0.17,0.44-0.33,0.66-0.5c0.08-0.25,0.16-0.5,0.24-0.75c0.06-0.02,0.12-0.04,0.18-0.07c-0.04,0.09-0.08,0.17-0.12,0.26
		c-0.02-0.06-0.05-0.12-0.07-0.16c-0.06,0.26-0.12,0.52-0.18,0.78c-0.25,0.18-0.5,0.35-0.75,0.52c0.03,0.02,0.05,0.04,0.08,0.07
		C234.8,610.18,234.79,610.13,234.78,610.08z M1008.86,609.94c-0.03-0.05-0.05-0.1-0.08-0.15c0.06,0.02,0.11,0.04,0.17,0.07
		c-0.05,0.02-0.1,0.03-0.15,0.05c-0.11-0.27-0.21-0.54-0.32-0.82c0,0,0.03-0.06,0.02-0.05
		C1008.63,609.35,1008.75,609.65,1008.86,609.94z M691.8,416.36c-0.1,0.42-0.2,0.84-0.31,1.25c-0.15,0.33-0.31,0.65-0.46,0.98
		c-0.15,0.32-0.3,0.64-0.44,0.95c-0.23,0.04-0.58,0-0.67,0.14c-1.76,2.75-3.81,5.37-5.11,8.33c-0.69,1.58-1.52,2.89-2.54,4.2
		c-0.5,0.65-1.08,1.48-1.08,2.23c0.01,2.94-1.7,5.27-2.54,7.9c-0.07,0.21-0.31,0.51-0.46,0.51c-1.3-0.06-1.26,1.07-1.53,1.8
		c-1.71,4.65-3.41,9.3-4.99,14c-0.45,1.33-0.74,2.83-0.63,4.21c0.45,5.81,0.86,11.64,1.68,17.4c1.11,7.79,3.38,15.29,6.72,22.43
		c0.34,0.72,0.53,1.62,1.67,2.19c0.07-1.28,0.2-2.3,0.15-3.3c-0.26-5.86,0.54-11.64,1.31-17.42c0.88-6.57,1.84-13.14,2.76-19.71
		c0.23-1.66,0.35-3.34,0.64-4.99c0.3-1.69,0.89-1.85,2.41-0.79c0.12,0.08,0.25,0.14,0.61,0.33c0.29-2.37,0.57-4.66,0.86-6.94
		c0.13-1.03,0.2-2.08,0.47-3.07c0.12-0.42,0.7-1,1.06-0.99c0.4,0.01,1,0.56,1.11,0.98c0.23,0.83,0.27,1.74,0.23,2.61
		c-0.21,5.11-0.4,10.22-0.73,15.33c-0.62,9.57-1.35,19.14-1.99,28.71c-0.16,2.39-0.17,4.79-0.16,7.19c0,0.86,0.17,1.77,0.47,2.57
		c0.16,0.42,0.81,0.91,1.22,0.89c0.38-0.02,0.96-0.62,1.06-1.05c0.3-1.4,0.49-2.83,0.59-4.26c0.8-11.72,1.48-23.45,2.36-35.17
		c0.66-8.69,1.73-17.34,2.3-26.03c0.41-6.13,1.81-12.01,3.62-17.81c3.11-9.98,6.46-19.89,9.71-29.83c-0.01,0.01-0.02,0.01-0.03,0.02
		c-0.43,0.73-0.98,1.41-1.26,2.19c-1.06,2.92-1.99,5.9-3.08,8.81c-0.29,0.76-0.87,1.76-1.52,1.95c-0.68,0.19-1.6-0.46-2.53-0.78
		c-0.22,0.68-0.47,1.49-0.59,1.87c-0.98,0.65-1.78,0.93-2.21,1.5c-3.18,4.2-6.29,8.45-9.42,12.68l0.06-0.05
		c0-0.26-0.01-0.52-0.02-0.81c0.15-0.3,0.31-0.6,0.46-0.91c0.15-0.34,0.3-0.68,0.44-1.06c0.12-0.41,0.25-0.81,0.36-1.22
		c0.01-0.02,0.02-0.04,0.03-0.06C691.85,416.28,691.83,416.32,691.8,416.36z M695.45,638.13c0.03-0.22,0.06-0.44,0.08-0.66
		c-0.07,0-0.14-0.01-0.21-0.01c0.06,0.21,0.11,0.42,0.17,0.62c0.05,0.04,0.09,0.08,0.14,0.12
		C695.57,638.18,695.51,638.16,695.45,638.13z M879.37,415.61c0.14-0.3,0.28-0.6,0.42-0.91c0.51-0.54,1.09-1.04,1.53-1.64
		c2.01-2.79,3.95-5.62,5.97-8.4c0.46-0.63,1.05-1.23,1.7-1.65c0.72-0.47,1.5,0.09,1.38,0.94c-0.07,0.46-0.29,0.91-0.46,1.36
		c-2.15,5.51-4.17,11.07-6.48,16.51c-4.06,9.56-8.33,19.03-12.47,28.56c-1.69,3.88-3.47,7.75-4.78,11.76
		c-0.55,1.7-1.46,2.34-3.12,3.15c0.24-1.18,0.4-2,0.57-2.82c-1.75,1.13-2.88,2.64-3.83,4.28c-6.21,10.63-12.4,21.26-18.58,31.9
		c-0.23,0.4-0.32,0.89-0.58,1.64c4.98-3.01,9.72-5.63,13.8-9.3c4.07-3.66,8.37-7.08,12.37-10.71c-1.08-1.91-2.01-3.55-2.93-5.18
		c1.12,0.21,1.9,0.88,2.99,0.13c0.32-0.22,1.31,0.29,1.82,0.69c0.45,0.36,0.67,1.02,1.01,1.57c0.31-0.15,0.56-0.21,0.73-0.36
		c2.87-2.54,5.77-5.06,8.57-7.68c0.67-0.62,1.17-1.53,1.5-2.4c1.59-4.18,3.16-8.37,4.62-12.6c2.42-7.01,4.76-14.05,7.13-21.08
		c0.29-0.87,0.57-1.74,0.98-3c-3,1.57-5.65,2.77-6.73,5.91c-0.46,1.33-1.36,2.53-2.16,3.72c-0.2,0.3-0.99,0.56-1.19,0.41
		c-0.37-0.27-0.54-0.85-0.71-1.33c-0.06-0.18,0.14-0.44,0.22-0.67c2.01-5.39,5.67-9.56,9.92-13.24c0.98-0.85,1.6-1.6,1.7-2.93
		c1.09-15.31,1.78-30.64,1.92-45.99c0-0.5-0.07-1-0.11-1.5c-0.63,0.61-0.92,1.25-1.18,1.89c-4.85,12.17-9.69,24.35-14.53,36.53
		c-0.2,0.52-0.35,1.05-0.52,1.59c-0.18,0.3-0.35,0.6-0.52,0.9l0.03,0.13L879.37,415.61z M1115.54,725.27
		c0.05,0.01,0.1,0.02,0.14,0.03c-0.06,0.01-0.12,0.02-0.19,0.03c-0.32-0.32-0.64-0.65-0.95-0.97c-0.09-0.06-0.18-0.13-0.26-0.19
		c0.1,0.05,0.21,0.1,0.31,0.15C1114.45,725.08,1114.73,725.44,1115.54,725.27z M962.01,560.55l0.04,0.15l0.02-0.09
		c-0.41-0.17-0.82-0.35-1.24-0.52c-0.02,0.14-0.04,0.27-0.06,0.41C961.19,560.52,961.6,560.54,962.01,560.55z M1118.6,727.45
		c-0.03,0.02-0.07,0.05-0.1,0.07c0.05,0,0.11,0,0.16,0c-0.51-0.31-1.01-0.63-1.52-0.94C1117.35,727.41,1117.8,727.79,1118.6,727.45z
		 M130.35,723.63c-0.5,0.54-1.01,1.08-1.79,1.92c1.56-0.22,1.84-0.9,1.68-1.88c0.05,0.02,0.1,0.03,0.14,0.05
		c-0.04,0.01-0.08,0.02-0.11,0.03C130.3,723.71,130.33,723.67,130.35,723.63z M621.15,475.07c-0.02-0.07-0.06-0.14-0.06-0.21
		c0-0.06,0.06-0.11,0.1-0.16c-0.03,0.11-0.06,0.22-0.09,0.33c0.19,0.8,0.38,1.61,0.57,2.41c0.19-0.08,0.38-0.15,0.57-0.23
		C621.88,476.5,621.51,475.79,621.15,475.07z M328.46,411.97c0-0.33,0-0.66,0-0.98c-0.03-0.31,0.03-0.67-0.12-0.92
		c-2.15-3.69-4.32-7.37-6.52-11.02c-0.1-0.16-0.53-0.13-0.81-0.19c0.03-0.15,0.07-0.3,0.1-0.45c-0.04,0.15-0.07,0.29-0.11,0.44
		c1.78,5.82,4.21,11.31,7.83,16.2c0.16-0.07,0.33-0.14,0.49-0.21C329.04,413.89,328.75,412.93,328.46,411.97z M820.66,415
		c0.94,0.19,0.96-0.66,1.2-1.15c1.22-2.5,2.34-5.06,3.59-7.54c0.7-1.38,0.71-2.72,0.31-4.16c-0.41-1.45-0.72-2.93-1.15-4.38
		c-0.24-0.81-0.63-1.58-0.95-2.36c-0.11,0.02-0.22,0.04-0.32,0.06c-0.9,6.51-1.79,13.03-2.69,19.55c0.04,0.11,0.08,0.21,0.11,0.32
		C820.72,415.23,820.69,415.11,820.66,415z M878.15,480.85c1.59,0.38,2.71,0.16,3.25-0.96c0.84-1.74,1.47-3.57,1.63-5.59
		c-2.36,0.39-3.92,3.38-6.64,1.43c-1.81,1.69-3.71,3.19-5.51,5.05c0.88,0.83,1.48,1.46,2.15,2c2.61,2.13,4.5,1.44,5.18-1.87
		L878.15,480.85z M384.75,485.75c0.01,0.09,0.02,0.19,0.03,0.28c0.02-0.04,0.05-0.08,0.04-0.1c-0.03-0.05-0.08-0.09-0.12-0.13
		c-0.85-1.15-1.58-2.41-2.57-3.42c-2.01-2.05-4.11-4.02-6.26-5.92c-5.7-5.03-11.1-10.34-15.92-16.22c-0.27-0.33-0.63-0.58-0.94-0.86
		c0.53,2.81,1.15,5.37,3.49,7.36c6.86,5.86,13.54,11.93,20.31,17.89C383.35,485.12,384.1,485.38,384.75,485.75z M499.08,407.93
		c0.05-0.31,0.11-0.61,0.16-0.92c-0.07-0.01-0.14-0.02-0.2-0.02c0.02,0.31,0.03,0.62,0.05,0.93c1.84,6.7,3.69,13.4,5.52,20.11
		c1.69,6.17,3.36,12.36,6.31,18.08c1.1,2.13,1.5,4.29,1.51,6.67c0.03,9.19,0.11,18.39,0.36,27.58c0.16,5.99,0.59,11.98,2.33,17.78
		c0.09,0.3,0.18,0.62,0.18,0.94c0.02,1.39-1.26,2.21-2.48,1.55c-0.47-0.25-0.97-0.68-1.17-1.16c-1.25-2.9-3.23-5.41-4.11-8.55
		c-1.68-6-3.66-11.91-5.54-17.85c-0.15-0.47-0.49-0.88-0.83-1.46c-1.48,3.9-3.27,13.65-3.26,18.58c0,2.62,0.23,5.26,0.63,7.86
		c0.31,2.04,0.49,2.02-1.36,3.23c6.65,21.73,15.97,42.01,32.29,58.53c0-1.58-0.21-3.11-0.38-4.65c-0.65-6.19-1.27-12.39-1.95-18.58
		c-0.23-2.06-0.62-4.11-0.91-6.16c-1.79-12.84-2.69-25.75-3.02-38.7c-0.04-1.75-0.27-3.51-0.61-5.23
		c-1.07-5.41-2.27-10.79-3.33-16.2c-0.68-3.45-1.09-6.95-1.82-10.38c-0.36-1.67-0.71-3.14,1.33-4.26c-1.5-5.3-2.96-10.53-4.47-15.74
		c-0.24-0.83-0.66-1.63-1.11-2.38c-5.34-8.95-9.89-18.26-13.05-28.22C499.99,408.79,499.44,408.4,499.08,407.93z M319.09,302.71
		c0.01,0,0.02,0.01,0.03,0.01c-1.17-4.46-2.33-8.94-2.69-13.55c-0.1-1.22-0.58-2.06-1.6-3.05c-0.29,0.98-0.54,1.71-0.71,2.45
		c-0.92,3.89-1.78,7.79-2.74,11.67c-3.49,14.12-5.57,28.39-4.88,42.98c0.06,1.36,0.03,2.74,0.31,4.06c0.92,4.3,1.95,8.57,2.96,12.85
		c0.09,0.38,0.33,0.73,0.67,1.46c1.01-14.42,5.14-43.29,6.59-46.14c1.35,0.26,1.45,1.28,1.38,2.34c-0.14,2.07-0.36,4.14-0.52,6.21
		c-1.07,14.21-1.19,28.44-0.9,42.67c0.15,7.36,0.8,14.68,1.99,21.96c0.3,1.82,0.91,3.27,2.45,4.41c1.15,0.84,2.09,1.97,3.09,3
		c3.46,3.55,6.79,7.24,10.41,10.62c2.08,1.95,3.45,4.14,4.2,6.81c1.1,3.93,2.24,7.84,3.29,11.78c1.69,6.32,4.42,12.09,8.28,17.43
		c2.75,3.8,6.18,6.81,9.57,9.92c4.07,3.72,8.11,7.47,12.2,11.16c0.66,0.59,1.51,0.97,2.27,1.45c0.1-0.97-0.12-1.61-0.4-2.23
		c-3.03-6.7-6.13-13.37-9.09-20.1c-1.86-4.24-3.54-8.57-5.24-12.88c-0.19-0.48,0.07-1.13,0.12-1.69c0.57,0.16,1.23,0.2,1.69,0.52
		c0.57,0.4,1.02,1.01,1.45,1.58c2,2.7,3.97,5.42,5.94,8.13c0.48,0.67,0.95,1.34,1.43,2.01c0.04-0.58-0.12-1.01-0.31-1.44
		c-9.52-20.89-18.17-42.1-24.65-64.17c-2.77-9.43-6.04-18.71-9.09-28.06c-0.29-0.87-0.63-1.73-0.94-2.6
		c-0.46,0.83-0.5,1.58-0.45,2.32c0.47,8.07,1.4,16.08,2.69,24.06c0.81,4.99,1.64,9.93,3.98,14.49c0.29,0.56,0.4,1.21,0.54,1.83
		c0.38,1.62,0.68,3.26,1.1,4.87c0.45,1.7,1.04,3.36,1.48,5.06c0.15,0.58,0.08,1.23,0.03,1.84c-0.01,0.13-0.35,0.24-0.63,0.41
		c-0.25-0.22-0.49-0.4-0.69-0.63c-0.24-0.28-0.45-0.6-0.62-0.84c-2.29,0.39-2.64,0.25-3.62-1.54c-3.19-5.82-6.39-11.63-9.51-17.48
		c-0.51-0.95-0.85-2.08-0.95-3.16c-0.57-6.05-1.01-12.11-1.57-18.16c-0.52-5.65-0.8-11.35-1.78-16.92
		c-2.08-11.88-4.54-23.7-6.88-35.54C318.63,304.08,318.37,303.35,319.09,302.71z M932.91,258.27l0.01-0.02
		c-1.29,6.28-3.08,12.39-5.77,18.23c-0.41,0.9-0.44,2.02-0.46,3.04c-0.38,28.55,0.15,57.08,1.21,85.6c0.02,0.44,0.11,0.88,0.16,1.32
		c1.75-0.23,1.89-1.5,2.02-2.66c0.7-6.43,1.71-12.86,1.95-19.31c0.63-16.95,0.38-33.89-1.17-50.8c-0.09-0.95-0.14-1.91-0.14-2.87
		c0-0.98,0.43-1.63,1.85-1.7c0.63,3.9,1.28,7.73,1.86,11.58c0.57,3.79,1.07,7.6,1.62,11.39c0.56,3.88,1.11,7.75,1.69,11.63
		c0.57,3.81,0.13,7.69,1.05,11.58c0.17-0.3,0.39-0.54,0.45-0.82c0.66-2.88,1.64-5.51,3.28-8.11c2.82-4.45,4.67-9.48,5.6-14.7
		c1.28-7.15,2.23-14.36,3.35-21.55c0.17-1.09,0.13-2.42,0.74-3.2c1.34-1.72,1.25-3.52,1.11-5.46c-0.2-2.94-0.42-5.89-0.37-8.83
		c0.05-3.11,0.37-6.22,0.64-9.33c1.53-17.78,2.13-35.59,1.53-53.43c-0.06-1.68-0.15-3.36-0.37-5.02c-0.24-1.81-0.72-3.56-1.86-4.95
		c-0.35,0.02-0.53-0.01-0.66,0.05c-3.95,1.91-7.87,3.88-11.84,5.72c-1.06,0.49-2.3,0.9-3.44,0.86c-3.26-0.13-6.53-0.42-9.77-0.84
		c-1.98-0.26-3.91-0.42-6.03-0.14c0.9,2.71,1.75,5.27,2.61,7.83c0.1,0.3,0.23,0.61,0.42,0.86c2.49,3.3,3.57,7.02,3.4,11.13
		c-0.04,1.04-0.03,2.08-0.05,3.12c-0.21,12.55-0.41,25.1-0.61,37.65c-0.01,0.89,0.03,1.78,0.04,2.68c0.78-0.59,1.14-1.19,1.42-1.83
		c1.09-2.4,2.13-4.83,3.26-7.21C931.92,259.2,932.48,258.76,932.91,258.27z M373.71,505.22l0.06-0.06c-0.52,0.95-0.19,1.72,0.58,2.3
		c1.01,0.76,2.18,0.68,3.17,0.08c1.36-0.82,2.66-1.75,3.31-3.35c0.48-1.18,1.08-2.32,1.64-3.46c0.45-0.92,1.22-1.83,2.21-1.35
		c1.17,0.57,2.02,0.12,3.03-0.5c-0.05,0.44-0.04,0.61-0.09,0.74c-0.17,0.36-0.31,0.75-0.56,1.06c-2.66,3.29-3.59,7.24-4.41,11.24
		c-0.18,0.86-0.45,1.7-0.67,2.55c-1.57,6.12-3.17,12.22-4.69,18.35c-0.34,1.37-0.7,2.8,0.04,4.21c0.16,0.31,0.21,0.91,0.02,1.14
		c-1.42,1.72-0.64,3.49-0.15,5.22c1.81,6.3,3.64,12.59,5.52,18.88c1.97,6.59,3.97,13.17,5.99,19.74c1.06,3.42,2.77,6.43,5.59,8.77
		c1.97,1.64,3.8,3.42,5.72,5.12c10.23,9,20.98,17.29,32.99,23.83c0.68,0.37,1.37,0.72,2.35,1.23c0.48-2.59,0.88-4.93,1.36-7.24
		c2.43-11.86,3.37-23.83,2.61-35.91c-0.51-8.23-1.66-16.38-3.14-24.48c-0.26-1.42-0.86-2.48-1.83-3.51
		c-4.66-4.95-9.25-9.96-13.88-14.93c-0.52-0.55-1.17-0.98-1.76-1.47c0-0.07,0-0.14,0-0.21c-0.05,0.04-0.11,0.09-0.16,0.13
		c0.07,0.01,0.14,0.02,0.21,0.03c0.24,0.91,0.45,1.83,0.74,2.72c3,9.35,6.11,18.66,8.97,28.05c1.39,4.58,2.27,9.31,2.45,14.13
		c0.04,1.05-0.09,2.11-0.14,3.16c-0.16,0.02-0.33,0.03-0.49,0.05c-0.22-0.46-0.47-0.91-0.65-1.38
		c-6.72-17.95-13.87-35.73-21.95-53.12c-0.76-1.63-1.73-3.03-3.14-4.15c-0.79-0.62-1.49-1.35-2.38-2.17
		c0.76-0.54,1.25-0.88,1.69-1.2c-0.01-0.24,0.02-0.42-0.04-0.55c-3.16-6.72-6.31-13.45-9.53-20.14c-0.36-0.75-1.03-1.41-1.68-1.97
		c-9.21-8.04-18.44-16.05-27.67-24.06c-0.45-0.39-0.94-0.74-1.48-1.16c-0.06,0.34-0.14,0.5-0.1,0.63
		c3.03,8.84,6.06,17.69,10.55,25.94c0.37,0.68,1.01,1.36,0.28,2.16c-0.72,0.79-1.47,0.32-2.18-0.02c-1.21-0.58-2.4-1.2-3.69-1.85
		c-0.05,0.38-0.15,0.63-0.09,0.82c0.32,1.07,0.64,2.14,1.02,3.19C370.12,504.87,371,505.41,373.71,505.22z M481.62,442.23
		c0.41-1.05,0.74-1.75,0.95-2.49c1.54-5.19,3.67-10.19,4.49-15.61c0.46-3.06,1.58-6.02,2.41-9.03c2.05-7.39,3.68-14.85,4.31-22.52
		c0.26-3.18,0.9-6.33,1.38-9.49c0.1-0.63,0.14-1.34,0.47-1.84c0.3-0.46,0.97-0.97,1.44-0.94c0.47,0.03,1.16,0.65,1.28,1.12
		c0.22,0.89,0.31,1.93,0.08,2.81c-0.77,3.06-0.33,6.02,0.34,9.01c2.36,10.6,6.3,20.61,11.13,30.29c0.24,0.48,0.57,0.92,0.97,1.55
		c2.33-1.62,3.72,0.55,5.73,1.58c-0.35-1.12-0.57-1.88-0.81-2.62c-2.03-6.06-4.18-12.09-6.05-18.2c-1.21-3.96-2.17-8.02-2.96-12.09
		c-0.63-3.27-1.24-6.62,0.22-9.9c0.28-0.63,0.29-1.41,0.34-2.12c0.44-6.33,0.28-12.63-0.89-18.87c-0.2-1.08-0.63-2.16-1.18-3.11
		c-2.24-3.94-3.67-8.15-4.49-12.59c-0.32-1.71-0.65-3.42-0.98-5.17c-5.63-0.25-11.09-0.49-16.94-0.75c0.52,1.07,0.81,1.69,1.13,2.31
		c1.82,3.56,3.69,7.09,5.44,10.68c0.68,1.38,1.46,2.84,0.22,4.43c-0.27,0.35-0.11,1.08-0.06,1.63c0.11,1.19,0.31,2.38,0.4,3.57
		c0.62,7.96,0.4,15.86-2.48,23.41c-2.25,5.9-4.79,11.68-7.29,17.48c-0.71,1.66-1.21,3.02-0.24,4.91c1.31,2.54-0.42,4.53-3.36,4.29
		c-0.87-0.07-1.76-0.24-2.62-0.19c-1.8,0.11-2.26,0.71-1.9,2.46c1.73,8.42,4.32,16.54,8.33,24.18
		C480.7,440.95,481.08,441.43,481.62,442.23z M544.28,443.16c1.35-4.92,2.72-9.84,4.03-14.77c0.54-2,1.02-4.03,1.43-6.06
		c1.99-9.75,2.51-19.65,3.06-29.55c0.33-5.94,0.37-5.93-4-9.9c-0.06-0.05-0.12-0.1-0.19-0.15c-1.09-0.79-1.55-1.72-0.97-3.1
		c0.23-0.53,0.09-1.26-0.01-1.88c-1.3-8.71-1.97-17.47-2.3-26.27c-0.33-8.87-0.61-17.74-0.95-26.6c-0.07-1.9-0.28-3.8-0.43-5.7
		c-0.15-0.01-0.3-0.02-0.45-0.03c-0.16,1.08-0.32,2.16-0.47,3.24c-1.08,7.35-1.84,14.77-3.31,22.04
		c-2.14,10.57-4.79,21.04-7.21,31.55c-1.52,6.58-1.44,6.56,0.67,12.98c2.15,6.52,4.18,13.09,6.2,19.65c0.49,1.6,0.74,3.27,1.08,4.92
		c0.16,0.79,0.23,1.57-1.02,1.99c-0.42-1.14-0.81-2.2-1.12-3.02c-0.67,0.53-1.18,1.24-1.81,1.38c-1.02,0.23-1.52-0.66-1.9-1.49
		c-0.26-0.58-0.52-1.17-0.74-1.77c-0.8-2.18-1.56-4.36-2.37-6.53c-0.15-0.42-0.44-0.79-0.66-1.18
		C534.9,416.47,540.72,429.4,544.28,443.16z M455.99,592.59c-0.12,0-0.24,0.01-0.36,0.01c-0.15,0.84-0.35,1.67-0.44,2.52
		c-0.48,4.45-0.93,8.9-1.4,13.35c-0.17,1.58-0.78,2.87-2.16,3.82c-0.59,0.41-1.16,1.12-1.36,1.8c-3.43,11.64-6.8,23.31-10.19,34.96
		c-0.74,2.52-1.54,5.03-2.31,7.54c-0.26,0.85-0.55,1.7-1,3.08c0.87-0.58,1.21-0.78,1.52-1.02c6.69-5.33,13.44-10.57,20.02-16.04
		c3.5-2.9,6.68-6.18,10-9.3c2.56-2.41,4.07-5.49,5.47-8.64c0.41-0.91,0.36-1.63-0.26-2.42c-1.34-1.69-2.63-3.42-3.9-5.16
		c-0.66-0.9-1.28-1.82-1.83-2.79c-0.91-1.59-1.67-3.27-2.62-4.83c-2.08-3.41-4.26-6.76-6.38-10.14c-1.02-1.63-2.02-3.25-2.17-5.26
		C456.57,593.56,456.2,593.08,455.99,592.59z M669.89,407.75c0.19,0.02,0.38,0.04,0.57,0.05c0.14-0.37,0.3-0.72,0.4-1.1
		c2.47-9.42,5.03-18.83,7.35-28.29c1.87-7.63,2.92-15.39,2.31-23.27c-0.15-1.9,0.35-3.19,1.94-4.26c1.79-1.21,3.96-4.62,4.47-6.74
		c-4.08-0.27-8.12-0.52-12.16-0.82c-1.43-0.11-2.9-0.16-4.26-0.57c-4.37-1.29-8.76-2.56-12.38-5.53c-0.14-0.11-0.41-0.05-0.62-0.07
		c-0.04,0.22-0.13,0.39-0.1,0.52c1.96,8.31,3.92,16.62,5.91,24.93c0.24,1,0.73,1.96,0.86,2.97c1.56,11.71,3.07,23.44,4.61,35.15
		C669.11,403.08,669.52,405.41,669.89,407.75z M796.92,331.63c-0.14-0.02-0.28-0.04-0.41-0.07c-0.13,0.26-0.31,0.5-0.4,0.77
		c-1.88,5.78-3.74,11.56-5.64,17.33c-0.21,0.65-0.65,1.23-1,1.83c-0.59,1.01-1.41,1.95-1.78,3.03c-1.76,5.31-3.42,10.65-5.07,16
		c-0.42,1.37-0.67,2.79-0.96,4.2c-0.17,0.8,0.28,1.88-0.96,2.15c-0.67,0.15-1.78-1.03-1.96-2.13c-0.1-0.62,0-1.27,0.05-1.91
		c0.1-1.27,0.31-2.55,0.33-3.82c0.09-5.83,0.14-11.67,0.17-17.51c0-0.38-0.23-0.75-0.34-1.11c-2.42,2.41-2.8,5.42-3.2,8.43
		c-0.44,3.33-0.94,6.65-1.44,9.97c-0.09,0.63-0.11,1.59-0.49,1.79c-1.35,0.73-1.02,1.78-0.92,2.88c0.1,1.09,0.29,2.23,0.07,3.28
		c-2.04,9.69-2.09,19.53-2.23,29.36c-0.01,0.73,0.11,1.46,0.21,2.62c0.63-0.71,0.92-0.97,1.13-1.29c1.24-1.86,2.55-3.69,3.68-5.61
		c6.02-10.19,12.01-20.39,17.95-30.62c0.62-1.07,1.09-2.34,1.23-3.56c1.29-11.21,1.83-22.47,1.96-33.74
		C796.92,333.14,796.92,332.38,796.92,331.63z M450.85,420.9c-0.13,0.13-0.25,0.26-0.38,0.39c1.74,5.47,3.46,10.95,6.27,16
		c1.79,3.22,3.49,6.45,4.54,10c0.29,0.98,0.78,1.94,1.36,2.79c3.22,4.66,6.5,9.28,9.78,13.91c0.17,0.24,0.45,0.41,0.88,0.78
		c0.8-2.08,1.35-4.09,2.31-5.88c1.81-3.39,1.8-6.86,0.97-10.46c-0.02-0.08-0.03-0.16-0.05-0.23c-2.2-9.94-5.44-19.52-9.8-28.72
		c-0.13-0.27-0.38-0.47-0.67-0.8c-0.97,0.71-1.86,1.37-2.77,2.01c-1.77,1.23-3.49,2.55-5.34,3.64c-1.89,1.12-2.9,0.8-4.38-0.81
		C452.71,422.59,451.76,421.77,450.85,420.9z M732.72,435.66c-0.46,0.63-0.8,1.03-1.08,1.48c-1.22,1.97-2.26,4.07-3.66,5.9
		c-3.93,5.13-5.45,10.95-6.08,17.31c-0.63,6.41-2.08,12.75-3.23,19.11c-0.13,0.74-0.43,1.75-0.98,2.07
		c-1.09,0.62-1.05,1.51-1.07,2.44c-0.25,8.22-0.49,16.44-0.73,24.67c-0.01,0.31,0.11,0.63,0.17,0.95c0.57-0.67,0.81-1.34,1.03-2.01
		c6.84-21.65,11.84-43.77,16.98-65.86C734.59,439.44,733.7,437.74,732.72,435.66z M440.3,333.39c-0.19,0.32-0.31,0.44-0.31,0.55
		c-0.02,0.64-0.02,1.28,0,1.92c0.43,14.47,1.49,28.88,3.79,43.19c0.93,5.75,1.65,11.56,3.82,17.03c0.31,0.78,0.65,1.54,0.98,2.31
		c0.38-0.19,0.55-0.22,0.66-0.33c1.25-1.19,1.95-2.62,2.37-4.32c1.49-5.97,2.05-11.89,0.5-17.98c-1.02-4.01-1.34-8.21-2.33-12.23
		c-1.89-7.68-3.94-15.31-6.87-22.68c-0.79-2-1.34-4.1-2.01-6.15C440.77,334.29,440.55,333.91,440.3,333.39z M572.71,373.39
		c0.11,0.69,0.15,1.24,0.3,1.76c1.21,4.47,2.42,8.93,3.69,13.38c0.35,1.22,0.77,2.45,1.37,3.57c0.63,1.18,0.79,2.36,0.79,3.67
		c0.04,9.49,0.14,18.99,0.24,28.48c0,0.47,0.18,0.95,0.27,1.42c0.52-0.71,0.68-1.39,0.86-2.08c1.45-5.39,2.85-10.8,4.36-16.18
		c1.21-4.3,2.49-8.59,3.86-12.84c0.58-1.79,0.32-3.24-0.89-4.63c-4.76-5.47-9.51-10.97-14.27-16.45
		C573.25,373.47,573.14,373.48,572.71,373.39z M918.67,568.45c15.03,1.97,27.73,9.31,41.22,14.53
		c-12.56-7.82-25.38-15.24-36.19-25.6c-0.64,1.23-0.98,2.64-1.86,3.41C919.49,562.87,919.55,565.72,918.67,568.45z M742.26,524.8
		c0.22,0.01,0.45,0.02,0.67,0.03c0.37-1.2,0.84-2.37,1.08-3.59c0.54-2.66,0.96-5.34,1.44-8.01c0.11-0.62,0.12-1.36,0.46-1.83
		c1.08-1.52,1.23-3.29,1.41-5.01c0.47-4.6,0.83-9.22,1.21-13.83c0.04-0.49-0.08-0.99-0.18-1.96c-0.5,0.73-0.75,1.02-0.9,1.35
		c-2.32,4.9-4.67,9.79-6.91,14.73c-0.37,0.82-0.43,1.87-0.34,2.78c0.32,3.42,0.74,6.82,1.18,10.23
		C741.59,521.39,741.96,523.09,742.26,524.8z M635.34,307.18c-0.2,0.02-0.39,0.04-0.59,0.06c0.09,0.53,0.13,1.08,0.28,1.59
		c2.36,8.04,4.74,16.07,7.09,24.11c0.61,2.08,1.52,3.92,3.78,5.29c-0.38-3.23-0.69-6.22-1.1-9.2c-0.14-1-0.46-2.01-0.86-2.95
		c-1.79-4.18-3.6-8.35-5.47-12.5C637.48,311.42,636.38,309.31,635.34,307.18z M458.67,352.52c-0.19,0.03-0.37,0.06-0.56,0.09
		c-0.16,2.3-0.48,4.61-0.44,6.91c0.04,2.22,0.56,4.44,0.64,6.66c0.13,3.54,1.74,6.41,3.74,9.15c0.22,0.31,0.62,0.49,1.34,1.04
		C462.05,368.02,462.57,359.82,458.67,352.52z M463.5,377.68c-2.73,1.08-2.56-1.56-3.82-2.29c-0.3,2.68,0.16,6.95,0.93,8.44
		C461.8,382,463.03,380.3,463.5,377.68z M943.26,198.36c0.07,0.11,0.15,0.23,0.22,0.34c2.36-0.38,4.72-0.76,7.39-1.19
		c-1.2-1.04-2.06-1.79-2.94-2.55C946.3,196.16,944.78,197.26,943.26,198.36z M352.44,275.71c0-2.57,0-5.14,0-8.13
		C350.89,270.57,351.66,273.14,352.44,275.71z M896.7,248.92c0.73-2.33,1.61-4.7,0-7.53C896.7,244.23,896.7,246.57,896.7,248.92z
		 M479.24,444.23c0.18,0.73,0.36,1.46,0.6,2.47C480.94,445.37,480.15,444.78,479.24,444.23z M464.67,373.31
		c-0.08,0.01-0.17,0.02-0.25,0.04c0,0.64,0,1.27,0,1.91c0.14-0.01,0.27-0.02,0.41-0.03C464.78,374.58,464.73,373.95,464.67,373.31z
		 M470.08,416.04c-0.16,0.04-0.31,0.08-0.47,0.12c0.18,0.47,0.37,0.93,0.55,1.4c0.1-0.03,0.2-0.07,0.29-0.1
		C470.33,416.99,470.21,416.51,470.08,416.04z M688.04,464.44c0.08,0,0.16,0.01,0.24,0.01c0.02-0.35,0.04-0.69,0.05-1.04
		c-0.08,0-0.16-0.01-0.25-0.01C688.07,463.74,688.05,464.09,688.04,464.44z M667.8,471.51c-0.05,0.02-0.1,0.05-0.15,0.07
		c0.09,0.19,0.18,0.38,0.27,0.57c0.04-0.03,0.13-0.09,0.13-0.1C667.97,471.86,667.88,471.68,667.8,471.51z M294.06,216.03
		c0.06-0.05,0.11-0.1,0.17-0.15c-0.09-0.03-0.19-0.08-0.28-0.07c-0.04,0-0.07,0.12-0.1,0.19C293.92,216,293.99,216.01,294.06,216.03
		z M528.08,489.68c-0.07,0-0.15,0-0.22,0.01c0,0.32,0,0.65,0,0.97c0.07,0,0.15,0,0.22-0.01C528.08,490.32,528.08,490,528.08,489.68z
		 M389.8,490.48c0.1-0.05,0.21-0.1,0.31-0.15c-0.12-0.23-0.24-0.46-0.36-0.7c-0.08,0.04-0.17,0.08-0.25,0.11
		C389.6,490,389.7,490.24,389.8,490.48z M527.87,485.12c0.02,0,0.05,0,0.07,0c-0.01-0.16-0.02-0.33-0.03-0.49c-0.03,0-0.05,0-0.08,0
		C527.85,484.79,527.86,484.96,527.87,485.12z M532.68,563.46l0.08-0.16l-0.11-0.03L532.68,563.46z M774.66,315.7
		c-0.15-0.03-0.23-0.05-0.31-0.07c0.02,0.06,0.03,0.11,0.05,0.17C774.46,315.78,774.52,315.76,774.66,315.7z M178.38,253.31
		l-0.19,0.07l0.19,0.07V253.31z M179.73,252.97l0.02-0.13l-0.19,0.05L179.73,252.97z M878.8,482.15c-0.04-0.05-0.07-0.12-0.12-0.13
		c-0.04-0.01-0.1,0.05-0.15,0.08c0.07,0.07,0.13,0.14,0.2,0.21C878.76,482.25,878.78,482.2,878.8,482.15z M955,188.97
		c-0.01,0.14-0.02,0.24-0.03,0.35c0.05-0.04,0.12-0.08,0.13-0.13C955.1,189.13,955.04,189.07,955,188.97z M372.87,506.33l0.11-0.16
		l-0.17-0.02L372.87,506.33z"/>
	<path d="M1090.44,263.94c-2.22,0-4.44,0.02-6.65-0.01c-1.57-0.02-2.98-0.56-4.2-1.55c-0.93-0.76-1.84-1.54-2.74-2.33
		c-4.17-3.71-8.79-6.64-14.23-8.16c-0.61-0.17-1.21-0.4-1.8-0.66c-1.05-0.45-1.69-1.22-1.6-2.41c0.1-1.27,0.85-2.21,2.03-2.36
		c1.31-0.17,2.72-0.11,4,0.21c2.01,0.5,3.95,1.29,5.91,1.96c1.21,0.41,2.42,0.82,3.62,1.27c0.94,0.35,1.81,0.42,2.77-0.04
		c2.01-0.96,3.99-0.55,5.66,0.71c1.65,1.24,3.24,2.63,4.56,4.21c1.52,1.83,2.94,2.58,5.3,1.47c1.55-0.73,3.39-0.89,5.11-1.18
		c0.77-0.13,1.62-0.1,2.38,0.09c1.72,0.43,2.33,2.06,1.37,3.54c-0.3,0.46-0.7,0.9-1.16,1.19c-2.76,1.79-5.66,3.31-8.91,4.02
		c-0.47,0.1-0.95,0.13-1.42,0.2C1090.45,264.05,1090.45,263.99,1090.44,263.94z"/>
	<path d="M746.41,244.01c-0.19,0.86-0.42,1.79-0.61,2.73c-0.89,4.21-1.79,8.42-2.65,12.63c-0.29,1.44-1.14,2.32-2.32,2.26
		c-1.13-0.06-1.96-0.9-2.11-2.22c-0.67-6.02-1.4-12.04-1.99-18.07c-0.64-6.51-1.14-13.04-1.72-19.56c-0.09-1.03-0.19-2.08-0.47-3.07
		c-0.47-1.7-0.18-3.24,0.59-4.78c0.39-0.78,0.9-1.52,1.74-1.32c0.66,0.16,1.52,0.77,1.71,1.36c0.71,2.27,1.37,4.58,1.69,6.93
		c0.32,2.38,0.72,4.64,1.77,6.88C744.44,232.87,745.34,238.42,746.41,244.01z"/>
	<path d="M227.98,665.83c0.1-3.18,0.83-5.7,2.13-8.04c3.03-5.41,6.83-10.22,11.57-14.25c0.91-0.77,1.92-1.45,2.98-2
		c0.76-0.39,1.65-0.62,2.51-0.69c1.56-0.13,2.82,0.52,3.55,1.94c0.75,1.45,0.44,2.81-0.57,4c-0.51,0.6-1.13,1.14-1.76,1.61
		c-6.36,4.79-11.83,10.48-16.93,16.56c-0.41,0.49-0.78,1.07-1.29,1.4c-0.47,0.3-1.18,0.51-1.68,0.38
		C228.15,666.67,228.01,665.9,227.98,665.83z"/>
	<path d="M1016.7,665.64c-0.1,0.19-0.32,1.13-0.62,1.15c-0.6,0.05-1.39-0.25-1.84-0.68c-1.09-1.05-2.06-2.23-3.03-3.39
		c-4.36-5.25-9.28-9.9-14.67-14.07c-0.69-0.54-1.37-1.11-1.96-1.75c-1.08-1.16-1.33-2.54-0.71-4c0.58-1.38,2.05-2.25,3.73-2.04
		c1,0.13,2.06,0.45,2.91,0.98c1.41,0.88,2.77,1.9,3.99,3.04c3.75,3.52,6.89,7.54,9.52,11.96
		C1015.55,659.42,1016.51,662.19,1016.7,665.64z"/>
	<path d="M690.91,259.48c-0.18-0.93-0.35-1.61-0.44-2.3c-1.02-7.17-2.03-14.35-3.01-21.52c-0.11-0.78-0.84-2.04,0.37-2.25
		c1.33-0.23,1.15,1.25,1.27,2.09c0.91,6.3,1.78,12.62,2.64,18.93C691.95,256.08,692.02,257.72,690.91,259.48z"/>
	<path d="M493.82,565.69c3.05,1.69,6.07,3.41,9.15,5.05c1.89,1.01,3.87,1.85,5.78,2.83c0.64,0.33,1.19,0.83,1.78,1.25
		c-0.07,0.16-0.15,0.33-0.22,0.49c-0.49,0-1.04,0.15-1.45-0.02c-3.71-1.58-7.56-2.89-10.68-5.63c-0.94-0.83-2.14-1.36-3.17-2.1
		c-0.59-0.43-1.54-0.72-1.13-1.8L493.82,565.69z"/>
	<path d="M427.03,455.82c3.24,3.82,3.31,8.08,3.3,12.44C428.45,466.45,427.1,461.43,427.03,455.82z"/>
	<path d="M572.25,658.39c0.74,2.59,1.49,5.17,2.19,7.77c0.17,0.64,0.04,1.27-1.03,1.48C572.32,664.66,572.31,661.53,572.25,658.39z"
		/>
	<path d="M372.52,163.42c1.75-3.95,3.95-7.01,6.22-10.37C378.66,154.67,374.34,161.92,372.52,163.42z"/>
	<path d="M875.52,134.88c-0.54-0.17-0.87-0.16-0.96-0.31c-1.57-2.53-3.12-5.08-4.84-7.91C871.47,127.68,873.38,130.45,875.52,134.88
		z"/>
	<path d="M599.98,646.46c0.18,1.17,0.41,2.34,0.51,3.52c0.03,0.4-0.16,1.02-0.45,1.19c-0.31,0.18-0.98,0.09-1.27-0.16
		c-0.28-0.23-0.45-0.84-0.36-1.21c0.27-1.19,0.69-2.34,1.05-3.51C599.63,646.35,599.81,646.41,599.98,646.46z"/>
	<path d="M576.77,485.84c0,1.91,0,3.82,0,5.91c-1.17-2-0.54-3.96-0.51-5.88C576.43,485.86,576.6,485.85,576.77,485.84z"/>
	<path d="M842.91,115.71c-1.47,0.86-2.73,1.19-4.01,0.03C840.18,114.35,840.45,114.34,842.91,115.71z"/>
	<path d="M416.25,428.85c-0.47-1.05-0.94-2.09-1.41-3.14c1.95,0.3,1.64,1.74,1.99,2.84C416.64,428.65,416.44,428.75,416.25,428.85z"
		/>
	<path d="M999.99,439.8c-0.49,0.95-0.97,1.89-1.46,2.84c-0.13-0.06-0.26-0.13-0.39-0.19c0.46-0.96,0.92-1.92,1.38-2.88
		C999.68,439.64,999.84,439.72,999.99,439.8z"/>
	<path d="M740.54,306.65c0.62,1.52,0.62,1.52-0.51,2.32C740.24,308,740.39,307.32,740.54,306.65z"/>
	<path d="M638.33,680.27c0,1.09,0,2.17,0,3.26c-0.11,0-0.22,0-0.33-0.01c0.05-1.05,0.1-2.1,0.16-3.14
		C638.22,680.34,638.27,680.31,638.33,680.27z"/>
	<path d="M249.86,467.51c-1.27-0.57-1.49-1.73-1.81-2.83c0.14-0.07,0.28-0.14,0.42-0.22c0.45,1.03,0.89,2.07,1.34,3.1L249.86,467.51
		z"/>
	<path d="M940.47,189.28c0.26,0.48,0.52,0.96,0.78,1.44c-0.13,0.08-0.25,0.16-0.38,0.24c-0.32-0.46-0.63-0.92-0.95-1.38
		C940.11,189.48,940.29,189.38,940.47,189.28z"/>
	<path d="M326.06,169.98c0.31-0.54,0.54-0.93,0.84-1.46C327.32,169.68,327.32,169.68,326.06,169.98z"/>
	<path d="M922.24,141.88c0.27,0.42,0.5,0.79,0.79,1.25c-0.34,0.11-0.6,0.28-0.71,0.21C921.66,142.92,921.67,142.9,922.24,141.88z"/>
	<path d="M596.65,639.57c-0.02,0.27-0.05,0.54-0.07,0.82c-0.1-0.01-0.2-0.02-0.3-0.04c0.04-0.27,0.08-0.54,0.12-0.81
		C596.48,639.55,596.57,639.56,596.65,639.57z"/>
	<path d="M546.87,598.61c0.33,0.4,0.67,0.8,1,1.2c-0.15,0.09-0.3,0.19-0.45,0.28c-0.19-0.49-0.38-0.98-0.56-1.47
		C546.85,598.62,546.87,598.61,546.87,598.61z"/>
	<path d="M308.16,217.9c0.03-0.59,0.06-1.18,0.09-1.77c0.21,0.05,0.43,0.1,0.64,0.15c-0.26,0.55-0.51,1.09-0.77,1.64
		C308.12,217.92,308.16,217.9,308.16,217.9z"/>
	<path d="M892.55,117.22c0.51,0.39,0.75,0.58,1,0.77c-0.24-0.01-0.49,0-0.73-0.05C892.75,117.92,892.72,117.71,892.55,117.22z"/>
	<path d="M355.44,144.67c0.21-0.14,0.41-0.28,0.62-0.42c0,0.19,0.05,0.4-0.02,0.56c-0.04,0.09-0.26,0.11-0.39,0.16
		C355.58,144.87,355.51,144.77,355.44,144.67z"/>
	<path d="M348.86,723.97c0.64-0.12,1.27-0.24,1.91-0.35l-0.04-0.06c-0.62,0.13-1.25,0.27-1.87,0.4L348.86,723.97z"/>
	<path d="M351.02,722.8c0.55-0.23,1.1-0.45,1.65-0.68l-0.06-0.06c-0.55,0.22-1.1,0.45-1.65,0.67
		C350.97,722.73,351.02,722.8,351.02,722.8z"/>
	<path d="M687.71,230.67c-0.1,0.09-0.2,0.18-0.31,0.27c-0.1-0.16-0.19-0.32-0.29-0.49c0.12-0.05,0.28-0.17,0.36-0.14
		C687.59,230.37,687.64,230.55,687.71,230.67z"/>
	<path d="M512.34,701.32c0.07-0.18,0.14-0.36,0.21-0.54c0.04,0.05,0.09,0.1,0.13,0.14c-0.13,0.12-0.26,0.23-0.39,0.35
		C512.29,701.28,512.34,701.32,512.34,701.32z"/>
	<path d="M346.98,725.64c0.45,0,0.9-0.01,1.35-0.01c0,0,0.02-0.02,0.02-0.02c-0.44-0.02-0.87-0.04-1.31-0.05L346.98,725.64z"/>
	<path d="M753.17,681.18c-0.09-0.09-0.18-0.18-0.27-0.27c0.09-0.02,0.18-0.05,0.27-0.07c-0.02,0.13-0.03,0.25-0.05,0.38
		C753.12,681.22,753.17,681.18,753.17,681.18z"/>
	<path d="M603.74,632.99c-0.09,0.03-0.19,0.06-0.28,0.08c0.04,0.03,0.09,0.07,0.13,0.1c0.03-0.05,0.06-0.11,0.1-0.16L603.74,632.99z
		"/>
	<path d="M603.68,633.01c-0.02-0.11-0.05-0.22-0.07-0.33c-0.01,0.05-0.05,0.12-0.03,0.16c0.03,0.06,0.09,0.1,0.15,0.14
		C603.74,632.99,603.68,633.01,603.68,633.01z"/>
	<polygon points="590.09,228.99 589.93,228.92 590.11,228.86 	"/>
	<path d="M493.88,565.74l-0.11,0.07c0,0,0.06-0.11,0.05-0.12C493.82,565.69,493.88,565.74,493.88,565.74z"/>
	<path d="M308.12,217.92l-0.12-0.13c0,0,0.14,0.11,0.15,0.11C308.16,217.9,308.12,217.92,308.12,217.92z"/>
	<path d="M741.31,559.98c0.01-0.05,0.02-0.1,0.02-0.15c0.02,0.03,0.05,0.06,0.07,0.09C741.4,559.93,741.31,559.98,741.31,559.98z"/>
	<path d="M1005.47,234.28c-0.01-0.01-0.03-0.01-0.05-0.03C1005.42,234.25,1005.47,234.28,1005.47,234.28z"/>
	<polygon points="644.05,720.06 644.25,720.08 644.11,720.09 	"/>
	<path d="M352.67,722.12c0.1-0.23,0.2-0.46,0.3-0.69c0,0-0.06-0.05-0.06-0.06c-0.11,0.22-0.21,0.45-0.31,0.68
		C352.62,722.06,352.67,722.12,352.67,722.12z"/>
	<path d="M350.77,723.62c0.09-0.27,0.18-0.54,0.26-0.81c0,0-0.06-0.07-0.06-0.07c-0.09,0.27-0.17,0.54-0.25,0.82
		C350.72,723.56,350.77,723.62,350.77,723.62z"/>
	<path d="M250.58,468.94c-0.01-0.34-0.01-0.68-0.03-1.01c-0.01,0.01-0.07,0.04-0.07,0.04c0.04,0.33,0.07,0.65,0.11,0.98
		C250.6,468.95,250.58,468.94,250.58,468.94z"/>
	<path d="M249.81,467.57c0.22,0.14,0.44,0.27,0.67,0.4c0.01-0.01,0.07-0.04,0.08-0.04c-0.23-0.14-0.46-0.28-0.7-0.42
		C249.86,467.51,249.81,467.57,249.81,467.57z"/>
	<path d="M348.86,723.96c-0.02,0.3-0.03,0.6-0.05,0.9l0.07,0.03c0-0.3-0.01-0.6-0.02-0.91
		C348.86,723.97,348.86,723.96,348.86,723.96z"/>
	<path d="M348.81,724.86c-0.15,0.25-0.31,0.49-0.46,0.75c0,0.01-0.02,0.02-0.02,0.02c0.18-0.25,0.36-0.5,0.54-0.74
		C348.88,724.89,348.81,724.86,348.81,724.86z"/>
	<path d="M243.22,260.6c-0.05,0.02-0.1,0.05-0.15,0.07c0.02-0.03,0.04-0.07,0.05-0.1C243.12,260.57,243.22,260.6,243.22,260.6z"/>
	<path d="M347.04,725.56c0.01,0.06,0.02,0.12,0.03,0.18c-0.03-0.04-0.05-0.07-0.08-0.11C346.98,725.64,347.04,725.56,347.04,725.56z
		"/>
	<path d="M354.37,727.12c-0.04,0.1-0.08,0.19-0.12,0.29c0-0.05-0.02-0.11,0-0.14c0.05-0.04,0.12-0.06,0.18-0.09
		C354.43,727.18,354.37,727.12,354.37,727.12z"/>
	<path d="M373.71,505.22l-0.01-0.16c0,0,0.06,0.11,0.07,0.1C373.77,505.16,373.71,505.22,373.71,505.22z"/>
	<polygon points="947.3,288.94 947.29,288.78 947.37,288.81 	"/>
	<path d="M932.91,258.27c-0.01-0.14-0.03-0.28-0.04-0.42c0.02,0.13,0.03,0.26,0.05,0.39C932.92,258.25,932.91,258.27,932.91,258.27z
		"/>
	<polygon points="690.55,420.34 690.48,420.24 690.6,420.29 	"/>
	<path d="M783.51,385.09c0.16-0.81,0.31-1.62,0.47-2.42c0.64,1.05,0.04,1.7-0.53,2.36L783.51,385.09z"/>
	<path d="M783.45,385.03c-0.05,0.11-0.11,0.23-0.16,0.34c0.07-0.09,0.15-0.19,0.22-0.28C783.51,385.09,783.45,385.03,783.45,385.03z
		"/>
	<path d="M878.21,480.91c-0.05,0-0.1-0.01-0.16-0.01c0.03-0.01,0.07-0.03,0.1-0.04C878.15,480.85,878.21,480.91,878.21,480.91z"/>
	<path d="M328.52,410.96c0,0.35,0.01,0.7,0.01,1.05C328.52,411.66,328.52,411.31,328.52,410.96z"/>
</g>
</svg>
