<svg id="Layer_0_Image" data-name="Layer 0 Image" xmlns="http://www.w3.org/2000/svg" viewBox="0 0 1039.62 657.93"><defs><style>.cls-1{fill:#fff;}</style></defs><path class="cls-1" d="M740.4,584.85,736.57,587l-.35-.51c2.16-1.79,4.11-3.81,6.61-5.2,5.65-3.17,11.31-6.31,16.92-9.54a21.24,21.24,0,0,0,4.43-3.25c3.34-3.32,6.54-6.78,9.74-10.25a11.65,11.65,0,0,0,1.68-2.61c1.89-3.7,3.79-7.4,5.57-11.15,5.09-10.69,10.08-21.42,15.2-32.08a153.11,153.11,0,0,0,11.32-32.81,29.65,29.65,0,0,1,.85-3.24c.58-1.69,1.51-2.34,2.76-2.09s1.76,1.08,1.88,2.71c.16,2.24.3,4.47.46,6.7,0,.44.15.87.27,1.58l2.81-2.65c0,2.63-1.39,4.35-1.41,6.59,4.86-7.52,7.65-15.68,10.37-24.07a5.51,5.51,0,0,0-2.42,3.39,16.1,16.1,0,0,1-1,2.92,3,3,0,0,1-1.56,1.32,1.25,1.25,0,0,1-1.58-1.65c2.67-5.51,3-11.57,4.24-17.4.61-2.9.86-5.89,1.71-8.71,1.5-5,1.54-10.27,2.78-15.28,1.36-5.49,3.26-10.86,4.93-16.27a5.93,5.93,0,0,1,.7-1c1.1,4.08.7,7.86,1.75,11.5,4.49-12.75,10.3-25,13.07-38.52-.47.52-1,1-1.41,1.57a129.45,129.45,0,0,0-13.93,21.23c-4.31,8.29-8.31,16.74-12.47,25.12-.92,1.86-2,3.63-2.82,5.54a27.23,27.23,0,0,0-1.49,5,18.85,18.85,0,0,1-2.13,6.56c-.09-1.28-.14-2-.23-3.42-3.11,5.82-5.35,11.45-9.28,16.73a11.91,11.91,0,0,1-.2-1.48,2.37,2.37,0,0,0-.13-1.3c-.85,1-1.78,2-2.54,3.1a102.25,102.25,0,0,0-8.51,14.46,15.1,15.1,0,0,1-1.64,2.24,9.3,9.3,0,0,0-.77,1.19,22.52,22.52,0,0,0-1,2.19c-4.35,11.8-9.85,23.08-15.11,34.48-2.31,5-4.25,10.18-6.44,15.24a19.66,19.66,0,0,1-1.93,3,2.2,2.2,0,0,1-.35.33l-23.61,21.77c-.35.32-.65.69-1,1l.09-.05a9.86,9.86,0,0,1,1-2c4-4.7,8-9.36,12-14a7.52,7.52,0,0,0,1.24-2c2-5.13,4-10.26,6-15.42a29.41,29.41,0,0,1,2.58-5.33,41.59,41.59,0,0,0,3.9-8.46A89.86,89.86,0,0,0,772.77,488c.24-5.18,0-10.38-.1-15.58a11.24,11.24,0,0,1,.5-4c2.44-7.1,5-14.17,7.07-21.38,3.07-10.66,9-19.92,14-29.6,2-3.88,4.58-7.49,6.88-11.23a10.19,10.19,0,0,0,1.48-3.45,12.09,12.09,0,0,0-1,.85q-5.37,5.32-10.7,10.67a8.29,8.29,0,0,0-1.49,1.86c-7,12.69-14.31,25.16-19.87,38.56-1.32,3.17-2.66,6.35-3.76,9.6a14.08,14.08,0,0,0-.74,4.91,128.57,128.57,0,0,1-3.69,36.14c-.77,2.92-2,5.71-3,8.57-.67,1.86-1.32,3.74-2,5.6a10.09,10.09,0,0,1-.83,1.72,210.45,210.45,0,0,1-20.6,27.67,5.59,5.59,0,0,1-.77.57c.15-2.29,0-4.3.79-6.42,2.63-7.22,2.82-14.7,1.82-22.25-.17-1.35-.33-2.69-.5-4,0,0-.12-.08-.33-.23a6.48,6.48,0,0,0-.66.81q-9.93,18.63-19.84,37.25A54,54,0,0,0,710,569.11a98.17,98.17,0,0,1-3.46,11.95,39.1,39.1,0,0,0-1.64,20.22c2.71,14.86,5.8,29.63,9.61,44.24a5.12,5.12,0,0,1,.11,2.25c-1.72-1.7-2.29-3.95-3.2-6s-1.84-4.42-2.72-6.65-1.65-4.33-2.45-6.51-1.56-4.36-2.3-6.55-1.47-4.57-2.17-6.86-1.31-4.43-2.07-7a6.88,6.88,0,0,0-.69,1.38c-.79,4.24-1.57,8.48-2.3,12.74a6.3,6.3,0,0,0,.07,2.37c4.59,20.84,8.62,41.82,15.72,62,.92,2.62,2.28,5.09,3.29,7.68a17.18,17.18,0,0,1,1.06,4.82l-.83-1-.14.08.19-.07c-.54,1.66,1.12,2.53,1.46,4.41-.71-.86-1.18-1.38-1.59-1.94a16.36,16.36,0,0,0-3.6-4.11,7,7,0,0,1-1.79-2.77c-8.6-18.87-15.49-38.39-21.9-58.08-.32-1-.64-2-.89-3-.11-.45-.24-1.11,0-1.38,1.16-1.39.42-2.66,0-4a10.57,10.57,0,0,1-.37-2.81q-.66-17.61-1.27-35.22a9,9,0,0,1,.31-3.07,86,86,0,0,1,3.57-9.91,184.53,184.53,0,0,0,12.56-34.41,4.68,4.68,0,0,1,1-2.16c2.06-2,2.95-4.72,4.26-7.18.53-1,1-2,1.46-3,4.18-9.09,4.1-9.09,4.29-19.11.18-9.27.54-18.54.81-27.81a13.36,13.36,0,0,0-.27-3.4c-.22.45-.48.9-.66,1.37q-6.45,17.18-12.88,34.36c-.41,1.12-.67,2.3-1,3.45-1.78,6.19-4,12.13-8.49,17a18.21,18.21,0,0,0-4.33,9.47c-.27,1.57-.49,3.15-.78,4.72-.1.54,0,1.41-1.08,1a2.84,2.84,0,0,0-.76,1.28c-.49,1.85-.85,3.74-1.34,5.59a11.58,11.58,0,0,1-3,5.88,5.48,5.48,0,0,0-1.1,2.1c-1.86,5-3.63,10.07-5.55,15.07-1.37,3.58-2.87,7.11-4.4,10.62a7.06,7.06,0,0,1-1.94,2.41c0-1.56-1.28-2.81.19-4.6s2.19-4.24,2.92-6.51a129.36,129.36,0,0,0,5.1-19.47,4.59,4.59,0,0,1,.69-2c1.65-2.2,2.17-4.79,2.67-7.37a152.66,152.66,0,0,0,2.53-24.31c.05-1.52-.67-3-1-4.58-.26-1.14-.44-2.31-.78-3.43-1-3.37-2.19-6.69-3.1-10.09-1.68-6.17-3.26-12.36-4.78-18.57-1.43-5.82-2.72-11.67-4.09-17.5a4.61,4.61,0,0,0-.41-.87,19.93,19.93,0,0,0-.78,1.84c-2.33,8.06-4.68,16.12-6.95,24.2-.46,1.6-.63,3.29-.93,4.94a4.42,4.42,0,0,1-.18,1.18c-1.58,2.88-1.19,6.08-1.33,9.14-1,20.69-1.7,41.38-.72,62.1.16,3.27.11,6.55.15,9.83a13.83,13.83,0,0,1,0,1.44c-.11,1.6-.81,2.41-2.06,2.44s-2.08-.8-2.35-2.26c-.33-1.73-.6-3.46-.92-5.19a8.86,8.86,0,0,0-.45-1.86c-3.54-8.76-4.86-18-6.33-27.27-.82-5.21-1.52-10.44-2.27-15.67a2.51,2.51,0,0,0-.65-1.47c-.11.53-.26,1-.32,1.58a73.64,73.64,0,0,0,.61,18.16c1,7.84,1.95,15.71,2.66,23.59a32.46,32.46,0,0,0,1.62,7.89A64.31,64.31,0,0,1,649,614.32c0,.72-.11,1.43-.21,2.15,0,.21-.22.4-.55,1l-1-3.32c-1.16,6.33-2.48,12.59-1.64,19.49a10.39,10.39,0,0,1-.83-.77,7.48,7.48,0,0,1-.45-.89,8.24,8.24,0,0,0-.52,1.4q-.92,6.18-1.79,12.34c-.76,5.27-2.67,10.19-4.37,15.18-.61,1.81-1,3.69-1.48,5.54-.34,1.38-.63,2.78-1,4.58-.53-.86-.82-1.34-1.32-2.14a32.17,32.17,0,0,0,0,8.2,33.52,33.52,0,0,1,0,5,38.66,38.66,0,0,0,1.54,13.76c1.39,5,3.38,9.79,5.19,14.65,1.06,2.84,2.29,5.62,3.41,8.45a3.57,3.57,0,0,1,.06,1.14l.05,0c-2.86-4.13-5.81-8.21-8.57-12.41-2.58-3.93-4.83-8.09-7.45-12a18.67,18.67,0,0,1-3.34-11.76c.34-5.65.65-11.33,1.51-16.92,1.36-8.82,3.16-17.58,4.77-26.37l0,0a19.56,19.56,0,0,0-1.47,2.59q-6.09,15.65-12.11,31.31a22,22,0,0,1-1.17,2.62,1.11,1.11,0,0,1-1,.49c-.27,0-.57-.49-.67-.82a3.67,3.67,0,0,1,0-1.19c1.52-15.38,3.76-30.64,8.11-45.5,2.63-9,5.56-17.86,8.44-26.76a34.51,34.51,0,0,0,1.38-12,70.21,70.21,0,0,0-5.33-24c-2-5-2.36-10.11-2.56-15.29-.27-7.19-.31-14.39-.43-21.59,0-2.18-.2-4.2-1.73-6.06a7.57,7.57,0,0,1-1.29-4c-.4-5.09-.67-10.2-.87-15.31a20.57,20.57,0,0,0-.92-5.39c-1.69-5.58-3.22-11.2-5-17.26-.12,1.21-.29,2.07-.28,2.93,0,8.87-.06,17.74.14,26.61a165.92,165.92,0,0,0,2,23.65c.12.71.27,1.41.41,2.12a2,2,0,0,1-1,2.45,2.19,2.19,0,0,1-2.84-.51,6.86,6.86,0,0,1-1.38-2.73c-.62-2.8-1.19-5.63-1.53-8.49-1.66-14-3.55-28.08-4.76-42.17-.92-10.74-.95-21.56-1.37-32.34a9.47,9.47,0,0,0-.34-2.76,6.34,6.34,0,0,0-.55,1.26c-.84,4-1.67,8-2.46,12a14.45,14.45,0,0,0-.26,2.62c-.16,10.64-.26,21.27-.45,31.9-.2,11.6-.25,23.2.66,34.77a129.24,129.24,0,0,0,2,13.26c1.53,8.34,3.13,16.66,4.85,25a61.23,61.23,0,0,0,2.37,7.52c1.37,3.93,2.88,7.8,4.22,11.73a71.34,71.34,0,0,0,5.81,12.88c1.32,2.28,2.56,4.61,3.8,6.94.36.66,1,1.32.21,2.42-2.41-1.38-3.64-3.91-5.5-5.72s-3.06-4.42-4.9-6.66c.06,1,.09,2.1.19,3.15a8.11,8.11,0,0,1-1.33,5.45,21.66,21.66,0,0,0-2,4.35c-1.5,4.13-2.92,8.3-4.38,12.44a7.24,7.24,0,0,1-1.25,2.37c.09-1.6.24-3.21.27-4.81A91.72,91.72,0,0,0,602.31,602q-2.71-12-5.29-24.13a27.71,27.71,0,0,1-.21-3.3,16.3,16.3,0,0,0-.35-3.06c-2-7.49-4.2-14.93-6.09-22.46-3.08-12.33-6.18-24.66-8.86-37.08-1-4.89-1.07-10-1.46-15-.3-4-.34-8-.68-12-.64-7.46.3-14.85.82-22.26.37-5.19.82-10.37,1.18-15.55.06-.87.43-1.92-.7-2.7a4,4,0,0,0-.63,1,91.8,91.8,0,0,0-3,16.7c-.57,5.65-1.37,11.27-2.07,16.91a3.87,3.87,0,0,1-.7,1.95q-3.75-11.34-7.51-22.69a24.28,24.28,0,0,0-1.7,8.38c-.16,6.8-.47,13.61-.21,20.39.56,14.3,1.19,28.61,2.29,42.87.78,10.21,3,20.23,5.31,30.21,2.62,11.41,6.57,22.4,10,33.55.62,2,1.55,3.85,2.35,5.77.33.78.56,1.57-.34,2.11a1.72,1.72,0,0,1-2.36-.49,11.81,11.81,0,0,1-1.6-2.38c-1.8-3.74-3.6-7.49-5.29-11.28-2.12-4.75-4.12-9.54-6.19-14.31a4.32,4.32,0,0,0-.94-1.65c-2.42-2-3.25-4.89-4.08-7.73-.92-3.14-1.68-6.33-3.64-9.06a4.86,4.86,0,0,1-.5-1.83,18.69,18.69,0,0,0-4.73-9.29c-4.82-5-7.53-11-9.57-17.51a27.55,27.55,0,0,0-2.81-6.47c0,1,0,1.54,0,2.06q1.56,18.52,3.13,37a2.78,2.78,0,0,1,0,1.18c-.2.47-.56,1.15-.93,1.2a1.88,1.88,0,0,1-1.6-.59,8.14,8.14,0,0,1-.84-2.72,21.76,21.76,0,0,0-1.82-5.91c-1.88-4-2.44-8.44-3-12.81-1-8.73-1.85-17.49-2.93-26.22-.76-6.1-1.81-12.17-2.75-18.26a4.63,4.63,0,0,0-1.06-2.4,7.45,7.45,0,0,0-.17,1.22c.19,10.87.65,21.75.54,32.62-.13,12.38,2.13,24.32,5.62,36.09.86,2.91,1.72,5.83,2.82,8.66a39.67,39.67,0,0,0,7.86,12.77c3.42,3.68,6.52,7.67,9.62,11.63a19.17,19.17,0,0,1,4,10.86c.2,3,.45,6.06.8,9.07.19,1.58.63,3.12,1,4.67.48,2.26,1.36,4.51,1.41,6.77.27,13,2.6,25.59,5.9,38.06a196.31,196.31,0,0,0,15.84,41.83c1.67,3.18,3.56,6.25,5.35,9.37a2.73,2.73,0,0,1,.46,1.84c-.48-.65-1-1.31-1.42-2-10.55-15.12-17.57-31.86-22.73-49.45a6.58,6.58,0,0,0-1.62-3.39,4,4,0,0,1-.83-2.2c-.68-4.09-1.31-8.19-1.93-12.3q-.78-5.09-1.48-10.2c-.17-1.26-.21-2.55-.42-3.81-.35-2.19-.77-4.38-1.19-6.57-.48-2.51-1.13-5-1.47-7.53a27.63,27.63,0,0,0-3.76-10.29,30.17,30.17,0,0,1-2.7-6.37,16.84,16.84,0,0,0-2.85-5.78c.16,1.39.26,2.23.36,3.07l-.38.2c-.75-1.16-1.45-2.36-2.28-3.45a10.43,10.43,0,0,0-1.69-1.48c.05-.1.09-.2.13-.29l-.19.26c.42.86.83,1.72,1.25,2.59h0a51.74,51.74,0,0,1-3.34-5.43c-3.37-7.35-8.15-13.73-13.38-19.8-1.86-2.17-4.1-4-6.15-6-.75-.72-1.91-1.08-1.84-2.53,0-.45-.78-.94-1.22-1.41-3.14-3.29-6.41-6.48-9.42-9.91-9.53-10.87-19.17-21.68-26.92-34-1.4-2.23-2.75-4.5-4.05-6.79A9.85,9.85,0,0,1,479,507.5a3.73,3.73,0,0,0-.3-1.63c-1.77-3.83-3.59-7.64-5.64-12-.67,3.3-2.07,5.74-1,9,3.71,11.24,7.16,22.56,11.92,33.41,1,2.34,2.17,4.63,3.31,6.92a6.05,6.05,0,0,0,1,1.33c3.35,3.65,6.68,7.32,10.08,10.92q6,6.38,12.12,12.64a61.61,61.61,0,0,0,10,8.24,19.59,19.59,0,0,1,2,2c1.39,1.29,2.83,2.55,4.26,3.82.53.47,1.14.87,1.65,1.38a.92.92,0,0,1,.22.84,1.27,1.27,0,0,1-.9.61,6.6,6.6,0,0,1-1.82-.51,5.75,5.75,0,0,1-1.25-.71c-7.07-5.19-14.5-9.92-20.57-16.39a41.14,41.14,0,0,0-4.44-3.64c-.19-.15-.39-.38-.6-.39-3-.18-4.4-2.62-6.29-4.37a5.34,5.34,0,0,0-.56-.41c-2.32.52-2.35.55-4.29-1.08a20.5,20.5,0,0,1-2.9-2.84c-4.15-5.17-8.41-10.28-12.31-15.63a195.89,195.89,0,0,1-16-25.33c-.59-1.14-1.31-2.2-1.9-3.33-.35-.66-.52-1.42.23-1.93s1.36-.07,1.86.52c1.8,2.14,3.59,4.29,5.41,6.42.47.56,1,1.07,1.53,1.6l.39-.3c-.15-.42-.27-.86-.46-1.26q-7.28-15.53-14.58-31.05a110.22,110.22,0,0,0-11.11-18.74,9.86,9.86,0,0,0-.72-.95c-5.88-6.22-8.91-13.94-11.52-21.87a8.56,8.56,0,0,0-1.25-2.66v3.74a13.41,13.41,0,0,1-2.95-5.95c-1-5.43-1.94-10.87-3.28-16.21a32.68,32.68,0,0,0-3.29-7.39c-2.79-5.13-5.55-10.28-8.67-15.2-2.87-4.51-6.17-8.74-9.3-13.08-.44-.61-1-1.13-1.85-2.09a288.24,288.24,0,0,0,21.08,65.36c.2-2.35.34-4.22.52-6.08s0-3.62.93-5.68c.49.77.78,1.19,1,1.64s.42,1.32.87,1.69c1.88,1.51,2,3.72,2.43,5.78,1.14,5.8,2.11,11.64,3.3,17.43.84,4.14,2,8.22,2.92,12.33,1,4.36,1.89,8.75,3,13.09.46,1.84,1.34,3.57,1.94,5.38a2.15,2.15,0,0,1,0,1.68,1.36,1.36,0,0,1-2.13,0,15.18,15.18,0,0,1-1.64-2.86c-.62-1.2-1.17-2.42-1.81-3.61-.12-.22-.5-.29-.76-.43,0-.12,0-.24,0-.36l-.25.11.29.21a4.39,4.39,0,0,0,.14,1.16c2.41,6,4.37,12.18,7.89,17.69.89,1.4,1.66,2.89,2.48,4.33l.49-.2c-.61-1.7-1.22-3.41-1.88-5.23,1.63-.42,1.87,1.37,3.25,1.74.13-2.26.26-4.38.38-6.5.05-.79,0-1.6.12-2.38a2,2,0,0,1,1.69-1.8,1.93,1.93,0,0,1,2.27.94,23.1,23.1,0,0,1,1.38,3.55c1.65,5.17,3.11,10.4,4.93,15.51A85.63,85.63,0,0,0,454.88,530c8.18,15.54,16.31,31.13,24.93,46.43,4.95,8.8,12.48,15.26,21.52,19.85,4.13,2.09,8.34,4,11.8,7.22a33.63,33.63,0,0,0,4.59,3c.48.32.93.71.33,1.33l.05,0a25.09,25.09,0,0,0,2.23,1.77c4.74,3,9.51,5.87,14.27,8.81,1.63,1,3.29,2,4.87,3.06a18.35,18.35,0,0,1,2,1.91,2.09,2.09,0,0,1-2.77.51c-5.39-2.44-10.92-4.59-16.11-7.37-6.61-3.55-12.94-7.62-19.4-11.45a8.66,8.66,0,0,0-1.5-.73c-7.72-2.74-14.73-7-22-10.69-.85-.44-1.56-1.13-2.38-1.62-1.07-.64-2.19-1.19-3.46-1.88a3.63,3.63,0,0,0,.46,3,27.84,27.84,0,0,1,2.33,4.42c5.07,13.28,10,26.61,15.13,39.89a91.23,91.23,0,0,1,4.13,14c1.3,6.25,3.19,12.37,4.8,18.56,2.16,8.27,4.24,16.56,7.58,24.47.15.37.42.8.34,1.13-.62,2.61,1.22,4.26,2.19,6.34l1.44-.57-.05,0c-.42,2.1-1.42,2.62-3,1.5-1.07-.75-1.79-2-3.44-1.81-.33,0-.92-1.19-1.16-1.91-2.14-6.53-4.44-13-6.29-19.63a254.39,254.39,0,0,0-10.65-29.51q-2.36-5.64-4.76-11.26c-.33-.78-.76-1.52-1.22-2.44-.67.45-1.13.74-1.56,1.06-5.48,4-10.95,8.05-16.45,12q-15.63,11.31-31.31,22.57a11.25,11.25,0,0,0-3.15,3.54c-6.15,10.47-12.24,21-18.58,31.35-3.87,6.33-8.14,12.42-12.26,18.6a22.64,22.64,0,0,1-1.55,1.89,5,5,0,0,1-.45-.28.86.86,0,0,1-.13-.2.64.64,0,0,1,0-.24,2.3,2.3,0,0,1,.12-.45q.21-.57.45-1.11,8.14-18.93,16.28-37.86s0-.13-.2-.48l-2.05,1.51C400,696,389.23,704,378.25,711.75c-4.49,3.16-9.43,5.69-14.07,8.65-2.55,1.63-4.9,3.57-7.38,5.33a26.34,26.34,0,0,1-2.43,1.39l.06.06c.62-.6,1.2-1.26,1.88-1.8,5.38-4.25,10.7-8.58,16.19-12.68,11.13-8.3,21.75-17.23,32.29-26.24.54-.46,1.14-.86,1.7-1.28l-.06-.11v.17c-1.23-.39-1.94.58-2.74,1.13-9.7,6.61-19.4,13.21-29,19.91-6.62,4.61-13.12,9.38-19.7,14a15.81,15.81,0,0,1-2.05,1l.06,0c1.41-1.15,2.79-2.36,4.25-3.45,18.93-14.23,38.19-28,58-40.92,2.62-1.72,4.77-3.64,6-6.6.69-1.7,1.71-3.25,2.55-4.89a50.55,50.55,0,0,0,4.79-13.49c1.67-8.71,3.8-17.33,5.73-26,.19-.85.32-1.71.51-2.76-.84-.42-1.58-.86-2.37-1.18-5.42-2.17-10.88-4.22-16.25-6.5-2.49-1.06-4.77-2.6-7.2-3.81-7.45-3.7-15-7.28-21.94-11.83-4.69-3.06-9.28-6.27-13.89-9.43-3.29-2.26-6.56-4.56-9.82-6.86-1-.68-2-1.29-1.94-2.79,0-.39-.43-.82-.7-1.21L342.18,552c-.18-.26-.37-.51-.52-.72-.24,0-.41-.13-.54-.09-3.73,1.2-4,1.51-3.33,5.44a58.77,58.77,0,0,0,4.83,14.77c2.6,5.67,5.1,11.38,7.82,17a33.67,33.67,0,0,0,3.56,5.08q3.86,5.17,7.8,10.29c1,1.25,2.06,2.38,3.44,4a16,16,0,0,1-2-.35c-4-1.31-7.06-4-10-6.83-1.21-1.16-2.47-2.26-3.75-3.34a7.57,7.57,0,0,0-1.51-.7c-.06,1.1-.16,2-.15,2.8.19,10.31.42,20.62.58,30.93.24,15.11.39,30.22.67,45.33.07,3.83.55,7.66.75,11.49.18,3.43.29,6.87.29,10.3a4.66,4.66,0,0,1-.86,2.63c-.91,1.21-2.14,1.07-2.86-.26a9,9,0,0,1-.84-2.71,28.65,28.65,0,0,1-.23-3c-2-.65-2.07-.65-2.15-2.81-.23-6.31-.38-12.63-.62-18.94-.1-2.47-.32-5-.57-7.41a10.82,10.82,0,0,0-.69-2.23c-.08-.22-.36-.41-.35-.61.28-4.75-1.22-9.26-1.94-13.87-1.51-9.58-2.24-19.21-2.83-28.87q-.72-11.49-2-22.93a62.68,62.68,0,0,0-2.08-9.1c-.4-1.53-.87-3-2.39-4-.66-.42-1-1.43-1.35-2.21s-.66-1.6-1-2.54a13.81,13.81,0,0,0-1.89.36c-6.09,2-12.14,4-18.25,5.91-9.63,2.93-19.29,5.8-29,8.54-11.52,3.26-22.37,8.09-33,13.49a11.13,11.13,0,0,0-2.57,1.7Q227.82,622.25,213,636.13c-8.76,8.23-16.39,17.5-24.42,26.41-10.59,11.77-21.41,23.33-32.06,35-4.73,5.21-9.26,10.6-13.95,15.84-3.42,3.81-7,7.44-10.42,11.27-7,7.89-16.39,11.7-25.85,15.44a13.77,13.77,0,0,1-2.32.56,1.52,1.52,0,0,1-1.24-.19l1.08-.51c3.86-1.91,7.73-3.8,11.57-5.76a8.23,8.23,0,0,0,1.85-1.5c4.07-3.85,8.11-7.72,12.17-11.58A189.17,189.17,0,0,0,145,704.21c10.39-12.57,21.08-24.89,31.7-37.28,13.37-15.61,26.51-31.41,39-47.75,2.71-3.55,5.13-7.38,8.21-10.56,2.48-2.57,4.91-5.44,8.78-6.43a24.06,24.06,0,0,0,6.23-3c6.77-4.09,13.48-8.3,20.21-12.46,1.43-.88,2.84-1.78,4.29-2.64s3.05-1.54,3.11-3.78c0-1.29,1.15-2.15,2.57-2.5a3.79,3.79,0,0,0,1.9-1.24,28.22,28.22,0,0,1,7.76-7,10.53,10.53,0,0,0,4.14-5.45,48.24,48.24,0,0,0,2.89-12.83c.95-8.51-.56-16.72-3-24.82-.14-.45-.29-.91-.45-1.36-1.43-4.28-1.43-4.28-5.83-5.1-.31-.06-.64,0-1-.09-2.24-.32-2.89-1.94-1.46-3.72a10.74,10.74,0,0,1,1.43-1.26l1.38-1.13a21.39,21.39,0,0,0-1-2.2c-2.7-4.54-5.24-9.18-8.2-13.53a105.65,105.65,0,0,0-7.24-8.63,32.89,32.89,0,0,1-2.3-2.73,12.59,12.59,0,0,0-6.21-4.69c-9.46-3.69-18.95-7.28-28.34-11.14a74.84,74.84,0,0,0-11.29-3.15c-11.26-2.76-22.51-5.51-33.75-8.35-2.31-.58-4.53-1.5-6.79-2.26l0-.48a5.16,5.16,0,0,1,1.45-.13c5.8,1.14,11.63,2.16,17.39,3.5,16.2,3.8,32.55,6.79,49,9.56,2.12.36,4.23.87,6.32,1.4,3,.75,3,.78,4.68-2h0a2.65,2.65,0,0,0,.66-3.44,26.79,26.79,0,0,1-1-2.93c-5.71-16.85-12.23-33.42-16.83-50.64-.86-3.23-2-6.38-3-9.57a15.38,15.38,0,0,1-.32-1.71c.68.37,1.2.47,1.37.77a16.57,16.57,0,0,1,1.58,3.22c3.61,11.38,9.06,22,14.09,32.76,4.62,9.91,9.72,19.61,14.65,29.37a58.24,58.24,0,0,0,3.1,5.13,9.31,9.31,0,0,0,3.87,3.38c1.54.77,2.64,2.42,3.93,3.67l.08-.09-.15.05a4.12,4.12,0,0,0-.16-1.56,47,47,0,0,0-2.71-4.52,19.93,19.93,0,0,1-2.8-6.57c-1.62-6.09-3.23-12.2-5.05-18.24-1.55-5.12-3.36-10.17-5.09-15.24-3.13-9.16-7.08-18-11-26.82-3.3-7.36-6.25-14.88-9.44-22.3-1.1-2.56-2.46-5-3.64-7.55a6.06,6.06,0,0,1-.84-4,8.53,8.53,0,0,1,1.34,1,21.3,21.3,0,0,1,1.77,2.27c10.09,15.2,18.7,31.1,23.24,48.94a22.45,22.45,0,0,0,2,5.11q8.6,15.8,17.33,31.52c3.21,5.81,6.38,11.64,10.46,16.91a6.35,6.35,0,0,1,1.18,2.08c.66,2.41,2.33,4.13,3.83,6,2.48,3,5.06,6,7.35,9.17,2,2.77,4.73,4.43,7.74,6a8.56,8.56,0,0,0-.58-1c-.87-1.18-2.15-2.05-2.13-3.84,0-.57-.95-1.21-1.55-1.71-.94-.78-1.91-1.4-1.21-2.95.25-.58-.2-1.47-.39-2.56a27.22,27.22,0,0,0,3.32,2,26.55,26.55,0,0,0,3.71.95,26.55,26.55,0,0,0,1-3.48c.29-2,.46-4,.56-6,.17-3.68.2-7.36.39-11a28,28,0,0,0-.93-8.77,20.87,20.87,0,0,1-.37-4.95c0-.47.42-.94.88-1.91L315,463l.43-.22c-1.13-3.22-1.93-6.59-3.45-9.61a56,56,0,0,1-5-16.67,13.86,13.86,0,0,0-1-3.79,11.25,11.25,0,0,0-.27,1.71c-.07,6.07-.16,12.15-.13,18.22a18.37,18.37,0,0,0,.73,3.58c-.56.78-1.28.58-1.79-.21a8.87,8.87,0,0,1-1.34-2.79c-.58-2.56-1.08-5.15-1.42-7.76-.47-3.56-.58-7.19-1.2-10.72a39.25,39.25,0,0,0-2.28-7.52c-2.44-6.16-5-12.27-7.59-18.38a4,4,0,0,0-.87-1.42c-2.64-2.44-4.29-5.56-6-8.61a27,27,0,0,0-8.49-9,6.39,6.39,0,0,1-3.08-6.3,6.93,6.93,0,0,0-.17-2.36q-3.81-14-7.69-28a10.16,10.16,0,0,0-.48-1.06c-.47,1.38-.82,2.44-1.18,3.5a20.84,20.84,0,0,0-1.2,7.52c.14,4.8.1,9.59.17,14.39a21.33,21.33,0,0,0,.24,3.58,3.59,3.59,0,0,1-.76,2.71c-1.56-1.32-1.52-2.95-1.63-4.51q-.53-6.82-1-13.63a7.47,7.47,0,0,0-.12-.95c-2-9.25-.91-18.46.36-27.66a11.93,11.93,0,0,0-.23-4.72c-4.58-18.3-9.08-36.62-13.66-54.91-1.17-4.65-2.58-9.24-3.86-13.86a19.3,19.3,0,0,1-.55-2.57c0-.31.26-.65.64-1.47l1.69,3.65.31-.08.17-2.53-.1,0c.59,2.73,1.17,5.46,1.78,8.18.25,1.09.52,2.17.85,3.24,2.81,9.25,5.61,18.5,8.47,27.73,1.16,3.74,2.48,7.43,3.74,11.14a9.47,9.47,0,0,0,.71,1.18c.18-2,.29-3.42.46-4.88,1-8,2.85-15.71,4.61-23.51a187.94,187.94,0,0,0,3.1-19.62,21.34,21.34,0,0,0-3-12.9q-4.19-7.55-8.37-15.09a5.93,5.93,0,0,0-.45-.64c-.92.27-1.76.5-2.58.76-5.63,1.83-11.2,3.84-16.88,5.46-12.22,3.47-24.52,6.67-36.74,10.13-10.08,2.86-20.09,5.9-30.12,8.92a35.69,35.69,0,0,0-3.85,1.85c-1.15.51-2.36,1.34-3.52,1.3-2.91-.11-5.46,1-8.14,1.78a5,5,0,0,1-.9.31c-.67,0-1.49.24-2-.06-.76-.44-.38-1.26-.07-1.93a2.39,2.39,0,0,0,.06-.59c-1.44-.71-2.95-1.41-4.41-2.2a16.37,16.37,0,0,1-2.58-1.73,2.44,2.44,0,0,1-.92-2.78,2.36,2.36,0,0,1,2.43-1.59,14.58,14.58,0,0,1,3.1.23,21.62,21.62,0,0,1,4.37,1.23,2.91,2.91,0,0,0,3.94-1.05,25.28,25.28,0,0,1,2.78-3,19.46,19.46,0,0,1,3.06-2.28,5,5,0,0,1,4.83-.39,3.85,3.85,0,0,0,3.22,0c2.48-.9,5-1.78,7.46-2.61a19.35,19.35,0,0,1,3.24-.86c3.6-.57,5.13,1.07,4.24,4.66.66-.22,1.25-.39,1.82-.62,35.16-14.15,70-29,103.73-46.36,3.84-2,7.58-4.14,11.38-6.18,10-5.4,19.11-12.22,27.92-19.4,1.58-1.28,2.53-1.52,3.35-.75s.61,1.76-.63,3.35q-17,21.58-33.88,43.22a6.3,6.3,0,0,0-1.22,2.79c-.59,4-1,8.08-1.53,12.12a3.24,3.24,0,0,0,.19.89c.65-.57,1.19-1,1.67-1.47,2.75-2.79,5.5-5.58,8.22-8.4a58.66,58.66,0,0,1,4.24-4.52c4.28-3.59,8.68-7,13.05-10.5,3-2.4,6-4.78,8-8.18a4.7,4.7,0,0,1,3.43-2.37c2.88-.44,4.82-2.61,7.12-4.09a51.18,51.18,0,0,0,4.56-3.51,4.3,4.3,0,0,0,1.28-1.38c1.25-2.83,3.88-4.37,6-6.88.11.79.16,1.16.21,1.53l-.64.84a.3.3,0,0,1,.08.08l-.15-.11.64-.87c.92-2.77.92-2.77,2.82-3.94-.13.95-.23,1.78-.35,2.7,3.3-1.44,20.89-16.55,25.65-22.07-.94.45-1.45.65-1.91.93L337,194.3l-.2.14c-.83.49-1.76,1.18-2.49,0s.16-1.81.92-2.41c2.13-1.69,4.23-3.42,6.44-5q18.44-13.18,36.93-26.28c7.19-5.06,14.47-10,21.75-14.93a57.67,57.67,0,0,1,6.57-3.94c2.39-1.19,3.38-.59,3.62,2.09a6.59,6.59,0,0,1-.54,3.44,90.69,90.69,0,0,1-5,8.71c-4.71,7.05-9.54,14-14.37,21s-9.59,13.79-14.43,20.65a12.71,12.71,0,0,0-2.28,5.21c-.82,4.72-1.72,9.43-2.58,14.15a10.62,10.62,0,0,0,.49,6.13,6.53,6.53,0,0,1,.35,1.14c3,13.12,7.34,25.83,11.2,38.69a262.17,262.17,0,0,1,8.51,41.53c.25,2,.57,3.95.84,5.93,0,.14-.1.29-.16.46-.81.36-1.22-.19-1.46-.77a26.92,26.92,0,0,1-1-3,462.92,462.92,0,0,0-18.8-53.34c-3.36-7.85-6.07-16-9.08-24-.33-.89-.69-1.77-1.21-3.13-.39.92-.65,1.43-.81,2a105.6,105.6,0,0,0-4.24,26.94c-.31,8.06-.34,16.14-.58,24.21-.06,2.06-.53,4.1-.68,6.16a8.6,8.6,0,0,0,.33,2.8c2.68,9.62,5.33,19.26,8.15,28.84,3.71,12.57,7.56,25.1,11.38,37.64a12.91,12.91,0,0,0,1.19,2.18c0,.23,0,.46-.07.69h.2l-.16-.66c-1.06-6.87-2.28-13.73-3.14-20.63-1.36-10.94-2.49-21.92-3.7-32.89q-.9-8.22-1.7-16.46c-.16-1.67-.21-3.35-.21-5a2.22,2.22,0,0,1,1.54-2.46,17.15,17.15,0,0,1,.92,2.34,15,15,0,0,0,2.5,6.15,8,8,0,0,1,1.18,3.11c2.61,10.72,5.23,21.43,7.75,32.17q4.41,18.8,8.64,37.63A42.09,42.09,0,0,0,394,372.29a4.23,4.23,0,0,0,1.25,1.41c7.41,5.25,12.72,12.3,17.27,20,.39.67.84,1.29,1.26,1.94l.49-.14c-.19-1.36-.33-2.74-.58-4.08-1.43-7.54-2.92-15.07-4.32-22.61q-5.79-31-11.5-62a65.2,65.2,0,0,1-1.44-11.16c0-3.51-.94-6.72-1.7-10-.2-.87-.71-1.85.57-2.83a8.59,8.59,0,0,1,1.48,2c.6,1.71.94,3.51,1.46,5.26,3.59,11.94,7.26,23.86,10.77,35.83,2.27,7.74,4.32,15.55,6.47,23.33a1.81,1.81,0,0,0,.82,1.12c.17-1.59.37-3.17.5-4.77.2-2.46.35-4.93.53-7.39.2-2.79.61-5.58.57-8.36-.23-13.27-.59-26.53-.86-39.8-.12-5.76-.07-11.52-.23-17.27-.21-8-.58-16-.82-24-.21-6.64-.32-13.27-.51-19.91-.14-4.78.15-9.59-.8-14.34a6.49,6.49,0,0,1,1-4.65c.37,2,.6,3.53.94,5,.21.9.63,1.75.9,2.63a8,8,0,0,1,.33,1.6c1.85,22.39,4,44.76,6.69,67.06.55,4.45,1.23,8.87,1.88,13.3a16,16,0,0,0,.61,2c.43-1.27.71-2,.92-2.74,1.4-4.76,3-9.46,4.11-14.29,1.23-5.44,3.23-10.64,4.41-16.09s3-10.81,4.12-16.28a125.5,125.5,0,0,0,2.2-14.44,108.5,108.5,0,0,1,3.58-20.5c.05-.16.07-.32.12-.47.19-.68.24-1.61,1.24-1.42s.76,1.12.71,1.8c-.34,4.86-.6,9.73-1.11,14.58-1.34,12.64-2.92,25.26-2.65,38a16,16,0,0,0,.69,4.22c1.14,3.82,2.44,7.61,3.66,11.41a26.5,26.5,0,0,0,5.74,9.86,15.4,15.4,0,0,1,1.88,3.38c0-3.76,0-7.84,0-11.92s0-8.32.29-12.47a81.63,81.63,0,0,1,1.4-12.12c.87-4,.22-8.23,2.2-11.94h.56a4.88,4.88,0,0,1,.42,1.42c0,2.08-.08,4.16-.21,6.24a287.67,287.67,0,0,0,.24,36.2,37.24,37.24,0,0,0,4.69,16.48c4.3,7.33,9.33,14.23,16.72,18.84,5,3.08,10.13,5.79,15.21,8.66a4.65,4.65,0,0,0,.9.22,12.4,12.4,0,0,0,.07-1.57c-.23-2.79-.67-5.57-.7-8.36a51,51,0,0,0-1.54-10.64c-3.1-13.64-6-27.33-9.07-41-1.13-5-2.65-9.88-4-14.82a12.65,12.65,0,0,1-.49-2.34,6,6,0,0,1,.53-1.74A7.75,7.75,0,0,1,485,259a64.8,64.8,0,0,1,4.33,11.4c2.49,10.26,5.08,20.49,7.64,30.73.22.89.49,1.78.74,2.67l.48,0c.05-.82.11-1.64.13-2.46.28-10.07.53-20.14.82-30.21.21-7.14,1.51-14.15,2.72-21.16.89-5.2,1.9-10.38,1.39-15.72-.17-1.83.3-2.18,2.76-2.72a104.5,104.5,0,0,1,4.84-11.35l.48.12a12.62,12.62,0,0,1,0,1.74c-1.19,8.79-2.41,17.58-3.6,26.38a28.61,28.61,0,0,0-.37,3.57c-.27,12.71-.54,25.42-.72,38.14-.06,4.31.11,8.63.2,12.94a3,3,0,0,0,.54,1.69c.15-.72.36-1.42.45-2.14,1.22-10.41,2.35-20.82,3.67-31.21a56.82,56.82,0,0,1,2-7.83,1.51,1.51,0,0,1,1.88-1.11,2.32,2.32,0,0,1,1.38,1.38,22.25,22.25,0,0,1,.88,5.29c0,7.83.24,15.66.21,23.49s-.24,15.52-.47,23.27a103.38,103.38,0,0,0,3.3,28c2.11,8.54,4.31,17.05,6.49,25.57.18.73.49,1.43.86,2.5a10.63,10.63,0,0,0,.77-1.29c3.73-9.63,7.32-19.31,8.75-29.6.77-5.54,1.15-11.13,1.57-16.71.39-5.26.58-10.54.89-15.81a113.63,113.63,0,0,0-2-27.91q-3.4-17.79-6.74-35.59a34.33,34.33,0,0,1-.59-4,11.19,11.19,0,0,1,.39-2.39,6.9,6.9,0,0,1,2.85,4.44c1,4.37,1.9,8.75,2.84,13.13.26,1.24.49,2.49.75,3.76.76-.22,1.57-.73,2-.5a3.57,3.57,0,0,1,1.34,1.84c.51,1.43.82,2.92,1.24,4.38.15.5.4,1,.81,2,.61-2.79,1.12-5,1.6-7.29,4.52-21.2,9.47-42.29,15.29-63.17a62.09,62.09,0,0,1,5.3-14.11,8.1,8.1,0,0,0,.6-2.05c.44-1.87.84-3.75,1.31-5.61.18-.74.36-1.54,1.15-1.89.22.17.45.28.44.35-.74,4.14-1.51,8.28-2.26,12.42q-3.6,20-7.19,39.89c-2.56,14.33-4.73,28.71-6.17,43.2-1,10-.43,19.94-.09,29.91.14,4.07.47,8.14.81,12.21a49.22,49.22,0,0,0,.87,6.4,265.78,265.78,0,0,0,9.64,34.39,38.17,38.17,0,0,0,3.59,7.28A86.14,86.14,0,0,0,585.31,380a16.25,16.25,0,0,0,5,3.31c2.84-13.73,2.51-27.39.77-41.13-.16.91-.36,1.83-.46,2.75-.71,6-1.39,12.08-2.08,18.12a5.53,5.53,0,0,1-.28,1.64c-.19.44-.64,1-1,1.07A1.57,1.57,0,0,1,586,365a8.88,8.88,0,0,1-.39-2.81c.08-4.24.22-8.48.37-12.71.52-14.39.82-28.77.33-43.17-.21-6-1.34-11.75-2.24-17.59-1.74-2.65-.89-5.64-1-8.47a70.73,70.73,0,0,1,.4-8.6c.67-7.73,1.41-15.44,2.15-23.16a33.81,33.81,0,0,1,.64-4c.76-3.44,1.58-6.86,2.38-10.28a3.32,3.32,0,0,1,.86-1.71c.07,2.58.22,5.17.21,7.75,0,12.08-.13,24.15-.06,36.22a85.6,85.6,0,0,0,.89,9.29c.05.47.49.89.75,1.34.43-.29,1-.49,1.24-.89a10.35,10.35,0,0,0,.93-2.71c1.34-6.82,2.61-13.65,4-20.47,1.57-7.92,3.34-15.81,4.77-23.75,1.09-6.06,1.73-12.19,2.69-18.27.56-3.55,1.53-7,2-10.59.62-4.75.95-9.55,1.39-14.32.3-3.26.57-6.53.88-9.79.15-1.58.52-3.17-.19-4.72a2.48,2.48,0,0,1-.11-.95,109.54,109.54,0,0,1,.38-11.39,7,7,0,0,1,.57,1.25c1.09,4.84,2.12,9.68,3.23,14.51a31.18,31.18,0,0,0,1.35,4.6,10.59,10.59,0,0,1,.58,5.4,481.2,481.2,0,0,0-3.2,49.77c0,1.91-.31,3.82-.4,5.74-.06,1.18,0,2.38,0,3.57,0,2.63.07,5.28-.14,7.9-.57,6.94-.75,13.87-.69,20.84.07,8.39-.45,16.79-.56,25.18-.13,10.56-.09,21.11-.14,31.67a27.55,27.55,0,0,0,1.11,7.31c2,7.56,3.94,15.17,5.89,22.75.21.85.46,1.7.72,2.64l1.31-.15a1.92,1.92,0,0,1,.23.45c.93,5.35,2,10.69,2.73,16.07,1.07,7.84,1.86,15.71,2.8,23.57.15,1.25.55,2.48.67,3.74a7.48,7.48,0,0,1-.15,3,212.1,212.1,0,0,0-7.51,26.27,19.94,19.94,0,0,0,.47,9c1.23,4.72,2.77,9.35,4.19,14a5.4,5.4,0,0,0,.7,1.07c.56-3.33,1-6.31,1.59-9.24,2.11-9.56,2.47-19.34,3.83-29,.32-2.29.62-4.59.87-6.9a7.63,7.63,0,0,1,1.55-4.18,5.65,5.65,0,0,0,.85-2.92q.66-7.29,1.16-14.58c.13-1.91.51-3.92.1-5.73-2.5-11.25-2.82-22.82-5.13-34.1a49.75,49.75,0,0,0-3.9-11.81,8.22,8.22,0,0,1-.73-2c-1.15-5.88-2.25-11.78-3.39-17.66a65.58,65.58,0,0,1-1.08-14.8c.1-3,.16-5.92,0-8.87-.8-22.47-.49-44.94.36-67.4a13.83,13.83,0,0,0,0-1.44,19.42,19.42,0,0,1,.35-7.54c.7-2.33.44-4.92.72-7.38.59-5.09,1.27-10.16,1.87-15.24.24-2,.34-4,.55-6a32,32,0,0,1,.61-4c.1-.41.72-.69,1.09-1,.23.45.67.9.66,1.35-.07,3.26-.22,6.51-.34,9.77a3.05,3.05,0,0,0,.28.67c.26-1.08.51-1.9.63-2.73,1.55-10.12,3.18-20.21,4.56-30.35.85-6.26,1.33-12.58.26-18.88a27,27,0,0,0-1.22-4.86C622,133,615.42,113.17,610,93a32,32,0,0,1-.84-4.23A2.45,2.45,0,0,1,610.56,86c1.27-.56,2.17.12,2.93,1,1.37,1.56,2.67,3.16,4,4.78l-1,.31c.46,1.24,1,2.46,1.35,3.73,1.93,6.93,3.81,13.86,5.71,20.8,1.44,5.24,2.86,10.48,4.31,15.72a3.16,3.16,0,0,0,1,1.63V122.83l.47-.1a13.2,13.2,0,0,1,.52,2c.33,3.18.75,6.36.86,9.55a70.88,70.88,0,0,0,3.15,18.35c2.51,8.32,4.52,16.8,6.72,25.23a17.46,17.46,0,0,1,.32,2.17l-.62.17c-1.66-4-3.31-8-5.14-12.43a7.63,7.63,0,0,0-.43,1.33,445.15,445.15,0,0,1-6.89,55.17,104.42,104.42,0,0,0-1.18,30.56c.58,5.49,1.13,11,1.55,16.48a50.31,50.31,0,0,0,3.42,13.93c3.32,8.83,6.84,17.58,10.42,26.31,1.7,4.14,3.73,8.14,5.63,12.19a4.44,4.44,0,0,0,1.56,1.87c-.17-3.07-.39-6.14-.5-9.21s-.16-6.08-.14-9.11-.32-6.18.21-9.46c1.22.37,1.71,1.57,2.9,1.28.22-.05.9.88,1,1.42a25.14,25.14,0,0,1,.25,3.58,53.87,53.87,0,0,0,2.85,16.24,40.51,40.51,0,0,0,4,8.17c4.31,6.74,10.72,10.08,18.62,10.68a7.92,7.92,0,0,0,6.39-2c5.69-5.27,11.47-10.44,17.2-15.66.53-.48,1-1,1.47-1.53-1.4-4.94-.61-9.89-.45-14.8.48-14.38,1.13-28.76,1.64-43.14.46-12.87.81-25.74,1.22-38.6a3,3,0,0,1,.69-1.86,5.43,5.43,0,0,1,.64,1.36c.8,4.88,1.72,9.75,2.31,14.66,2.08,17.42,2.47,34.93,2.9,52.44a5.7,5.7,0,0,0,.47,2.35,9,9,0,0,0,.55-1.18,82.82,82.82,0,0,0,3.35-15.2,349.8,349.8,0,0,0,2.71-37.3c0-1,.11-1.92.13-2.88,0-1.15.45-1.87,1.85-1.52,0-.63.13-1.09.14-1.55q0-12.12.06-24.23c0-1.15-.3-2.41.87-3.26,1.07.22,1.22,1,1.38,1.79,1.63,8,2,16.17,2.4,24.31.41,7.27.87,14.53,1.31,21.79,0,.72.12,1.44.1,2.16-.42,11.66,1.51,23.11,3.23,34.57a20.62,20.62,0,0,1-1.05,11c-3,7.66-5.91,15.38-8.73,23.11-2.29,6.31-4.29,12.73-6.62,19-2.92,7.87-6.08,15.65-9.08,23.49-.77,2-1.33,4.11-2,6.17a2,2,0,0,0,.22,1.53c.51-.68,1-1.34,1.5-2.05,1.31-2,2.53-4.09,3.92-6a20.53,20.53,0,0,1,2.52-2.5,13.08,13.08,0,0,0,1.65-1.68c2.81-4,5.55-8,8.36-12a117.79,117.79,0,0,0,10.16-17.1,30.86,30.86,0,0,1,2.59-4.3c.3-.44,1-.6,1.54-.89.23.62.74,1.28.65,1.86a27.06,27.06,0,0,1-1.15,4.88c-3.08,8.85-6.59,17.51-11.56,25.51-.25.4-.46.84-.74,1.35,1.72,2.3-.4,4.13-.9,6.18,2.26.71,3.35.34,4.57-1.75,1.56-2.7,3-5.46,4.5-8.2a9.7,9.7,0,0,1,1.95-2.65,11.44,11.44,0,0,1,0,1.55,73.85,73.85,0,0,0-.18,16.28,12.59,12.59,0,0,0,.71,3.51,11,11,0,0,1,.55,4.94,78.76,78.76,0,0,1-3.4,17.14q-2.65,8.6-5.31,17.19c-.23.75-.43,1.52-.8,2.85.92-.71,1.42-1.11,1.94-1.48,1.39-1,2.55-1.15,3.51-.35s.81,1.89.46,3c-.68,2.21-1.63,4.49-1.63,6.73,0,4-2,7.26-3.17,10.83a7.52,7.52,0,0,0-.2,1.17c0,.1,0,.2,0,.3l-.12-.34c.4-.29,1-.49,1.18-.88,2.68-4.64,5.4-9.25,7.89-14a16.68,16.68,0,0,0,1.49-5.28c1.71-11.81,4.55-23.38,7.1-35,1.2-5.47,2.44-10.93,3.49-16.42.55-2.82.75-5.7,1.08-8.56.06-.46.15-1.1-.1-1.4-1.33-1.64-.5-3.2.19-4.66,1.71-3.62,3.53-7.18,5.31-10.76l.94-1.88c-.87,0-1.48-.11-2.08-.08q-6.23.31-12.44.68c-1.11.06-2.14-.07-2.56-1.27s.31-2,1.24-2.58c.53-.34,1.11-.62,1.67-.94,3.42-1.9,6.83-3.84,10.26-5.72,7.43-4.07,12.74-10.23,17.56-17,5-7.07,6.5-15.18,7.83-23.39a113.07,113.07,0,0,0,.69-28.94c-.12-1.19-.15-2.4-.2-3.59,0-.14.1-.29.25-.69a6.28,6.28,0,0,1,.79,1.5c.63,3.12,1.42,6.24,1.75,9.4a109.23,109.23,0,0,1-2.34,36.22,2.35,2.35,0,0,0,.14,1.72c.62-1.27,1.33-2.49,1.84-3.8a42.39,42.39,0,0,0,1.54-4.79,9.28,9.28,0,0,1,2-3.73,28.16,28.16,0,0,0,3.7-5.56c2-4.11,3.69-8.33,5.4-12.55a8.84,8.84,0,0,0,.35-3.06A266.14,266.14,0,0,0,790,240.78c-.38-3.95,0-8,0-12a1.33,1.33,0,0,1,.11-.7c.24-.38.59-1,.85-1,.46,0,1.17.4,1.27.76a28.22,28.22,0,0,1,.7,4c.52,4.28.89,8.59,1.54,12.85a83.16,83.16,0,0,0,1.84,8.18c1.57,6.11,3.16,12.23,4.82,18.32.67,2.46,1.61,4.85,2.32,7.3.6,2.05,1,4.16,1.56,6.21,1.11,3.93,2.29,7.83,3.45,11.74.24.81.55,1.59.83,2.39l.51-.06c.3-2,.66-4,.88-6.05,1.31-11.84,2.71-23.68,3.84-35.53,1.3-13.53,2.34-27.08,3.53-40.61a8.58,8.58,0,0,1,.61-1.69c.34-1.12.65-2.25,1.06-3.66.29.54.63.89.63,1.24a15.18,15.18,0,0,1-.21,2.86,38.91,38.91,0,0,0-.06,12.09,7.77,7.77,0,0,1,.08,1c-.11,6.55.23,13.15-.42,19.65a322.89,322.89,0,0,0-1.36,33.05c0,14.15.26,28.3.41,42.46,0,.95,0,1.92,0,2.87a41,41,0,0,0,.7,10c.43,2.26.36,4.61.61,6.91.43,3.84.93,7.68,1.4,11.52.34,0,.47,0,.48-.05,2-5,4.87-9.67,5.78-15.15,2.3-13.82,6-27.33,9.64-40.83a67.31,67.31,0,0,1,2.29-7.28,5.91,5.91,0,0,1,.18,3.35c-.83,5.69-1.56,11.41-2.6,17.07a192,192,0,0,0-2.89,23.05c-.32,5.11-.9,10.2-1.35,15.29-.07.79-.11,1.59-.18,2.71,1.88-1.33,2.72-3.15,4-4.62s2.29-3,3.7-4.8a13.27,13.27,0,0,1,.18,1.35c-.06,3.2-.17,6.39-.16,9.59a9.35,9.35,0,0,1-.86,3.91q-3.93,9-7.68,18.09a12.44,12.44,0,0,0-.85,3.71c-.33,4.79-.54,9.58-.79,14.37a12.69,12.69,0,0,0,.11,1.44c.62-.89,1-1.4,1.37-2a78.59,78.59,0,0,1,8.84-12.52,42.07,42.07,0,0,1,9.91-8.62,3.77,3.77,0,0,0,1.78-2.66q6.32-28.08,12.66-56.15A32.07,32.07,0,0,0,866,308c-2,3.93-4,7.87-6,11.78s-4.14,7.85-6.21,11.77l-.48-.13a11.47,11.47,0,0,1-.15-1.54c.11-3.83.26-7.66.37-11.49a5.81,5.81,0,0,1,1.19-3.31,183.35,183.35,0,0,0,15.94-27.86,17.66,17.66,0,0,0,1.2-3.38q2.13-8.73,4.16-17.49a17.07,17.07,0,0,1,2.22-5.51c.84-1.29,1-3,1.56-4.48.28-.85.61-1.7,1-2.66,1.63.67,1.64,1.86,1.59,2.92-.12,2.87-.3,5.75-.58,8.61-1.21,12.33-2.34,24.68-3.74,37-1.12,9.92-2.59,19.8-3.77,29.82.28-.8.61-1.6.85-2.42,4.18-14.35,8.38-28.69,12.5-43.06,2.31-8.07,4.48-16.18,6.73-24.26a6.4,6.4,0,0,0,0-3.5,21.45,21.45,0,0,1-.48-4.75c-.19-7.35-.22-14.71-.5-22.06-.37-9.85-1.33-19.63-4.24-29.11-.22-.73-.45-1.45-.8-2.6-.45.9-.72,1.36-.91,1.86-5.66,14.7-11.56,29.3-16.87,44.12-4.14,11.58-7.56,23.42-11.27,35.15-.67,2.1-.62,2.12-1.69,3.39-.9-.47-.75-1.3-.63-2,1.48-9.39,2.64-18.86,4.58-28.16,1.82-8.75,4.26-17.38,6.81-26,2.85-9.58,5.67-19.15,8.23-28.81a27,27,0,0,0,.52-13.65c-.79-3.26-1.32-6.59-1.9-9.89a12.43,12.43,0,0,0-2.17-5Q859.71,152.16,846.46,133a33.6,33.6,0,0,1-3.21-5.47,7.6,7.6,0,0,1,1.18.46c7.78,4.74,15.58,9.46,23.32,14.28a50.8,50.8,0,0,1,5.51,4.21c5.87,4.94,11.71,9.92,17.57,14.88.47.39,1,.7,1.71,1.17.09-.71.14-1.2.2-1.68,1.8.28,1.72,2,2.64,2.9,0,.21,0,.41-.07.61l.3,0-.28-.53c.21-.22.61-.64.62-.63,1.58,1.46,3.43,2.75,4.59,4.51a13.73,13.73,0,0,0,3.49,3.82c.93.66,1.72,1.31,1.51,2.7a4.36,4.36,0,0,0,.57,2.05q3.23,7.75,6.5,15.48c.24.57.31,1.47,1.45,1.15.26-.08.84.56,1.09,1,2.2,3.76,5.88,5.64,9.65,7.13a10.8,10.8,0,0,0,5.92.17,47.3,47.3,0,0,0,16.41-7.35,14.39,14.39,0,0,0-.91-1.5q-14.94-19.07-29.91-38.11a8.29,8.29,0,0,1-.72-1,1.73,1.73,0,0,1,.18-2.21,1.61,1.61,0,0,1,2.19-.19,11.84,11.84,0,0,1,1.14.87,194.41,194.41,0,0,0,31,21.2c18.84,10.24,38.23,19.33,57.86,27.93,19.91,8.72,39.75,17.63,60.2,25.06,8.11,2.95,16.32,5.62,24.48,8.42.45.15.91.3,1.36.47,2.6.94,2.6.94,2.13,4-.61-.14-1.21-.24-1.79-.42-11.22-3.49-22.38-7.18-33.66-10.45-14.89-4.31-29.92-8.16-44.81-12.46-9.74-2.82-19.37-6-29-9.15a99.34,99.34,0,0,0-14.61-3.73c-2.31-.37-3.69.82-3.42,3.14.4,3.41.88,6.82,1.25,10.23a2.16,2.16,0,0,0,1.72,2.22,4.3,4.3,0,0,1,3.24,3.26c.37,2.07,1.66,3.34,3.15,4.81a13.66,13.66,0,0,1,2-1,21.3,21.3,0,0,1,5.25-1.41c4.53-.23,7.23,3.64,5.73,7.9a15.89,15.89,0,0,1-1,2.18q-4.19,7.68-8.4,15.35c-1.67,3-3.31,6.07-3.7,9.55a16.18,16.18,0,0,0,.17,5,56,56,0,0,0,1.94,6.92,205.89,205.89,0,0,1,6.28,22.88,13.37,13.37,0,0,0,.48,1.3c.4-.92.7-1.49.92-2.09,4-10.95,7.49-22.09,10.54-33.36.74-2.69,1.55-5.38,2.53-8a74.23,74.23,0,0,0,4.21-16,9.83,9.83,0,0,1,.29-1.16l-.05,0c.11.78.22,1.56.39,2.81l2-4.19c.32.93.61,1.34.56,1.71a21,21,0,0,1-.59,2.56c-3.24,12.53-6.52,25.05-9.72,37.59q-4.07,15.91-8,31.86a11.65,11.65,0,0,0-.19,3.54c.47,6.29,1.07,12.57,1.45,18.87a36.53,36.53,0,0,1-.52,5.47c-.6,6.28-1.18,12.56-1.78,18.85-.14,1.54-.11,3.15-1.73,4.61a10.07,10.07,0,0,1-.7-2.47c.09-4.7.28-9.4.42-14.1,0-.95-.09-1.93,0-2.87.54-4.18-.65-8.07-1.92-11.95,0-.14-.21-.23-.43-.47a18.57,18.57,0,0,0-.65,1.77c-2.41,8.79-4.82,17.57-7.16,26.37a12.05,12.05,0,0,0-.37,3.54c.09,2.52-.67,4.61-2.89,5.91a4.35,4.35,0,0,0-2.11,3.75c-.33,3.1-.81,6.18-1.29,9.26a9.85,9.85,0,0,1-.72,2.52,5.08,5.08,0,0,1-7.82,2.08c-.38-.27-.74-.57-1.1-.85-1.78.95-2.49,2.62-3.12,4.21-2.51,6.4-4.8,12.88-7.37,19.25-2,5-1.87,10.32-2.58,15.52-.41,3-.9,6-1.5,9a8.25,8.25,0,0,1-1.37,2.77c-.49.74-1.18.74-1.48.27a46.36,46.36,0,0,0,.56-5c0-5.6-.08-11.19-.16-16.79a3.81,3.81,0,0,0-.63-2.25c-.35,2-.72,4-1,6a55.27,55.27,0,0,1-4.34,14.4,105.7,105.7,0,0,0-3.54,10.43v-.07c1.11-1.7,2.23-3.4,3.32-5.12.37-.57.68-1.17,1.08-1.88,1.45,1.18,1.3,2.6,1.32,3.89a8.14,8.14,0,0,1-.45,2.58,25.6,25.6,0,0,0-.92,9.49c.19,3.67.24,7.35.43,11,.1,2,.29,4,.58,6a29,29,0,0,0,1,3.48,24.43,24.43,0,0,0,3.71-1,18.52,18.52,0,0,0,2.82-1.89,33.86,33.86,0,0,1,.14,3.53,2.34,2.34,0,0,1-.77,1.4c-1.19,1.05-2.41,1.91-2.41,3.86,0,.82-1.18,1.62-1.82,2.44-.19.25-.33.53-.54.86a15.46,15.46,0,0,0,6.09-4.15q5.43-7,10.82-14.07a3.24,3.24,0,0,0,.59-1c.72-2.69,2.39-4.84,3.85-7.13,1.89-3,3.73-6,5.4-9.06q9.84-18.26,19.51-36.61a33.18,33.18,0,0,0,2.64-6.91A144,144,0,0,1,1005,362.9c2.55-4.43,5.26-8.78,8-13.11a11.88,11.88,0,0,1,3.66-4.15,12,12,0,0,1-.12,1.85,10.17,10.17,0,0,1-.74,2c-5,9.7-8.26,20.1-12.88,29.94a235.08,235.08,0,0,0-11.42,28.21c-3.07,9.59-5.94,19.24-8.87,28.87a23.13,23.13,0,0,0-.72,3.28,20.07,20.07,0,0,1-3.33,8.64,29.64,29.64,0,0,0-2.24,4,4.36,4.36,0,0,0-.11,1.55l-.13,0,.1.08a10.16,10.16,0,0,1,4-3.93,8.12,8.12,0,0,0,2.72-2.18,51.77,51.77,0,0,0,4.05-6.79q9.69-20.22,19.21-40.52c2-4.34,4-8.73,5.84-13.15.87-2.05,1.45-4.22,2.21-6.33.57-1.58,1.16-3.15,1.83-4.68a19.14,19.14,0,0,1,1.57-2.36c.18,1,.38,1.35.29,1.64-4.73,14.93-9.44,29.86-14.24,44.77-2,6.22-4,12.45-6.39,18.54a5.38,5.38,0,0,0,1.31,6.43l.78.83a1.51,1.51,0,0,0,.53.1c8.77-1.79,17.56-3.48,26.29-5.4,12.57-2.76,25.1-5.7,37.65-8.53,2.65-.6,5.32-1.12,8-1.63.8-.15,1.63-.15,2.45-.22l.14.62c-1.67.64-3.3,1.42-5,1.91-5.61,1.62-11.22,3.21-16.87,4.68-7.5,1.95-15,3.75-22.56,5.66a34.52,34.52,0,0,0-4.76,1.59c-8.18,3.44-16.33,6.94-24.5,10.4-2.14.9-4.38,1.57-6.42,2.63a13.18,13.18,0,0,0-3.44,2.9c-1.61,1.76-3,3.76-4.57,5.52-6,6.5-9.9,14.3-13.91,22a10.33,10.33,0,0,0-.39,1.09,19.11,19.11,0,0,1,1.57,1.31,8.41,8.41,0,0,1,1.64,2,1.86,1.86,0,0,1-1.53,2.83,25.74,25.74,0,0,0-9.58,3.57c-1.5.87-3.23,1.33-4.82,2.06a5.52,5.52,0,0,0-1.9,1.31c-2.31,2.76-4.62,5.53-6.78,8.4-3.76,5-7.27,10.14-11.68,14.6-.17.17-.41.34-.45.54-.67,3.17-3.1,5.36-4.47,8.14-.36.73-.63,1.52-.94,2.28l.59.32,1.35-1.75q4.95-6.47,9.92-12.93a11,11,0,0,1,1.56-1.48c.15-.13.43-.13.71-.21,1.1,1-.26,2.09,0,3.24l2.15.12c.56-1.31,1.08-2.55,1.64-3.78a39.15,39.15,0,0,1,5.9-9.84,13.51,13.51,0,0,1,3.41-3c3.31-1.84,6.76.36,6.42,4.12a19.68,19.68,0,0,1-1.4,5.05c-2.49,6.68-4.82,13.39-6,20.45a54.58,54.58,0,0,0-.27,16.24,2.92,2.92,0,0,0,2,2.68c.83.3,1.63.65,2.46,1,10,3.74,19.5,8.47,29,13.18.57.28,1.1.66,1.67.95,1,.49.76,1.2.32,2,3.27,1.46,6.5,2.84,9.68,4.34s6.32,3.07,9.46,4.66,6.34,2.85,9.29,4.66l-.11.54a4.17,4.17,0,0,1-1.43.11,41.59,41.59,0,0,1-4.05-1.46c-12-5.07-24-10.22-36-15.21-5.69-2.36-11.49-4.44-17.24-6.63-.72-.28-1.48-.5-2.57-.86.76,2.76,2,4.85,4.13,6.18a30.25,30.25,0,0,1,8.1,7.4,3.26,3.26,0,0,0,1.75,1,3.39,3.39,0,0,1,2.76,3.2,2.49,2.49,0,0,0,1.23,2.13c8.39,5.13,16.71,10.37,25.15,15.42,2.79,1.68,5.9,2.82,8.81,4.31a14.11,14.11,0,0,1,3.74,2.49,87,87,0,0,1,7,7.89c20.51,26.93,42.62,52.52,64.79,78.07,5.18,6,10,12.24,15.06,18.36a46.88,46.88,0,0,0,3.5,3.94q9.8,9.54,19.68,19a13.17,13.17,0,0,0,3.29,2.35c3.91,2,7.89,3.81,11.85,5.69v.48c-9.39-2-17.66-6.53-25.37-12-3-2.1-5.3-5.06-7.82-7.73s-5.14-5.49-7.53-8.39c-6.26-7.59-13-14.71-19.71-21.93q-16-17.27-31.5-34.9a367,367,0,0,0-26.2-27c-7.28-6.74-14.51-13.52-21.8-20.24a14,14,0,0,0-3.32-2.29c-5.46-2.65-10.86-5.49-16.49-7.73-6.22-2.48-12.63-4.5-19-6.48-9.24-2.85-18.56-5.42-27.81-8.23-5.12-1.55-10.17-3.35-15.26-5-1-.32-2-.54-3.2-.87-.16,1.76-.37,3.25-.42,4.75-.23,6.39-.47,12.78-.59,19.17a315.61,315.61,0,0,1-3.07,36.07,34.51,34.51,0,0,0-.11,3.53,1.88,1.88,0,0,1,0,.68c-1.38,2.6-1,5.45-1.06,8.21,0,6.55.07,13.11.12,19.66,0,1,0,1.92,0,2.88,0,1.21,0,2.44-1.95,1.89,0,1.29,0,2.33,0,3.36a7,7,0,0,1-.37,2.34c-.29.67-.86,1.55-1.45,1.67-1,.21-1.78-.65-2.08-1.62a9.94,9.94,0,0,1-.44-2.82c0-3.75-.2-7.52,0-11.27.32-6.32.1-12.62-.12-18.93q-.4-10.9-.49-21.82c-.12-13.67-.11-27.34-.2-41,0-3-.2-6.07-.32-9.1a10.65,10.65,0,0,0-.22-1.33,11,11,0,0,0-3.68,2.82c-2.28,2.23-4.57,4.46-7,6.52a9.59,9.59,0,0,1-5.15,2.18,7.7,7.7,0,0,1,.47-1c2.16-3,4.36-5.9,6.48-8.89,1.93-2.74,3.8-5.52,5.65-8.32a11.73,11.73,0,0,0,1-2.15c2-5,4-10.11,6.11-15.11a75.47,75.47,0,0,0,4.86-15.28,16.63,16.63,0,0,0,.17-6l-3.5-1.38c-.39.59-.75,1.09-1.07,1.61q-8.4,13.83-16.81,27.66c-.16.28-.5.53-.51.8,0,3-2.76,3.91-4.53,5.44-2.4,2.1-5.13,3.8-7.63,5.79a176.83,176.83,0,0,1-28.84,18.9c-2.76,1.44-5.38,3.15-8.11,4.64-1.75,1-3.57,1.79-5.39,2.6-5.32,2.39-10.66,4.74-16,7.11a3.16,3.16,0,0,1-3.13.2c.31-.44.48-.9.81-1.12,2.67-1.76,5.29-3.63,8.09-5.16a34.1,34.1,0,0,1,5.48-1.91l.06-.06h-.14l-.31-1.05c1.09-.73,2.19-1.51,3.34-2.22a75.09,75.09,0,0,0,16.16-13.47c3.14-3.41,6.42-6.69,9.53-10.13a27.37,27.37,0,0,0,2.79-4.15c.92-1.49,1.68-3.09,2.64-4.55,4.23-6.4,8.51-12.78,12.78-19.16a46.51,46.51,0,0,0,6.27-14.45,7.14,7.14,0,0,0,.22-4.33,15.06,15.06,0,0,0-1,1.23,3.3,3.3,0,0,0-.38.88c-3.09,10.21-10,18.1-16,26.58,0,0-.14.06-.6.24.19-.9.32-1.62.49-2.32q3.52-13.95,7.06-27.9c.41-1.62.85-3.25-.32-4.8a1.26,1.26,0,0,1-.09-1.12,6.31,6.31,0,0,0,0-4.47c-2.17-8.35-4.41-16.69-6.64-25-.05-.21-.26-.37-.44-.61a8.76,8.76,0,0,0-.81.54c-9.65,8-19.28,16.08-29,24.07A107.6,107.6,0,0,0,823,523c-2.37,2.91-5,5.65-7.51,8.41a17.91,17.91,0,0,0-5,9.87c-1.25,8.78-2.92,17.5-4.17,26.28-.6,4.24-.5,8.58-.93,12.85a81.79,81.79,0,0,0,.26,18.64c1.51,11.58,3.69,23.05,6.3,34.43,1.67,7.32,3.19,14.68,4.83,22a26.71,26.71,0,0,0,1.32,4.09c.75,1.85,1.57,3.68,2.5,5.45,8,15.16,15,30.74,21.56,46.55a49.48,49.48,0,0,0,2.81,5.82c4.54,7.9,9.16,15.76,13.73,23.65.39.67.65,1.41,1.23,2.68a7.81,7.81,0,0,1-1.82-.71,39.16,39.16,0,0,1-8.48-10.92,151.13,151.13,0,0,0-9.82-15.91c-1.23-1.77-2.39-3.59-3.49-5.44Q825.13,691.89,814,673a84.09,84.09,0,0,1-6.38-14.19c-1.63-4.53-2.86-9.14-4.1-13.77a30.22,30.22,0,0,0-2.57-6.42,261.56,261.56,0,0,0-15.19-25,26.6,26.6,0,0,0-5-5.38c-.59,1.23-1.09,2.21-1.53,3.23-3.7,8.53-6.21,17.46-9.12,26.27-3.09,9.37-4.73,19.07-6.78,28.69-.87,4.06-1.92,8.08-2.9,12.12-.19.76-.47,1.5-.75,2.38-1.42-.28-2.23.42-3.11,1.31-1.5,1.54-2.57,1.14-3.35-1.06l0,0,1.49.3c.66-2,2.38-3.77,1.54-6.24a2.14,2.14,0,0,1,.2-1.16c2.91-9.1,4.25-18.54,5.93-27.89,1.26-7,2.24-14.05,3.49-21.05a67.06,67.06,0,0,1,2-7.89q6.4-21.24,12.93-42.45a44.48,44.48,0,0,1,1.84-4.13c.36-.85.62-1.73,1-2.86a5.46,5.46,0,0,0-3.72,1.43,135,135,0,0,1-22.28,12.13,20.21,20.21,0,0,0-2.94,1.57c-10.37,6.63-20.5,13.68-32.18,18-1.06.39-2.07,1-3.25-.18a8.65,8.65,0,0,1,1.2-1.29c2-1.48,4-3,6-4.33,4.24-2.86,8.54-5.64,12.78-8.5.57-.39,1.61-.64,1.16-1.78l.56.21,0-.06ZM126.66,728l.27-.79.84-.34-.26-.32-.54.7-.24.7-.06-.1ZM234.78,610.08l.66-.5.24-.75.18-.07-.12.26a1.38,1.38,0,0,0-.06-.16c-.06.26-.12.52-.19.78l-.75.52.08.06Zm774.08-.14-.08-.14.17.07-.15,0-.31-.81,0-.05C1008.63,609.35,1008.75,609.65,1008.86,609.94ZM691.8,416.36l-.3,1.25-.47,1c-.14.32-.29.64-.44,1-.23,0-.58,0-.67.13-1.76,2.75-3.8,5.37-5.1,8.33a19.49,19.49,0,0,1-2.54,4.2,4.12,4.12,0,0,0-1.08,2.24c0,2.94-1.7,5.27-2.54,7.9-.07.21-.32.51-.47.51-1.3-.06-1.26,1.07-1.53,1.8-1.71,4.65-3.41,9.3-5,14a10.84,10.84,0,0,0-.63,4.21c.44,5.81.86,11.63,1.68,17.4a78.57,78.57,0,0,0,6.72,22.43,3.58,3.58,0,0,0,1.67,2.19c.07-1.28.2-2.29.16-3.3-.26-5.86.54-11.64,1.31-17.42.88-6.58,1.84-13.14,2.76-19.71.23-1.66.34-3.34.63-5s.9-1.85,2.41-.78c.12.08.26.13.62.32.29-2.37.57-4.65.86-6.93a21.2,21.2,0,0,1,.47-3.08c.12-.42.7-1,1.06-1a1.56,1.56,0,0,1,1.11,1,8.45,8.45,0,0,1,.23,2.61c-.21,5.11-.4,10.22-.73,15.32-.62,9.57-1.35,19.14-2,28.71-.16,2.39-.17,4.79-.16,7.19a7.21,7.21,0,0,0,.47,2.56,1.62,1.62,0,0,0,1.22.9,1.58,1.58,0,0,0,1.05-1,29.24,29.24,0,0,0,.59-4.27c.8-11.72,1.48-23.45,2.37-35.16.65-8.69,1.73-17.35,2.3-26a76.15,76.15,0,0,1,3.62-17.8c3.1-10,6.46-19.9,9.7-29.84l0,0a15.49,15.49,0,0,0-1.26,2.19c-1.06,2.92-2,5.9-3.07,8.81-.29.77-.87,1.76-1.52,1.95s-1.6-.46-2.53-.78l-.6,1.86a9.88,9.88,0,0,0-2.2,1.5c-3.18,4.2-6.29,8.45-9.42,12.68l.05,0c0-.26,0-.52,0-.81.16-.3.31-.6.46-.9s.3-.69.44-1.06.25-.81.37-1.22l0-.06Zm3.65,221.77.09-.66h-.21c.06.21.11.42.17.62l.14.12ZM879.37,415.61l.42-.9a18,18,0,0,0,1.52-1.64c2-2.79,4-5.62,6-8.41A6.83,6.83,0,0,1,889,403a.89.89,0,0,1,1.38.95,6.12,6.12,0,0,1-.45,1.35c-2.15,5.51-4.17,11.07-6.49,16.51-4.06,9.56-8.33,19-12.46,28.57-1.69,3.88-3.47,7.74-4.78,11.76-.56,1.69-1.47,2.33-3.12,3.14.23-1.18.4-2,.56-2.81a12.06,12.06,0,0,0-3.83,4.27q-9.31,15.94-18.58,31.91a11,11,0,0,0-.59,1.64c5-3,9.72-5.63,13.8-9.3s8.37-7.08,12.38-10.71c-1.09-1.91-2-3.54-2.93-5.17,1.11.21,1.89.87,3,.12.31-.21,1.31.3,1.82.69a6,6,0,0,1,1,1.57,3.72,3.72,0,0,0,.72-.35c2.88-2.55,5.77-5.06,8.58-7.68a6.55,6.55,0,0,0,1.5-2.4c1.59-4.18,3.15-8.38,4.61-12.6,2.43-7,4.76-14.05,7.13-21.08.3-.87.58-1.74,1-3-3,1.57-5.65,2.77-6.73,5.92a16.7,16.7,0,0,1-2.16,3.71c-.2.3-1,.56-1.19.41a2.71,2.71,0,0,1-.71-1.33c-.06-.17.14-.44.22-.66,2-5.39,5.67-9.56,9.93-13.24a4,4,0,0,0,1.69-2.94c1.1-15.31,1.79-30.64,1.93-46,0-.5-.08-1-.11-1.5a4.75,4.75,0,0,0-1.18,1.89q-7.27,18.25-14.54,36.52c-.2.52-.35,1.06-.52,1.59-.17.3-.35.6-.52.91l0,.12Zm236.17,309.66.14,0-.18,0-1-1-.26-.19.31.15C1114.45,725.08,1114.73,725.44,1115.54,725.27ZM962,560.55l0,.15,0-.09-1.24-.53-.07.41Zm156.59,166.9-.11.07h.16l-1.51-.94C1117.35,727.41,1117.8,727.79,1118.6,727.45Zm-988.25-3.82-1.78,1.92c1.56-.22,1.84-.89,1.67-1.87l.15.05-.12,0Zm490.8-248.56a1,1,0,0,1-.06-.21c0-.06.07-.11.1-.16l-.09.33.57,2.41.58-.22C621.88,476.5,621.51,475.79,621.15,475.07ZM328.46,412v-1a2.4,2.4,0,0,0-.11-.91q-3.23-5.54-6.52-11c-.1-.16-.54-.13-.81-.19l.1-.44-.11.43a53,53,0,0,0,7.83,16.21l.49-.21Zm492.2,3c.94.19,1-.66,1.19-1.15,1.22-2.51,2.34-5.06,3.6-7.54a5.48,5.48,0,0,0,.31-4.16c-.41-1.45-.72-2.93-1.15-4.38-.24-.81-.63-1.57-1-2.36l-.32.06Q822,405.25,820.65,415a3,3,0,0,0,.11.32Zm57.49,65.85c1.59.38,2.7.16,3.25-1A15.59,15.59,0,0,0,883,474.3c-2.36.4-3.92,3.38-6.64,1.43-1.81,1.69-3.71,3.19-5.51,5,.88.83,1.48,1.46,2.15,2,2.6,2.13,4.49,1.44,5.18-1.87Zm-493.4,4.9,0,.28s.05-.08,0-.1a.53.53,0,0,0-.13-.13,29.86,29.86,0,0,0-2.56-3.42c-2-2.05-4.11-4-6.26-5.92a140.34,140.34,0,0,1-15.93-16.23,9.69,9.69,0,0,0-.94-.86c.53,2.81,1.15,5.37,3.49,7.36,6.86,5.86,13.53,11.94,20.31,17.9A11,11,0,0,0,384.75,485.75Zm114.33-77.82.17-.91-.2,0,0,.93Q501.87,418,504.62,428c1.69,6.17,3.36,12.35,6.31,18.07a14.16,14.16,0,0,1,1.51,6.68c0,9.19.11,18.38.36,27.57.16,6,.59,12,2.32,17.78a3.49,3.49,0,0,1,.19.94,1.64,1.64,0,0,1-2.48,1.55,2.68,2.68,0,0,1-1.17-1.16c-1.26-2.9-3.24-5.41-4.12-8.54-1.68-6-3.66-11.91-5.54-17.85a7.83,7.83,0,0,0-.83-1.46,73.19,73.19,0,0,0-3.26,18.58,53,53,0,0,0,.63,7.86c.31,2,.49,2-1.36,3.23,6.65,21.74,16,42,32.29,58.53a44.81,44.81,0,0,0-.37-4.66c-.66-6.19-1.27-12.39-2-18.58-.23-2.06-.62-4.11-.91-6.16a343.32,343.32,0,0,1-3-38.71,30.71,30.71,0,0,0-.61-5.23c-1.06-5.41-2.27-10.79-3.33-16.19-.67-3.45-1.08-6.95-1.82-10.38-.36-1.68-.71-3.14,1.33-4.26-1.5-5.3-3-10.53-4.47-15.74a10.37,10.37,0,0,0-1.11-2.39,134.52,134.52,0,0,1-13.06-28.21C500,408.79,499.44,408.4,499.08,407.93Zm-180-105.22h0a78.42,78.42,0,0,1-2.69-13.56,4.36,4.36,0,0,0-1.59-3c-.29,1-.54,1.71-.71,2.45-.93,3.89-1.79,7.79-2.75,11.67-3.49,14.12-5.57,28.39-4.88,43a26.05,26.05,0,0,0,.31,4.06c.92,4.3,1.95,8.57,3,12.85a10.19,10.19,0,0,0,.67,1.46c1-14.43,5.14-43.3,6.59-46.14,1.35.25,1.46,1.28,1.38,2.34-.14,2.07-.36,4.14-.51,6.21-1.08,14.21-1.19,28.44-.9,42.67a156.8,156.8,0,0,0,2,22,6.24,6.24,0,0,0,2.45,4.41,26.57,26.57,0,0,1,3.1,3c3.46,3.55,6.79,7.24,10.4,10.62a14.26,14.26,0,0,1,4.21,6.81c1.09,3.93,2.23,7.84,3.29,11.78a52.59,52.59,0,0,0,8.28,17.43c2.75,3.8,6.17,6.81,9.57,9.92,4.07,3.72,8.11,7.47,12.2,11.16a15.69,15.69,0,0,0,2.27,1.46,4,4,0,0,0-.4-2.23c-3-6.7-6.14-13.37-9.09-20.1-1.87-4.25-3.54-8.57-5.24-12.89-.19-.48.07-1.12.12-1.69a5.65,5.65,0,0,1,1.69.51,6.89,6.89,0,0,1,1.45,1.59c2,2.7,4,5.41,5.94,8.13.49.66,1,1.34,1.43,2a2.76,2.76,0,0,0-.31-1.44c-9.53-20.88-18.17-42.1-24.65-64.17-2.77-9.43-6-18.71-9.09-28.06-.29-.87-.63-1.73-.94-2.59a3.91,3.91,0,0,0-.45,2.32,234.49,234.49,0,0,0,2.69,24.06c.8,5,1.64,9.93,4,14.49a7.9,7.9,0,0,1,.54,1.83c.38,1.62.68,3.26,1.1,4.86s1,3.36,1.48,5.06a5.72,5.72,0,0,1,0,1.85c0,.13-.35.23-.63.41-.24-.23-.49-.41-.68-.63a8.92,8.92,0,0,1-.62-.84c-2.29.39-2.64.25-3.62-1.54-3.19-5.82-6.39-11.63-9.51-17.49a8.73,8.73,0,0,1-1-3.15c-.57-6-1-12.11-1.56-18.16-.52-5.65-.8-11.35-1.78-16.92-2.08-11.88-4.54-23.7-6.88-35.54C318.63,304.08,318.37,303.35,319.09,302.71Zm613.82-44.44v0a83.32,83.32,0,0,1-5.77,18.23,7.54,7.54,0,0,0-.46,3c-.38,28.54.15,57.07,1.21,85.6,0,.44.11.88.16,1.32,1.75-.23,1.9-1.5,2-2.66.7-6.43,1.71-12.86,1.95-19.31a397,397,0,0,0-1.17-50.8c-.09-.95-.14-1.91-.14-2.87s.43-1.63,1.85-1.69c.63,3.9,1.28,7.73,1.86,11.57s1.08,7.6,1.62,11.4,1.11,7.75,1.69,11.62.14,7.7,1,11.59a3.81,3.81,0,0,0,.46-.82,25.13,25.13,0,0,1,3.28-8.11,40.81,40.81,0,0,0,5.6-14.7c1.28-7.15,2.24-14.37,3.35-21.55.17-1.09.13-2.42.74-3.2,1.34-1.72,1.25-3.51,1.11-5.46-.2-2.94-.42-5.89-.37-8.83.06-3.11.38-6.22.64-9.33a447.34,447.34,0,0,0,1.53-53.43,49.63,49.63,0,0,0-.37-5,9.66,9.66,0,0,0-1.86-4.95c-.35,0-.53,0-.66.06-3.94,1.91-7.86,3.87-11.84,5.72a8,8,0,0,1-3.44.86q-4.9-.21-9.77-.84a22.41,22.41,0,0,0-6-.15c.9,2.71,1.75,5.27,2.61,7.83a2.93,2.93,0,0,0,.42.85,16.77,16.77,0,0,1,3.4,11.14c0,1,0,2.07,0,3.11q-.31,18.83-.62,37.65c0,.89,0,1.79,0,2.68a4.31,4.31,0,0,0,1.42-1.83c1.1-2.41,2.13-4.83,3.26-7.21A7.38,7.38,0,0,1,932.91,258.27Zm-559.2,247,.06-.06a1.63,1.63,0,0,0,.58,2.29,2.7,2.7,0,0,0,3.17.08,7.19,7.19,0,0,0,3.31-3.34c.48-1.18,1.08-2.32,1.64-3.47.45-.92,1.22-1.83,2.21-1.34,1.17.57,2,.11,3-.5a3.41,3.41,0,0,1-.09.73,5.64,5.64,0,0,1-.56,1.06c-2.66,3.28-3.6,7.24-4.42,11.24-.17.86-.45,1.7-.67,2.55-1.57,6.12-3.17,12.22-4.69,18.35-.34,1.37-.7,2.8,0,4.22a1.31,1.31,0,0,1,0,1.14c-1.42,1.72-.65,3.49-.15,5.22q2.71,9.43,5.52,18.87,2.94,9.88,6,19.74a17.85,17.85,0,0,0,5.59,8.77c2,1.63,3.8,3.42,5.72,5.11,10.23,9,21,17.29,33,23.83.68.38,1.38.72,2.35,1.23.48-2.59.88-4.92,1.36-7.24a135.78,135.78,0,0,0,2.61-35.92,208.2,208.2,0,0,0-3.14-24.48,6.62,6.62,0,0,0-1.84-3.51c-4.66-4.95-9.25-10-13.88-14.94a17.7,17.7,0,0,0-1.76-1.46v-.21l-.16.13.21,0c.24.91.45,1.83.73,2.72,3,9.35,6.11,18.66,9,28.05a55.38,55.38,0,0,1,2.45,14.13c0,1-.09,2.11-.14,3.16l-.5.05c-.22-.46-.47-.91-.65-1.38-6.72-18-13.87-35.73-21.95-53.12a11,11,0,0,0-3.14-4.16c-.79-.62-1.49-1.35-2.38-2.17l1.69-1.2a1.78,1.78,0,0,0,0-.55c-3.17-6.72-6.31-13.45-9.53-20.14a6.6,6.6,0,0,0-1.68-2q-13.81-12-27.67-24.06c-.45-.39-.94-.74-1.48-1.16-.06.34-.14.5-.1.63,3,8.84,6.06,17.69,10.55,25.94.37.68,1,1.35.28,2.16s-1.48.31-2.19,0c-1.21-.58-2.39-1.2-3.68-1.85a2.49,2.49,0,0,0-.09.82c.32,1.08.64,2.15,1,3.2C370.12,504.87,371,505.41,373.71,505.22Zm107.91-63c.4-1.05.73-1.75.95-2.48,1.55-5.19,3.68-10.19,4.49-15.61a78.14,78.14,0,0,1,2.41-9,121.35,121.35,0,0,0,4.31-22.52c.26-3.18.9-6.33,1.39-9.49a4.59,4.59,0,0,1,.47-1.84,2,2,0,0,1,1.43-.94,1.84,1.84,0,0,1,1.28,1.13,5.9,5.9,0,0,1,.08,2.8,19.33,19.33,0,0,0,.34,9,133.38,133.38,0,0,0,11.13,30.3c.24.48.58.91,1,1.54,2.33-1.62,3.71.55,5.73,1.59-.35-1.13-.57-1.88-.82-2.62-2-6.07-4.17-12.1-6-18.21a116.44,116.44,0,0,1-3-12.09c-.64-3.27-1.25-6.62.22-9.9a6.51,6.51,0,0,0,.33-2.13,73.64,73.64,0,0,0-.89-18.87,10.18,10.18,0,0,0-1.17-3.11,40,40,0,0,1-4.5-12.59c-.32-1.71-.64-3.42-1-5.17l-16.94-.75c.52,1.07.82,1.69,1.13,2.31,1.82,3.56,3.69,7.09,5.44,10.68.67,1.39,1.46,2.85.22,4.44-.28.35-.12,1.08-.07,1.62.11,1.2.31,2.38.41,3.58.62,8,.4,15.86-2.48,23.41-2.25,5.9-4.79,11.69-7.29,17.48-.72,1.66-1.22,3-.24,4.91,1.3,2.55-.43,4.53-3.36,4.29a18,18,0,0,0-2.63-.19c-1.79.12-2.26.71-1.9,2.47a91.21,91.21,0,0,0,8.33,24.17C480.7,441,481.08,441.43,481.62,442.23Zm62.66.93c1.35-4.92,2.71-9.84,4-14.77.54-2,1-4,1.43-6.06,2-9.75,2.51-19.65,3.06-29.55.33-5.94.36-5.93-4-9.9l-.18-.15a2.3,2.3,0,0,1-1-3.1,3.74,3.74,0,0,0,0-1.88,235.76,235.76,0,0,1-2.3-26.26c-.33-8.87-.61-17.74-1-26.61-.07-1.9-.28-3.8-.43-5.7l-.44,0-.48,3.24c-1.07,7.35-1.83,14.77-3.3,22-2.14,10.57-4.8,21-7.22,31.55-1.51,6.58-1.44,6.57.68,13s4.18,13.08,6.2,19.65c.49,1.6.74,3.27,1.08,4.91.17.8.23,1.58-1,2-.43-1.14-.82-2.19-1.12-3-.67.54-1.18,1.24-1.82,1.39-1,.22-1.52-.67-1.89-1.5-.27-.58-.52-1.16-.74-1.76-.8-2.18-1.57-4.37-2.37-6.54a8.69,8.69,0,0,0-.67-1.18C534.9,416.47,540.72,429.4,544.28,443.16ZM456,592.59h-.36c-.15.84-.35,1.67-.44,2.52q-.72,6.66-1.4,13.34a5,5,0,0,1-2.16,3.82,3.73,3.73,0,0,0-1.36,1.8c-3.43,11.64-6.79,23.31-10.19,35-.74,2.52-1.54,5-2.31,7.54-.27.85-.56,1.7-1,3.08.86-.58,1.21-.77,1.51-1,6.69-5.33,13.45-10.57,20-16,3.5-2.91,6.69-6.18,10-9.3,2.56-2.41,4.07-5.49,5.47-8.64a2.1,2.1,0,0,0-.26-2.43c-1.33-1.69-2.63-3.42-3.9-5.16a28.35,28.35,0,0,1-1.83-2.78c-.91-1.59-1.67-3.27-2.62-4.83-2.09-3.41-4.26-6.76-6.39-10.14a11.46,11.46,0,0,1-2.16-5.27A5.31,5.31,0,0,0,456,592.59Zm213.9-184.84.57.05a10.29,10.29,0,0,0,.4-1.1c2.47-9.42,5-18.82,7.36-28.28a73.6,73.6,0,0,0,2.31-23.27,4.15,4.15,0,0,1,1.94-4.26,14.09,14.09,0,0,0,4.46-6.74c-4.07-.27-8.12-.52-12.16-.82a20.9,20.9,0,0,1-4.26-.57c-4.36-1.29-8.75-2.56-12.38-5.53-.13-.11-.41-.05-.61-.07a1.46,1.46,0,0,0-.1.52q2.94,12.46,5.91,24.93a29.41,29.41,0,0,1,.86,3c1.56,11.71,3.07,23.43,4.61,35.15C669.11,403.08,669.52,405.41,669.89,407.75Zm127-76.12-.42-.07a5.06,5.06,0,0,0-.39.77c-1.88,5.78-3.74,11.56-5.64,17.33a9.9,9.9,0,0,1-1,1.83,17.92,17.92,0,0,0-1.78,3c-1.76,5.31-3.42,10.65-5.07,16-.42,1.37-.66,2.79-1,4.2-.17.79.28,1.88-1,2.15-.68.15-1.78-1-2-2.13a8.17,8.17,0,0,1,0-1.91c.1-1.27.31-2.54.33-3.82.09-5.83.13-11.67.17-17.5a4.07,4.07,0,0,0-.34-1.11c-2.42,2.41-2.8,5.41-3.2,8.43-.43,3.32-.94,6.64-1.44,10-.09.63-.11,1.59-.49,1.79-1.34.73-1,1.78-.91,2.89a11.59,11.59,0,0,1,.07,3.27c-2.05,9.69-2.09,19.53-2.24,29.36,0,.73.12,1.46.22,2.63.63-.71.92-1,1.13-1.29,1.24-1.86,2.55-3.69,3.68-5.61q9-15.29,18-30.62a9.49,9.49,0,0,0,1.23-3.57,327.7,327.7,0,0,0,2-33.74ZM450.85,420.9l-.39.39c1.74,5.47,3.47,10.95,6.27,16a49.77,49.77,0,0,1,4.54,10,10,10,0,0,0,1.36,2.79c3.22,4.66,6.5,9.28,9.77,13.91a7.61,7.61,0,0,0,.89.78,53.56,53.56,0,0,1,2.3-5.89c1.82-3.39,1.8-6.86,1-10.45,0-.08,0-.16-.05-.24a134.87,134.87,0,0,0-9.8-28.72,4.71,4.71,0,0,0-.67-.8c-1,.7-1.86,1.37-2.77,2-1.76,1.23-3.48,2.55-5.33,3.64s-2.9.8-4.39-.81C452.71,422.59,451.76,421.77,450.85,420.9Zm281.87,14.76c-.47.62-.81,1-1.09,1.48-1.22,2-2.26,4.07-3.66,5.9-3.93,5.13-5.45,10.95-6.08,17.31s-2.08,12.75-3.22,19.11c-.13.74-.43,1.75-1,2.06-1.09.63-1.05,1.51-1.07,2.45q-.39,12.33-.73,24.66a4.41,4.41,0,0,0,.17.95,5.25,5.25,0,0,0,1-2c6.85-21.65,11.84-43.77,17-65.86C734.59,439.44,733.7,437.74,732.72,435.66ZM440.3,333.39c-.18.32-.31.43-.31.55q0,1,0,1.92a334.2,334.2,0,0,0,3.79,43.19c.93,5.75,1.66,11.55,3.83,17,.3.78.65,1.54,1,2.31a2.89,2.89,0,0,0,.66-.33,8.46,8.46,0,0,0,2.37-4.32c1.49-6,2.06-11.88.5-18-1-4-1.34-8.21-2.33-12.23a172.84,172.84,0,0,0-6.87-22.69c-.8-2-1.34-4.1-2-6.15A13,13,0,0,0,440.3,333.39Zm132.41,40c.11.69.15,1.24.29,1.77,1.22,4.46,2.42,8.93,3.69,13.38a18.15,18.15,0,0,0,1.37,3.57,7.42,7.42,0,0,1,.79,3.67c0,9.49.14,19,.24,28.48a8.06,8.06,0,0,0,.27,1.42,5.62,5.62,0,0,0,.86-2.08c1.45-5.39,2.85-10.8,4.36-16.17,1.21-4.31,2.49-8.59,3.87-12.84a4.39,4.39,0,0,0-.89-4.63q-7.14-8.2-14.27-16.44S573.14,373.48,572.71,373.39Zm346,195.06c15,2,27.74,9.31,41.22,14.54-12.56-7.83-25.38-15.24-36.19-25.6-.64,1.23-1,2.64-1.86,3.41C919.49,562.87,919.55,565.72,918.67,568.45ZM742.26,524.8l.67,0c.36-1.2.83-2.38,1.08-3.6.54-2.65,1-5.34,1.44-8a4.66,4.66,0,0,1,.46-1.83,10,10,0,0,0,1.4-5c.48-4.61.83-9.22,1.21-13.83a14.58,14.58,0,0,0-.18-2,11.92,11.92,0,0,0-.9,1.35c-2.33,4.9-4.68,9.79-6.92,14.73a5.8,5.8,0,0,0-.34,2.78c.33,3.42.74,6.83,1.18,10.23C741.59,521.39,742,523.09,742.26,524.8ZM635.34,307.18l-.59.06a14.3,14.3,0,0,0,.28,1.59c2.35,8,4.73,16.07,7.08,24.11a8.36,8.36,0,0,0,3.79,5.29c-.38-3.23-.69-6.22-1.11-9.2a11.67,11.67,0,0,0-.86-2.94q-2.68-6.27-5.47-12.5C637.48,311.42,636.38,309.31,635.34,307.18ZM458.67,352.52l-.56.09c-.16,2.3-.47,4.61-.44,6.91s.57,4.43.65,6.66c.13,3.54,1.74,6.41,3.74,9.15a7.75,7.75,0,0,0,1.34,1C462.05,368,462.57,359.82,458.67,352.52Zm4.83,25.16c-2.74,1.07-2.56-1.56-3.82-2.29-.3,2.68.16,6.95.93,8.44A15.74,15.74,0,0,0,463.5,377.68ZM943.26,198.36l.22.34,7.39-1.18L947.94,195ZM352.44,275.71v-8.13C350.89,270.56,351.66,273.14,352.44,275.71ZM896.7,248.92c.73-2.33,1.61-4.7,0-7.54ZM479.24,444.23c.18.73.36,1.47.6,2.47C480.94,445.37,480.15,444.78,479.24,444.23Zm-14.57-70.92-.25,0v1.91l.41,0C464.78,374.58,464.73,374,464.67,373.31ZM470.08,416l-.47.12.55,1.4.3-.1Zm218,48.4h.24l.05-1-.25,0Zm-20.24,7.07-.15.07.26.57.13-.1C668,471.86,667.88,471.68,667.8,471.51ZM294.06,216l.17-.15a1,1,0,0,0-.28-.08s-.07.13-.1.19Zm234,273.65h-.22v1h.22Zm-138.28.8.31-.14-.36-.7-.25.11Zm138.07-5.36H528l0-.5h-.08Zm4.81,78.34.08-.16-.11,0Zm242-247.76-.32-.07,0,.17ZM178.38,253.31l-.19.07.19.07Zm1.35-.34,0-.13-.19,0ZM878.8,482.15s-.07-.12-.12-.13-.1.05-.15.07l.2.21ZM955,189l0,.35s.12-.08.13-.13S955,189.07,955,189ZM372.87,506.33l.1-.16-.16,0Z" transform="translate(-102.78 -85.81)"/><path class="cls-1" d="M1090.44,263.94c-2.21,0-4.43,0-6.65,0a6.67,6.67,0,0,1-4.2-1.55c-.93-.75-1.84-1.53-2.73-2.33a36,36,0,0,0-14.23-8.16,14.9,14.9,0,0,1-1.8-.65,2.31,2.31,0,0,1-1.6-2.42,2.38,2.38,0,0,1,2-2.36,11.21,11.21,0,0,1,4,.21c2,.5,4,1.29,5.91,2,1.21.41,2.43.82,3.62,1.27a3.31,3.31,0,0,0,2.77,0,5.25,5.25,0,0,1,5.66.71,26.81,26.81,0,0,1,4.56,4.21c1.52,1.83,2.93,2.57,5.3,1.46a20.57,20.57,0,0,1,5.11-1.18,6,6,0,0,1,2.38.09,2.21,2.21,0,0,1,1.37,3.54,4.15,4.15,0,0,1-1.16,1.2,27.28,27.28,0,0,1-8.91,4c-.46.1-.94.13-1.42.19Z" transform="translate(-102.78 -85.81)"/><path class="cls-1" d="M746.41,244c-.19.86-.41,1.79-.61,2.72-.89,4.21-1.79,8.42-2.65,12.64-.29,1.44-1.14,2.32-2.32,2.26a2.26,2.26,0,0,1-2.11-2.21c-.67-6-1.4-12.05-2-18.08-.63-6.51-1.13-13-1.72-19.56a16.62,16.62,0,0,0-.47-3.07,6.37,6.37,0,0,1,.6-4.78c.39-.79.89-1.53,1.74-1.32a2.56,2.56,0,0,1,1.71,1.36,42.7,42.7,0,0,1,1.69,6.93,22.68,22.68,0,0,0,1.77,6.87C744.44,232.87,745.34,238.42,746.41,244Z" transform="translate(-102.78 -85.81)"/><path class="cls-1" d="M228,665.83a16.92,16.92,0,0,1,2.13-8,51.38,51.38,0,0,1,11.57-14.25,16.1,16.1,0,0,1,3-2,6.8,6.8,0,0,1,2.51-.69,3.55,3.55,0,0,1,3,5.95,11.22,11.22,0,0,1-1.76,1.61A103.55,103.55,0,0,0,231.45,665a6.23,6.23,0,0,1-1.3,1.4,2.39,2.39,0,0,1-1.68.38C228.15,666.67,228,665.9,228,665.83Z" transform="translate(-102.78 -85.81)"/><path class="cls-1" d="M1016.7,665.64c-.09.19-.32,1.13-.62,1.15a2.65,2.65,0,0,1-1.84-.68,39.16,39.16,0,0,1-3-3.39,92.07,92.07,0,0,0-14.66-14.07,15.6,15.6,0,0,1-2-1.75,3.53,3.53,0,0,1-.71-4,3.48,3.48,0,0,1,3.73-2,7.28,7.28,0,0,1,2.91,1,26.7,26.7,0,0,1,4,3,54.72,54.72,0,0,1,9.52,12A18.64,18.64,0,0,1,1016.7,665.64Z" transform="translate(-102.78 -85.81)"/><path class="cls-1" d="M690.91,259.48c-.19-.93-.35-1.61-.45-2.3q-1.53-10.76-3-21.52c-.11-.78-.84-2,.37-2.25s1.14,1.25,1.26,2.09c.92,6.31,1.78,12.62,2.64,18.93A6.91,6.91,0,0,1,690.91,259.48Z" transform="translate(-102.78 -85.81)"/><path class="cls-1" d="M493.82,565.69c3,1.68,6.07,3.41,9.15,5,1.89,1,3.87,1.86,5.78,2.83a15.42,15.42,0,0,1,1.78,1.25l-.22.49a4.12,4.12,0,0,1-1.45,0c-3.71-1.59-7.56-2.9-10.68-5.63-.95-.83-2.15-1.36-3.17-2.11-.58-.43-1.54-.71-1.13-1.8Z" transform="translate(-102.78 -85.81)"/><path class="cls-1" d="M427,455.82c3.24,3.82,3.31,8.08,3.31,12.45C428.45,466.45,427.1,461.43,427,455.82Z" transform="translate(-102.78 -85.81)"/><path class="cls-1" d="M572.25,658.39c.74,2.58,1.5,5.17,2.2,7.77.17.64,0,1.26-1,1.48C572.32,664.66,572.31,661.53,572.25,658.39Z" transform="translate(-102.78 -85.81)"/><path class="cls-1" d="M372.52,163.42a65.88,65.88,0,0,1,6.21-10.37C378.66,154.67,374.34,161.92,372.52,163.42Z" transform="translate(-102.78 -85.81)"/><path class="cls-1" d="M875.52,134.88c-.54-.17-.86-.17-.95-.31-1.57-2.53-3.12-5.07-4.84-7.9C871.47,127.68,873.38,130.45,875.52,134.88Z" transform="translate(-102.78 -85.81)"/><path class="cls-1" d="M600,646.46c.18,1.17.41,2.34.51,3.52a1.45,1.45,0,0,1-.44,1.19,1.4,1.4,0,0,1-1.28-.16,1.47,1.47,0,0,1-.36-1.21c.28-1.19.69-2.34,1.05-3.51Z" transform="translate(-102.78 -85.81)"/><path class="cls-1" d="M576.77,485.84v5.91c-1.17-2-.54-4-.5-5.88Z" transform="translate(-102.78 -85.81)"/><path class="cls-1" d="M842.91,115.71c-1.47.86-2.73,1.19-4,0C840.18,114.35,840.45,114.34,842.91,115.71Z" transform="translate(-102.78 -85.81)"/><path class="cls-1" d="M416.25,428.85c-.47-1-.94-2.09-1.4-3.14,1.95.3,1.63,1.74,2,2.84Z" transform="translate(-102.78 -85.81)"/><path class="cls-1" d="M1000,439.8l-1.46,2.84-.38-.2,1.37-2.88Z" transform="translate(-102.78 -85.81)"/><path class="cls-1" d="M740.54,306.65c.62,1.52.62,1.52-.51,2.32Z" transform="translate(-102.78 -85.81)"/><path class="cls-1" d="M638.33,680.27v3.26H638l.16-3.14Z" transform="translate(-102.78 -85.81)"/><path class="cls-1" d="M249.86,467.51c-1.27-.58-1.49-1.73-1.81-2.83l.42-.21c.45,1,.89,2.06,1.34,3.1Z" transform="translate(-102.78 -85.81)"/><path class="cls-1" d="M940.47,189.28c.27.48.53,1,.79,1.44l-.38.24-1-1.38Z" transform="translate(-102.78 -85.81)"/><path class="cls-1" d="M326.06,170l.85-1.46C327.32,169.68,327.32,169.68,326.06,170Z" transform="translate(-102.78 -85.81)"/><path class="cls-1" d="M922.24,141.88l.79,1.25c-.34.1-.6.28-.71.21C921.66,142.92,921.67,142.9,922.24,141.88Z" transform="translate(-102.78 -85.81)"/><path class="cls-1" d="M596.65,639.57c0,.27,0,.54-.07.82l-.3,0,.12-.81Z" transform="translate(-102.78 -85.81)"/><path class="cls-1" d="M546.87,598.61l1,1.2-.45.28-.57-1.47Z" transform="translate(-102.78 -85.81)"/><path class="cls-1" d="M308.16,217.9l.09-1.77.64.16-.77,1.63Z" transform="translate(-102.78 -85.81)"/><path class="cls-1" d="M892.55,117.22l1,.77a4.33,4.33,0,0,1-.73,0C892.75,117.92,892.72,117.71,892.55,117.22Z" transform="translate(-102.78 -85.81)"/><path class="cls-1" d="M355.44,144.67l.62-.42a1.72,1.72,0,0,1,0,.56c0,.09-.26.11-.4.16Z" transform="translate(-102.78 -85.81)"/><path class="cls-1" d="M348.86,724l1.91-.35,0-.06-1.86.4Z" transform="translate(-102.78 -85.81)"/><path class="cls-1" d="M351,722.8l1.65-.68-.05-.06-1.66.67S351,722.8,351,722.8Z" transform="translate(-102.78 -85.81)"/><path class="cls-1" d="M687.71,230.67l-.3.27-.29-.48c.12-.05.28-.18.36-.14S687.64,230.55,687.71,230.67Z" transform="translate(-102.78 -85.81)"/><path class="cls-1" d="M512.34,701.32l.21-.54.13.15-.39.35Z" transform="translate(-102.78 -85.81)"/><path class="cls-1" d="M347,725.64h1.35l0,0-1.31-.05Z" transform="translate(-102.78 -85.81)"/><path class="cls-1" d="M753.17,681.18l-.27-.28.27-.07c0,.13,0,.26,0,.38Z" transform="translate(-102.78 -85.81)"/><path class="cls-1" d="M603.74,633l-.29.08.14.1.09-.16Z" transform="translate(-102.78 -85.81)"/><path class="cls-1" d="M603.68,633l-.07-.32a.5.5,0,0,0,0,.16,1,1,0,0,0,.15.14Z" transform="translate(-102.78 -85.81)"/><polygon class="cls-1" points="487.31 143.19 487.14 143.11 487.33 143.05 487.31 143.19"/><path class="cls-1" d="M493.88,565.74l-.11.07.05-.12Z" transform="translate(-102.78 -85.81)"/><path class="cls-1" d="M308.12,217.92l-.11-.13.14.11Z" transform="translate(-102.78 -85.81)"/><path class="cls-1" d="M741.31,560l0-.15.07.09Z" transform="translate(-102.78 -85.81)"/><path class="cls-1" d="M1005.47,234.28l-.05,0Z" transform="translate(-102.78 -85.81)"/><polygon class="cls-1" points="541.27 634.26 541.47 634.27 541.32 634.29 541.27 634.26"/><path class="cls-1" d="M352.67,722.12c.11-.23.21-.46.31-.7l-.06,0c-.11.22-.21.45-.31.68Z" transform="translate(-102.78 -85.81)"/><path class="cls-1" d="M350.77,723.62c.08-.27.17-.54.26-.82l-.07-.07c-.08.27-.17.54-.24.82Z" transform="translate(-102.78 -85.81)"/><path class="cls-1" d="M250.58,468.94c0-.34,0-.68,0-1l-.07,0c0,.33.07.66.11,1Z" transform="translate(-102.78 -85.81)"/><path class="cls-1" d="M249.81,467.57l.67.4.08,0-.7-.42Z" transform="translate(-102.78 -85.81)"/><path class="cls-1" d="M348.86,724l-.05.9.07,0c0-.3,0-.6,0-.91Z" transform="translate(-102.78 -85.81)"/><path class="cls-1" d="M348.81,724.86c-.15.24-.31.49-.46.75l0,0,.54-.74Z" transform="translate(-102.78 -85.81)"/><path class="cls-1" d="M243.22,260.6l-.15.08a.93.93,0,0,0,.05-.1Z" transform="translate(-102.78 -85.81)"/><path class="cls-1" d="M347,725.56l0,.18-.08-.1S347,725.56,347,725.56Z" transform="translate(-102.78 -85.81)"/><path class="cls-1" d="M354.37,727.12l-.12.29s0-.11,0-.13a.64.64,0,0,1,.18-.1Z" transform="translate(-102.78 -85.81)"/><path class="cls-1" d="M373.71,505.22l0-.17.07.11S373.71,505.22,373.71,505.22Z" transform="translate(-102.78 -85.81)"/><polygon class="cls-1" points="844.52 203.13 844.5 202.98 844.59 203.01 844.52 203.13"/><path class="cls-1" d="M932.91,258.27l0-.42c0,.13,0,.26,0,.39Z" transform="translate(-102.78 -85.81)"/><polygon class="cls-1" points="587.76 334.54 587.7 334.44 587.82 334.49 587.76 334.54"/><path class="cls-1" d="M783.51,385.09c.16-.81.31-1.62.47-2.43.64,1,0,1.7-.53,2.37Z" transform="translate(-102.78 -85.81)"/><path class="cls-1" d="M783.45,385l-.16.34c.07-.09.14-.19.22-.28Z" transform="translate(-102.78 -85.81)"/><path class="cls-1" d="M878.21,480.91h-.16l.1,0Z" transform="translate(-102.78 -85.81)"/><path class="cls-1" d="M328.52,411c0,.35,0,.7,0,1.05C328.52,411.66,328.52,411.31,328.52,411Z" transform="translate(-102.78 -85.81)"/></svg>