<svg id="Layer_1" data-name="Layer 1" xmlns="http://www.w3.org/2000/svg" xmlns:xlink="http://www.w3.org/1999/xlink" viewBox="0 0 500 500"><defs><linearGradient id="linear-gradient" x1="309.34" y1="128" x2="309.34" y2="195.69" gradientTransform="matrix(1, 0, 0, -1, -92.9, 414.98)" gradientUnits="userSpaceOnUse"><stop offset="0" stop-color="#ff1242"/><stop offset="0.53" stop-color="#fdff00"/><stop offset="1" stop-color="#00d431"/></linearGradient><linearGradient id="linear-gradient-2" x1="372.08" y1="128.01" x2="372.08" y2="195.7" xlink:href="#linear-gradient"/></defs><title>logo</title><image width="1360" height="1360" transform="scale(0.37)" xlink:href="speaker.jpg"/><path d="M226.59,268.54v-2.42a1.87,1.87,0,0,1,1.73-2h12.44a1.91,1.91,0,0,1,1.37.55,2,2,0,0,1,.59,1.42v18.39a1.81,1.81,0,0,1-.59,1.37,1.75,1.75,0,0,1-1.37.59H192.17a1.73,1.73,0,0,1-1.41-.52,1.77,1.77,0,0,1-.59-1.37v-7q0-9.57,6.21-15.75v-.05q3.87-3.56,13.42-8.26a56.7,56.7,0,0,0,8.72-5.52q2.46-2.49,2.46-4.43a6.87,6.87,0,0,0-1.64-4.88,5,5,0,0,0-7.07,0l-.1.1a6.92,6.92,0,0,0-1.73,5,1.79,1.79,0,0,1-.59,1.37,1.93,1.93,0,0,1-1.42.59l-15.67-.46a2.07,2.07,0,0,1-1.37-.59,2,2,0,0,1-.54-1.37q0-10.68,7.16-17.48,7-6.57,17.58-6.57,11.58,0,19.21,7.62a23,23,0,0,1,7,16.84q0,8.08-6.93,14.56-4,4.17-14.43,9.45c-.48.24-1,.5-1.46.78Zm-14.38,2a38.27,38.27,0,0,1,7.39-4.47q10.1-5.15,13.88-9.15,6.33-5.88,6.34-13.15a21,21,0,0,0-6.39-15.43,24.34,24.34,0,0,0-17.84-7.07q-9.84,0-16.21,6-6.57,6.21-6.57,16.07l15.75.41a8.73,8.73,0,0,1,2.28-6.34,7,7,0,0,1,9.89-.24l.06.05a8.8,8.8,0,0,1,2.24,6.3q0,2.76-3.11,5.89a60.27,60.27,0,0,1-9.17,5.84q-9.27,4.58-13,7.95-5.61,5.58-5.61,14.33v7h48.62V266.12H228.55v4.38Zm-5.16-28.44a9.8,9.8,0,0,1,2.6-5.75,8.36,8.36,0,0,1,6.16-2.69,8.15,8.15,0,0,1,6.17,2.51,10.28,10.28,0,0,1,2.69,7.39c0,2.29-1.21,4.62-3.61,7l-.09.05h0a60.15,60.15,0,0,1-9.49,6.07q-9.09,4.49-12.55,7.63a17.8,17.8,0,0,0-5.12,13.19v5.42h45.33V267.71h-8.95v4.39H207.51l3.69-2.93a40.3,40.3,0,0,1,7.67-4.6q9.81-5.07,13.47-8.86,5.82-5.42,5.84-12a19.49,19.49,0,0,0-5.89-14.28,22.75,22.75,0,0,0-16.7-6.58q-9.15,0-15.11,5.58a19.05,19.05,0,0,0-6,13.28Z" style="fill:url(#linear-gradient)"/><path d="M299.76,245.53a20.34,20.34,0,0,1,7.54,16.39q0,11.79-8.9,18.8A30.15,30.15,0,0,1,279.18,287,30.56,30.56,0,0,1,260,280.81q-8.91-6.88-8.9-18.89a20.4,20.4,0,0,1,3.38-11.64l18.39-28.8a1.85,1.85,0,0,1,1.64-.91h20.13a1.84,1.84,0,0,1,1.73,1,1.78,1.78,0,0,1-.09,2L286,239.42A29.22,29.22,0,0,1,299.76,245.53Zm5.58,16.39a18.49,18.49,0,0,0-6.9-14.88q-6.19-5.11-15.79-6.12l12-18.39H274.48l-18.35,28.8a18.48,18.48,0,0,0-3.1,10.59q0,11,8.17,17.39,7.4,5.7,18,5.7t18-5.8Q305.33,272.79,305.34,261.92Zm-29.95-37.75-17.93,28.07a17.08,17.08,0,0,0-2.79,9.68q0,10.17,7.53,16.06,6.93,5.43,17,5.44t17-5.53a19.22,19.22,0,0,0,7.56-16,17.11,17.11,0,0,0-6.35-13.65q-5.76-4.77-14.88-5.71l-2.69-.27,11.78-18.12Zm-3,29.9a9.55,9.55,0,0,1,6.8-2.7,9.44,9.44,0,0,1,6.8,2.7,11.65,11.65,0,0,1,0,15.74,9.89,9.89,0,0,1-13.6,0,10.42,10.42,0,0,1-3.06-7.89,10.3,10.3,0,0,1,3.05-7.85Zm1.14,14.56a8.28,8.28,0,0,0,11.32,0,9.91,9.91,0,0,0,0-13.38,8.3,8.3,0,0,0-11.32,0,8.65,8.65,0,0,0-2.6,6.67,8.79,8.79,0,0,0,2.59,6.71Zm-.63-6.71a6.91,6.91,0,0,1,2-5.25,6,6,0,0,1,4.33-1.69,5.91,5.91,0,0,1,4.29,1.69,6.91,6.91,0,0,1,2,5.25,7,7,0,0,1-2,5.29,6.28,6.28,0,0,1-8.58,0,7,7,0,0,1-2.05-5.29Z" style="fill:url(#linear-gradient-2)"/><text transform="translate(187.93 286.47)" style="isolation:isolate;font-size:93.4755859375px;fill:none;stroke:#000;stroke-miterlimit:10;stroke-width:0.5px;font-family:MantiSlabCollegeDemo, Manti Slab College Demo;letter-spacing:0.05000052236233141em">26</text><text transform="matrix(0.34, 0.94, -0.94, 0.34, 104.63, 291.36)" style="isolation:isolate;font-size:47.980796813964844px;font-family:Reglisse">B</text><text transform="translate(115.07 317.89) rotate(61.89)" style="isolation:isolate;font-size:47.88706588745117px;font-family:Reglisse">i</text><text transform="matrix(0.6, 0.8, -0.8, 0.6, 122, 331.22)" style="isolation:isolate;font-size:48px;font-family:Reglisse">r</text><text transform="matrix(0.74, 0.67, -0.67, 0.74, 139.13, 353.64)" style="isolation:isolate;font-size:47.915924072265625px;font-family:Reglisse">t</text><text transform="translate(162.45 374.03) rotate(30.38)" style="isolation:isolate;font-size:48px;font-family:Reglisse">h</text><text transform="matrix(0.95, 0.32, -0.32, 0.95, 188.86, 388.88)" style="isolation:isolate;font-size:48.117454528808594px;font-family:Reglisse">D</text><text transform="translate(217.12 397.96) rotate(7.24)" style="isolation:isolate;font-size:48px;font-family:Reglisse">A</text><text transform="translate(245.07 401.24) rotate(-4)" style="isolation:isolate;font-size:48.117454528808594px;font-family:Reglisse">Y</text><text transform="translate(285.94 396.33) rotate(-19.05)" style="isolation:isolate;font-size:48px;font-family:Reglisse">F</text><text transform="translate(311.87 386.97) rotate(-29.89)" style="isolation:isolate;font-size:48.165313720703125px;font-family:Reglisse">U</text><text transform="matrix(0.75, -0.66, 0.66, 0.75, 337.12, 371.74)" style="isolation:isolate;font-size:48px;font-family:Reglisse">S</text><text transform="matrix(0.65, -0.76, 0.76, 0.65, 357.7, 352.63)" style="isolation:isolate;font-size:48px;font-family:Reglisse">I</text><text transform="translate(367.8 341.28) rotate(-58.67)" style="isolation:isolate;font-size:48px;font-family:Reglisse">O</text><text transform="translate(384.32 312.82) rotate(-70.92)" style="isolation:isolate;font-size:48px;font-family:Reglisse">N</text><text transform="matrix(0.66, -0.75, 0.75, 0.66, 153.35, 186.1)" style="isolation:isolate;font-size:60px;font-family:Reglisse">L</text><text transform="translate(176.05 161.77) rotate(-31.56)" style="isolation:isolate;font-size:60px;font-family:Reglisse">E</text><text transform="translate(205.27 143.7) rotate(-11.34)" style="isolation:isolate;font-size:60px;font-family:Reglisse">W</text><text transform="translate(251.45 136.36) rotate(9.3)" style="isolation:isolate;font-size:60px;font-family:Reglisse">K</text><text transform="translate(288.46 143.51) rotate(27.97)" style="isolation:isolate;font-size:60px;font-family:Reglisse">A</text><text transform="matrix(0.69, 0.72, -0.72, 0.69, 320.8, 161.79)" style="isolation:isolate;font-size:60px;font-family:Reglisse">N</text><text transform="translate(101.08 263.51)" style="isolation:isolate;font-size:48px;font-family:Reglisse;letter-spacing:0.040008544921875em">X</text><text transform="translate(374.17 264.46)" style="isolation:isolate;font-size:48px;font-family:Reglisse;letter-spacing:0.040008544921875em">X</text></svg>