<svg id="Layer_1" data-name="Layer 1" xmlns="http://www.w3.org/2000/svg" xmlns:xlink="http://www.w3.org/1999/xlink" viewBox="0 0 316.41 326.32"><defs><linearGradient id="linear-gradient" x1="250.99" y1="285.06" x2="250.99" y2="217.37" gradientUnits="userSpaceOnUse"><stop offset="0" stop-color="#ff1242"/><stop offset="0.53" stop-color="#fdff00"/><stop offset="1" stop-color="#00d431"/></linearGradient></defs><title>logo</title><text x="-92.9" y="-87.02"/><path d="M228.83,266.62V264.2a1.87,1.87,0,0,1,2-2H243a1.89,1.89,0,0,1,1.37.55,2,2,0,0,1,.59,1.42v18.39a1.81,1.81,0,0,1-.59,1.37,1.77,1.77,0,0,1-1.37.59H194.41A1.77,1.77,0,0,1,193,284a1.81,1.81,0,0,1-.59-1.37v-7q0-9.58,6.21-15.75l0-.05q3.88-3.56,13.42-8.26a56.76,56.76,0,0,0,8.72-5.52q2.46-2.5,2.46-4.43a6.84,6.84,0,0,0-1.64-4.88,5,5,0,0,0-7.17.14,6.93,6.93,0,0,0-1.73,5,1.79,1.79,0,0,1-.59,1.37,1.93,1.93,0,0,1-1.42.59L195,243.38a2.15,2.15,0,0,1-1.37-.59,2,2,0,0,1-.54-1.37q0-10.68,7.16-17.48,7-6.57,17.58-6.57,11.58,0,19.21,7.62a22.94,22.94,0,0,1,7,16.84q0,8.08-6.93,14.56-4,4.16-14.43,9.45c-.48.24-1,.5-1.46.78Zm-14.38,2a38.22,38.22,0,0,1,7.39-4.47Q231.94,259,235.72,255q6.34-5.89,6.34-13.15a21,21,0,0,0-6.39-15.43,24.3,24.3,0,0,0-17.84-7.07q-9.83,0-16.21,6-6.57,6.21-6.57,16.07l15.75.41a8.75,8.75,0,0,1,2.28-6.34,7,7,0,0,1,9.95-.19,8.74,8.74,0,0,1,2.24,6.3q0,2.75-3.11,5.89a61,61,0,0,1-9.17,5.84q-9.27,4.57-13,7.95-5.61,5.57-5.61,14.33v7H243V264.2H230.79v4.38Zm-5.16-28.44a9.84,9.84,0,0,1,2.6-5.75,8.32,8.32,0,0,1,6.16-2.69,8.11,8.11,0,0,1,6.17,2.51,10.21,10.21,0,0,1,2.69,7.39q0,3.43-3.61,7l-.09.05v0a60.57,60.57,0,0,1-9.49,6.07q-9.09,4.48-12.55,7.63a17.83,17.83,0,0,0-5.12,13.19V281h45.33V265.79h-8.95v4.39H209.75l3.69-2.93a40.58,40.58,0,0,1,7.67-4.61q9.81-5.06,13.47-8.85,5.83-5.43,5.84-12a19.41,19.41,0,0,0-5.89-14.28,22.69,22.69,0,0,0-16.7-6.58q-9.14,0-15.11,5.57a19.12,19.12,0,0,0-6,13.28Z" transform="translate(-92.9 -87.02)" style="fill:url(#linear-gradient)"/><path d="M302,243.61A20.31,20.31,0,0,1,309.54,260q0,11.78-8.9,18.8-8,6.26-19.22,6.25t-19.21-6.16Q253.3,272,253.31,260a20.45,20.45,0,0,1,3.38-11.64l18.39-28.8a1.84,1.84,0,0,1,1.64-.91h20.13a1.82,1.82,0,0,1,1.73,1,1.77,1.77,0,0,1-.09,2L288.22,237.5A29.13,29.13,0,0,1,302,243.61ZM307.58,260a18.46,18.46,0,0,0-6.9-14.88Q294.49,240,284.89,239l12-18.39H276.72l-18.35,28.8a18.49,18.49,0,0,0-3.1,10.59q0,11,8.17,17.39,7.4,5.7,18,5.7t18-5.8Q307.57,270.87,307.58,260Zm-29.95-37.75L259.7,250.32a17.1,17.1,0,0,0-2.79,9.68q0,10.17,7.53,16.06,6.94,5.43,17,5.44t17-5.53A19.23,19.23,0,0,0,306,260a17.06,17.06,0,0,0-6.35-13.65q-5.75-4.78-14.88-5.71l-2.69-.27,11.78-18.12Zm-3,29.9a9.52,9.52,0,0,1,6.8-2.7,9.39,9.39,0,0,1,6.8,2.7,11.65,11.65,0,0,1,0,15.74,9.91,9.91,0,0,1-13.6,0,10.48,10.48,0,0,1-3.06-7.89A10.33,10.33,0,0,1,274.62,252.15Zm1.14,14.56a8.3,8.3,0,0,0,11.32,0,8.79,8.79,0,0,0,2.6-6.71,8.66,8.66,0,0,0-2.6-6.67,8.3,8.3,0,0,0-11.32,0,8.69,8.69,0,0,0-2.6,6.67A8.83,8.83,0,0,0,275.76,266.71Zm-.63-6.71a6.91,6.91,0,0,1,2-5.25,6,6,0,0,1,4.33-1.69,5.87,5.87,0,0,1,4.29,1.69,6.83,6.83,0,0,1,2,5.25,7,7,0,0,1-2,5.29,6.29,6.29,0,0,1-8.58,0A7,7,0,0,1,275.13,260Z" transform="translate(-92.9 -87.02)" style="fill:url(#linear-gradient)"/><text transform="translate(97.27 197.53)" style="font-size:93.4755859375px;fill:none;stroke:#000;stroke-miterlimit:10;stroke-width:0.5px;font-family:MantiSlabCollegeDemo, Manti Slab College Demo;letter-spacing:0.05000052236233141em">26</text><text transform="matrix(0.34, 0.94, -0.94, 0.34, 13.97, 202.41)" style="font-size:48px;font-family:Reglisse">B</text><text transform="matrix(0.47, 0.88, -0.88, 0.47, 24.41, 228.95)" style="font-size:48px;font-family:Reglisse">i</text><text transform="matrix(0.6, 0.8, -0.8, 0.6, 31.34, 242.27)" style="font-size:48px;font-family:Reglisse">r</text><text transform="matrix(0.74, 0.67, -0.67, 0.74, 48.47, 264.69)" style="font-size:48px;font-family:Reglisse">t</text><text transform="translate(71.79 285.08) rotate(30.38)" style="font-size:48px;font-family:Reglisse">h</text><text transform="matrix(0.95, 0.32, -0.32, 0.95, 98.2, 299.94)" style="font-size:48px;font-family:Reglisse">D</text><text transform="translate(126.46 309.01) rotate(7.24)" style="font-size:48px;font-family:Reglisse">A</text><text transform="matrix(1, -0.07, 0.07, 1, 154.41, 312.3)" style="font-size:48px;font-family:Reglisse">Y</text><text transform="translate(184.44 309.38) rotate(-11.76)" style="font-size:48px;font-family:Reglisse"> </text><text transform="translate(195.28 307.38) rotate(-19.05)" style="font-size:48px;font-family:Reglisse">F</text><text transform="matrix(0.87, -0.5, 0.5, 0.87, 221.21, 298.03)" style="font-size:48px;font-family:Reglisse">U</text><text transform="translate(246.46 282.8) rotate(-41.33)" style="font-size:48px;font-family:Reglisse">S</text><text transform="translate(267.04 263.68) rotate(-49.59)" style="font-size:48px;font-family:Reglisse">I</text><text transform="translate(277.14 252.33) rotate(-58.67)" style="font-size:48px;font-family:Reglisse">O</text><text transform="translate(293.66 223.87) rotate(-70.92)" style="font-size:48px;font-family:Reglisse">N</text><text transform="translate(62.69 97.15) rotate(-48.44)" style="font-size:60px;font-family:Reglisse">L</text><text transform="translate(85.39 72.83) rotate(-31.56)" style="font-size:60px;font-family:Reglisse">E</text><text transform="translate(114.61 54.76) rotate(-11.34)" style="font-size:60px;font-family:Reglisse">W</text><text transform="translate(160.79 47.42) rotate(9.3)" style="font-size:60px;font-family:Reglisse">K</text><text transform="translate(197.8 54.56) rotate(27.97)" style="font-size:60px;font-family:Reglisse">A</text><text transform="translate(230.14 72.84) rotate(46.45)" style="font-size:60px;font-family:Reglisse">N</text><text transform="translate(5.42 173.57)" style="font-size:48px;font-family:Reglisse;letter-spacing:0.040008544921875em">X</text><text transform="translate(277.51 173.52)" style="font-size:48px;font-family:Reglisse;letter-spacing:0.040008544921875em">X</text></svg>