<svg id="Layer_1" data-name="Layer 1" xmlns="http://www.w3.org/2000/svg" xmlns:xlink="http://www.w3.org/1999/xlink" viewBox="0 0 500 500">
  <defs>
    <linearGradient id="linear-gradient" x1="309.34" y1="128" x2="309.34" y2="195.69" gradientTransform="matrix(1, 0, 0, -1, -92.9, 414.98)" gradientUnits="userSpaceOnUse">
      <stop offset="0" stop-color="#ff1242"/>
      <stop offset="0.53" stop-color="#fdff00"/>
      <stop offset="1" stop-color="#00d431"/>
    </linearGradient>
    <linearGradient id="linear-gradient-2" x1="372.08" y1="128.01" x2="372.08" y2="195.7" xlink:href="#linear-gradient"/>
  </defs>
  <title>
    logo
  </title>
  <path d="M226.59,268.54v-2.42a1.87,1.87,0,0,1,1.73-2h12.44a1.91,1.91,0,0,1,1.37.55,2,2,0,0,1,.59,1.42v18.39a1.81,1.81,0,0,1-.59,1.37,1.75,1.75,0,0,1-1.37.59H192.17a1.73,1.73,0,0,1-1.41-.52,1.77,1.77,0,0,1-.59-1.37v-7q0-9.57,6.21-15.75v-.05q3.87-3.56,13.42-8.26a56.7,56.7,0,0,0,8.72-5.52q2.46-2.49,2.46-4.43a6.87,6.87,0,0,0-1.64-4.88,5,5,0,0,0-7.07,0l-.1.1a6.92,6.92,0,0,0-1.73,5,1.79,1.79,0,0,1-.59,1.37,1.93,1.93,0,0,1-1.42.59l-15.67-.46a2.07,2.07,0,0,1-1.37-.59,2,2,0,0,1-.54-1.37q0-10.68,7.16-17.48,7-6.57,17.58-6.57,11.58,0,19.21,7.62a23,23,0,0,1,7,16.84q0,8.08-6.93,14.56-4,4.17-14.43,9.45c-.48.24-1,.5-1.46.78Zm-14.38,2a38.27,38.27,0,0,1,7.39-4.47q10.1-5.15,13.88-9.15,6.33-5.88,6.34-13.15a21,21,0,0,0-6.39-15.43,24.34,24.34,0,0,0-17.84-7.07q-9.84,0-16.21,6-6.57,6.21-6.57,16.07l15.75.41a8.73,8.73,0,0,1,2.28-6.34,7,7,0,0,1,9.89-.24l.06.05a8.8,8.8,0,0,1,2.24,6.3q0,2.76-3.11,5.89a60.27,60.27,0,0,1-9.17,5.84q-9.27,4.58-13,7.95-5.61,5.58-5.61,14.33v7h48.62V266.12H228.55v4.38Zm-5.16-28.44a9.8,9.8,0,0,1,2.6-5.75,8.36,8.36,0,0,1,6.16-2.69,8.15,8.15,0,0,1,6.17,2.51,10.28,10.28,0,0,1,2.69,7.39c0,2.29-1.21,4.62-3.61,7l-.09.05h0a60.15,60.15,0,0,1-9.49,6.07q-9.09,4.49-12.55,7.63a17.8,17.8,0,0,0-5.12,13.19v5.42h45.33V267.71h-8.95v4.39H207.51l3.69-2.93a40.3,40.3,0,0,1,7.67-4.6q9.81-5.07,13.47-8.86,5.82-5.42,5.84-12a19.49,19.49,0,0,0-5.89-14.28,22.75,22.75,0,0,0-16.7-6.58q-9.15,0-15.11,5.58a19.05,19.05,0,0,0-6,13.28Z" style="fill:url(#linear-gradient)"/>
  <path d="M299.76,245.53a20.34,20.34,0,0,1,7.54,16.39q0,11.79-8.9,18.8A30.15,30.15,0,0,1,279.18,287,30.56,30.56,0,0,1,260,280.81q-8.91-6.88-8.9-18.89a20.4,20.4,0,0,1,3.38-11.64l18.39-28.8a1.85,1.85,0,0,1,1.64-.91h20.13a1.84,1.84,0,0,1,1.73,1,1.78,1.78,0,0,1-.09,2L286,239.42A29.22,29.22,0,0,1,299.76,245.53Zm5.58,16.39a18.49,18.49,0,0,0-6.9-14.88q-6.19-5.11-15.79-6.12l12-18.39H274.48l-18.35,28.8a18.48,18.48,0,0,0-3.1,10.59q0,11,8.17,17.39,7.4,5.7,18,5.7t18-5.8Q305.33,272.79,305.34,261.92Zm-29.95-37.75-17.93,28.07a17.08,17.08,0,0,0-2.79,9.68q0,10.17,7.53,16.06,6.93,5.43,17,5.44t17-5.53a19.22,19.22,0,0,0,7.56-16,17.11,17.11,0,0,0-6.35-13.65q-5.76-4.77-14.88-5.71l-2.69-.27,11.78-18.12Zm-3,29.9a9.55,9.55,0,0,1,6.8-2.7,9.44,9.44,0,0,1,6.8,2.7,11.65,11.65,0,0,1,0,15.74,9.89,9.89,0,0,1-13.6,0,10.42,10.42,0,0,1-3.06-7.89,10.3,10.3,0,0,1,3.05-7.85Zm1.14,14.56a8.28,8.28,0,0,0,11.32,0,9.91,9.91,0,0,0,0-13.38,8.3,8.3,0,0,0-11.32,0,8.65,8.65,0,0,0-2.6,6.67,8.79,8.79,0,0,0,2.59,6.71Zm-.63-6.71a6.91,6.91,0,0,1,2-5.25,6,6,0,0,1,4.33-1.69,5.91,5.91,0,0,1,4.29,1.69,6.91,6.91,0,0,1,2,5.25,7,7,0,0,1-2,5.29,6.28,6.28,0,0,1-8.58,0,7,7,0,0,1-2.05-5.29Z" style="fill:url(#linear-gradient-2)"/>
  <g style="isolation:isolate">
    <path d="M226.59,268.54v-2.42a1.85,1.85,0,0,1,2-2h12.23a1.88,1.88,0,0,1,1.37.54,2,2,0,0,1,.59,1.42v18.39a1.79,1.79,0,0,1-.59,1.37,1.77,1.77,0,0,1-1.37.59H192.17a1.77,1.77,0,0,1-1.37-.59,1.79,1.79,0,0,1-.59-1.37v-7q0-9.58,6.21-15.75l0,0q3.89-3.57,13.42-8.26A55.92,55.92,0,0,0,218.6,248c1.64-1.67,2.46-3.15,2.46-4.42a6.82,6.82,0,0,0-1.64-4.89,5,5,0,0,0-7.17.14,6.94,6.94,0,0,0-1.73,5,1.79,1.79,0,0,1-.59,1.37,1.94,1.94,0,0,1-1.42.6l-15.75-.41a2.12,2.12,0,0,1-1.36-.6,1.93,1.93,0,0,1-.55-1.37q0-10.68,7.16-17.48,7-6.57,17.58-6.57,11.58,0,19.21,7.62a22.94,22.94,0,0,1,7,16.84q0,8.08-6.93,14.56-4,4.15-14.43,9.45c-.48.24-1,.5-1.46.78Zm-14.38,2A39.24,39.24,0,0,1,219.6,266q10.1-5.16,13.88-9.13,6.35-5.89,6.34-13.15a21,21,0,0,0-6.39-15.42,24.26,24.26,0,0,0-17.84-7.08q-9.83,0-16.21,6-6.57,6.21-6.57,16.06l15.75.41a8.77,8.77,0,0,1,2.28-6.34,6.95,6.95,0,0,1,9.95-.18,8.71,8.71,0,0,1,2.24,6.3q0,2.73-3.11,5.88a61,61,0,0,1-9.17,5.84q-9.27,4.58-13,7.95-5.62,5.57-5.62,14.33v7h48.61V266.12H228.55v4.38Zm-5.16-28.44a9.87,9.87,0,0,1,2.6-5.75,8.34,8.34,0,0,1,6.16-2.69,8.14,8.14,0,0,1,6.17,2.51,10.21,10.21,0,0,1,2.69,7.4q0,3.42-3.61,7l-.09,0v.05a61.31,61.31,0,0,1-9.49,6.07q-9.09,4.47-12.55,7.62a17.84,17.84,0,0,0-5.12,13.19v5.34h45.33V267.72h-8.95v4.38H207.51l3.69-2.92a40.06,40.06,0,0,1,7.67-4.61q9.81-5.07,13.47-8.86,5.83-5.43,5.84-12a19.43,19.43,0,0,0-5.89-14.28,22.72,22.72,0,0,0-16.7-6.57q-9.14,0-15.11,5.56a19.13,19.13,0,0,0-6,13.29Z" style="fill:none;stroke:#000;stroke-miterlimit:10;stroke-width:.5px"/>
    <path d="M299.72,245.53a20.31,20.31,0,0,1,7.58,16.39q0,11.77-8.9,18.8Q290.45,287,279.18,287T260,280.82q-8.91-6.94-8.9-18.9a20.45,20.45,0,0,1,3.38-11.64l18.39-28.8a1.84,1.84,0,0,1,1.64-.91h20.13a1.82,1.82,0,0,1,1.73,1.05,1.75,1.75,0,0,1-.09,2L286,239.42A29.13,29.13,0,0,1,299.72,245.53Zm5.62,16.39a18.46,18.46,0,0,0-6.9-14.88q-6.19-5.16-15.79-6.12l12-18.39H274.48l-18.35,28.8a18.49,18.49,0,0,0-3.1,10.59q0,10.95,8.17,17.39,7.4,5.7,18,5.7t18-5.79Q305.33,272.78,305.34,261.92ZM275.4,224.17l-17.94,28.07a17.1,17.1,0,0,0-2.79,9.68q0,10.18,7.53,16.07,6.94,5.43,17,5.43t17-5.53a19.23,19.23,0,0,0,7.58-16,17.06,17.06,0,0,0-6.35-13.65q-5.75-4.78-14.87-5.7l-2.7-.28,11.78-18.12Zm-3,29.9a9.51,9.51,0,0,1,6.8-2.69,9.38,9.38,0,0,1,6.8,2.69,11.66,11.66,0,0,1,0,15.75,9.94,9.94,0,0,1-13.6,0,10.5,10.5,0,0,1-3.06-7.9A10.34,10.34,0,0,1,272.38,254.07Zm1.14,14.56a8.27,8.27,0,0,0,11.32,0,8.78,8.78,0,0,0,2.6-6.71,8.66,8.66,0,0,0-2.6-6.67,8.3,8.3,0,0,0-11.32,0,8.69,8.69,0,0,0-2.6,6.67A8.81,8.81,0,0,0,273.52,268.63Zm-.64-6.71a6.91,6.91,0,0,1,2-5.25,6,6,0,0,1,4.33-1.69,5.87,5.87,0,0,1,4.29,1.69,6.83,6.83,0,0,1,2,5.25,7,7,0,0,1-2,5.29,6.29,6.29,0,0,1-8.58,0A7,7,0,0,1,272.88,261.92Z" style="fill:none;stroke:#000;stroke-miterlimit:10;stroke-width:.5px"/>
  </g>
  <g style="isolation:isolate">
    <path d="M353.7,350.1l-14.64-12.46a5.44,5.44,0,1,1,6.94-8.37c2.12,1.21,2.1,1.19,2.35,1.31a5.94,5.94,0,0,1,.92.62l14.64,12.46a5.5,5.5,0,0,1,.77,7.69,5.41,5.41,0,0,1-6.79,1.12l-2.39-1.3A5.68,5.68,0,0,1,353.7,350.1Zm.62-.73a4.48,4.48,0,1,0,5.8-6.82l-14.64-12.46a4.48,4.48,0,1,0-5.8,6.82Zm-14-13.21a3.5,3.5,0,1,1,4.53-5.32l14.63,12.46a3.49,3.49,0,1,1-4.52,5.32Zm.64-4.68c-1,.72-1.22,2.8.35,4.14,1.1.93,4.39,4,4.65,3.65C346,339.28,340.36,333.52,341,331.48Z"/>
  </g>
  <g style="isolation:isolate">
    <path d="M359.79,336.38l-.07,0a17.58,17.58,0,0,1-4.49-1.95c-6.85-4.17-10.54-12.93-6.21-20,3.69-6.05,12.05-7.88,19.05-4.57l2,.73a17.27,17.27,0,0,1,3,1.46c6.87,4.18,10.41,13,6.18,19.94-3.47,5.7-10.85,7.59-17.45,5.17Zm9.39-24.89c-6.83-4.16-15.64-2.69-19.34,3.38-4,6.62-.53,14.82,5.89,18.72,6.82,4.16,15.58,2.8,19.33-3.37C379,323.72,375.66,315.43,369.18,311.49Zm-12.93,21.24c-5.94-3.62-9.23-11.24-5.52-17.33,3.42-5.62,11.58-6.88,17.91-3,6.05,3.68,9.17,11.34,5.54,17.31C370.72,335.36,362.61,336.6,356.25,332.73Zm-4.43-9c-1.1-3.82.18-7.11-.19-7.34-1.39,1.68-1.59,5.14-1,7.27a9.19,9.19,0,0,0,3.77,5.53A25.72,25.72,0,0,1,351.82,323.71ZM360,326.6c2.89,1.76,6.55,1.57,7.95-.73,1.26-2.07.14-5.45-3-7.37-2.93-1.78-6.58-1.47-7.91.72S356.83,324.68,360,326.6Zm4.41-7.24c2.64,1.61,3.65,4.34,2.66,6-1.1,1.8-4.12,1.87-6.54.4-2.65-1.61-3.64-4.32-2.63-6S361.93,317.87,364.39,319.36Zm-.57,6.48a2.5,2.5,0,0,0,2.41-1c.68-1.13-.06-3-1.92-4.37a2.5,2.5,0,0,0-2.22,1C361.39,322.63,362.05,324.49,363.82,325.84Z"/>
  </g>
  <g style="isolation:isolate">
    <path d="M381.77,312.24a5.51,5.51,0,0,1-2.1-.32l-18.17-6.28a5.67,5.67,0,0,1-3.57-6.93c.84-2.43,2.88-3.19,4.68-3.76l6.08-1.94-2.54-.88a5.46,5.46,0,1,1,3.43-10.37c2.42.36,2.4.35,2.67.37a5.12,5.12,0,0,1,1.08.25l18.17,6.28c2.54.88,4.6,3.82,3.6,6.7-.84,2.43-2.91,3.14-4.8,3.9-1.66.68-3.85,1.72-5.46,2.21l2,.69a5.37,5.37,0,0,1-2.44,10.44l-.24,0ZM387.58,289l-18.17-6.28a4.5,4.5,0,1,0-3,8.5l5.4,1.87-9,2.77c-1.59.49-3.36,1.15-4.06,3.16a4.67,4.67,0,0,0,3,5.71L380,311a4.5,4.5,0,1,0,2.94-8.5l-5.29-1.83,8.73-2.77c1.75-.64,3.5-1.23,4.23-3.34C391.43,292.19,389.71,289.74,387.58,289Zm-1.51,8L374.4,300.6l8.21,2.84a3.52,3.52,0,1,1-2.3,6.64l-18.17-6.28a3.63,3.63,0,0,1-2.33-4.44c.55-1.59,2-2.14,3.42-2.55l11.9-3.63-8.34-2.89a3.51,3.51,0,1,1,2.29-6.64l18.17,6.28a3.55,3.55,0,0,1,2.38,4.3C389.05,295.91,387.57,296.44,386.07,297Zm-25,2.24c-.67,1-.12,3.06,1.83,3.73,1.36.47,5.52,2.09,5.66,1.71C368.52,304.66,361.22,301.32,361,299.2Zm6.21-11a4.21,4.21,0,0,1-1.54-2.54c-.66,1-.11,3.06,1.84,3.73,1.36.48,3.38,1.17,3.45.95A15.91,15.91,0,0,1,367.25,288.22Z"/>
  </g>
  <g style="isolation:isolate">
    <path d="M106.89,290.21a5.89,5.89,0,0,1,1.88-1.07l18.12-6.55a5.48,5.48,0,0,1,7.17,3.35l3,8.18c1.85,5.12-1.41,10.23-5.78,12.17L128.57,308a9.3,9.3,0,0,1-1.85.9,9.7,9.7,0,0,1-3,.6c-.27.12-.62.35-2.45,1.42a17,17,0,0,1-2.66,1.37,10.33,10.33,0,0,1-13.33-5.89l-3-8.14a5.42,5.42,0,0,1,2.21-6.59Zm29.23,4.24-3-8.19a4.56,4.56,0,0,0-6-2.77L109.1,290a4.55,4.55,0,0,0-2.79,6l3,8.15a9.45,9.45,0,0,0,12.19,5.36,10,10,0,0,0,4.55-3.38,9.38,9.38,0,0,0,4.28-.5C134.54,304.1,137.87,299.28,136.12,294.45ZM125.51,305.1a8.87,8.87,0,0,1-4.39,3.5,8.43,8.43,0,0,1-10.89-4.78l-3-8.15a3.59,3.59,0,0,1,2.15-4.7l18.12-6.55a3.53,3.53,0,0,1,4.64,2.19l3,8.19c1.55,4.26-1.43,8.53-5.22,9.9A8.81,8.81,0,0,1,125.51,305.1ZM119,301.9a1.73,1.73,0,0,0,1.06-2.27l-1.61-4.44-3.31,1.2,1.6,4.44A1.73,1.73,0,0,0,119,301.9ZM116.42,297l1.4-.5,1.27,3.51a.79.79,0,0,1-.45,1,.77.77,0,0,1-1-.5Zm15.64-7.34c-.29-.86-.52-1.5-.79-2.11a3.68,3.68,0,0,0-1.28-1.76,3.34,3.34,0,0,0-2.54-.05c-.48.15-1.08.34-1.68.56-1.7.61-3.79,1.37-3.72,1.57s5-1.58,7-.95c2.13.68,3.27,5.09,3.52,5S132.56,291.15,132.06,289.62Zm-4.38,9.13a1.73,1.73,0,0,0,1.07-2.27L127.14,292l-3.32,1.2,1.61,4.44A1.71,1.71,0,0,0,127.68,298.75Zm-2.55-4.94,1.4-.5,1.27,3.51a.79.79,0,0,1-.45,1,.77.77,0,0,1-.95-.5Z"/>
  </g>
  <g style="isolation:isolate">
    <path d="M118.87,315.1l16.91-9a5.43,5.43,0,1,1,5.24,9.5c-1.9,1.53-1.88,1.52-2.08,1.7a4.91,4.91,0,0,1-.91.63l-16.92,9a5.46,5.46,0,0,1-7.41-2.09,5.39,5.39,0,0,1,1.44-6.71l2.08-1.74A5.81,5.81,0,0,1,118.87,315.1Zm.45.85a4.47,4.47,0,1,0,4.21,7.88l16.91-9a4.47,4.47,0,1,0-4.21-7.88Zm17.38-8.17a3.48,3.48,0,1,1,3.28,6.14l-16.92,9a3.49,3.49,0,1,1-3.28-6.15Zm4.11,2.31c-.31-1.19-2.16-2.16-4-1.19-1.26.68-5.27,2.63-5.08,3C131.74,311.87,139.13,308.79,140.81,310.09Z"/>
  </g>
  <g style="isolation:isolate">
    <path d="M142.44,344.83v.1a5.75,5.75,0,0,1-2,2.93l-1.8,2a4.73,4.73,0,0,1-.78.71,5.66,5.66,0,0,1-4.78,1,5.45,5.45,0,0,1-2.93-2,5.32,5.32,0,0,1-.87-4.72l1.74-6.17-.38-.5-1.32,1a5.51,5.51,0,0,1-7.67-.94,5.43,5.43,0,0,1,.41-6.85l1.8-2a5.77,5.77,0,0,1,1.44-1.53l15.4-11.55a5.53,5.53,0,0,1,7.75,1l5.24,7c3.47,4.63,2.26,10.81-2.09,14.7l-1.47,1.68a12.43,12.43,0,0,1-1.92,1.76A12.28,12.28,0,0,1,142.44,344.83Zm.85-3.51a11.45,11.45,0,0,0,6.88-2.34c4.65-3.49,6.16-9.63,2.79-14.13l-5.24-7a4.58,4.58,0,0,0-6.41-.77l-15.4,11.55a4.47,4.47,0,1,0,5.36,7.14l2-1.53,1.35,1.81-1.57,4.59-.47,1.77a4.47,4.47,0,0,0,.71,3.94A4.72,4.72,0,0,0,135.8,348a4.81,4.81,0,0,0,5.72-3.34l1-3.42Zm-1.52-1.14-1.23,4.25a3.71,3.71,0,0,1-1.33,1.93,3.79,3.79,0,0,1-3.11.65,3.53,3.53,0,0,1-1.95-1.27,3.63,3.63,0,0,1-.56-3.06l2-7-2.1-2.8L130.68,335a3.49,3.49,0,1,1-4.19-5.58l15.4-11.55a3.55,3.55,0,0,1,5,.62l5.24,7c3,4,1.65,9.57-2.55,12.72A10.13,10.13,0,0,1,141.77,340.18Zm4.6-20.43a3.3,3.3,0,0,0-1.73-1.31,3.35,3.35,0,0,0-2.45.69c-.42.29-.93.64-1.45,1-1.44,1.08-2.58,1.93-2.45,2.1s3.69-2.49,5.72-2.45c2.24,0,3.45,2.15,3.66,2S146.71,320.21,146.37,319.75Zm-.16,9.71-2.93-3.91-4.07,3.05,2.93,3.92a2.5,2.5,0,0,0,3.58.44A2.45,2.45,0,0,0,146.21,329.46ZM143,331.9l-2.35-3.13L143,327l2.35,3.13a1.45,1.45,0,0,1-.26,2.09A1.47,1.47,0,0,1,143,331.9Z"/>
  </g>
  <g style="isolation:isolate">
    <path d="M146.16,356.54a5.64,5.64,0,0,1,1.13-1.82l6.75-7.46-.94-.85a5.45,5.45,0,0,1-.92-6.84l1.35-2.27a6.13,6.13,0,0,1,1.13-1.82,5.55,5.55,0,0,1,7.81-.49L173.57,345a5.56,5.56,0,0,1,.4,7.73l-1.38,2.31a4.93,4.93,0,0,1-.65.89,5.49,5.49,0,0,1-7.74.49l-1.53-1.38-9.16,10.12a5.41,5.41,0,0,1-8.7-6.39Zm15.67-20.84a4.66,4.66,0,0,0-6.26,6.91l2.19,2L148,355.37a4.54,4.54,0,1,0,6.73,6.09l9.76-10.78,2.18,2a4.66,4.66,0,0,0,6.26-6.91Zm10.59,15.86a3.57,3.57,0,0,1-5.07.35l-2.91-2.63L154,360.8a3.55,3.55,0,1,1-5.26-4.76l10.44-11.52-2.93-2.66a3.64,3.64,0,0,1,4.89-5.4l11.1,10.05A3.56,3.56,0,0,1,172.42,351.56Zm-11.67-14a3.68,3.68,0,0,0-1.95-1,2.49,2.49,0,0,0-2,.81,1.48,1.48,0,0,0-.18,1.52c.45-1,1.46-1.82,4.11-.32,1.57.87,3.18,2.17,3.22,2.11C164.19,340.52,161.24,338,160.75,337.57Z"/>
  </g>
  <g style="isolation:isolate">
    <path d="M182.05,362l-.17.29,2.59,1.52,2-3.4a5.44,5.44,0,1,1,9.46,5.38c-.82,2.3-.81,2.28-.88,2.54a5.16,5.16,0,0,1-.46,1l-9.72,16.58a5.49,5.49,0,0,1-7.44,2.1,5.41,5.41,0,0,1-2.28-6.49l.87-2.58a5.65,5.65,0,0,1,.73-2l.27-.46L174.42,375l-2.09,3.56a5.47,5.47,0,0,1-7.43,2.1,5.41,5.41,0,0,1-2.27-6.48l.87-2.58a5.86,5.86,0,0,1,.73-2L174,353.06a5.43,5.43,0,1,1,9.42,5.38l-.86,2.51A5.57,5.57,0,0,1,182.05,362Zm5.24-1.1-2.48,4.22-4.8-2.81,2.48-4.23a4.47,4.47,0,1,0-7.7-4.51l-9.73,16.58a4.47,4.47,0,1,0,7.7,4.52l2.54-4.33,4.81,2.82-2.54,4.32a4.48,4.48,0,1,0,7.72,4.53L195,365.41a4.48,4.48,0,1,0-7.73-4.53Zm6.88,4-9.73,16.59a3.49,3.49,0,1,1-6-3.54l3.06-5.21L175,368.93l-3.05,5.22a3.49,3.49,0,1,1-6-3.52L175.63,354a3.61,3.61,0,0,1,4.85-1.38,3.57,3.57,0,0,1,1.16,4.91l-3,5.11,6.5,3.81,3-5.11a3.5,3.5,0,1,1,6,3.53Zm-13.81-11.05c-.89-.85-3-.71-4,1.07-.73,1.24-3.13,5-2.78,5.22C173.54,360.13,178.24,353.63,180.36,353.86Zm9.65,8.31a4.21,4.21,0,0,1,2.79-1c-.89-.86-3-.71-4,1.07-.73,1.24-1.81,3.08-1.6,3.2A16,16,0,0,1,190,362.17Z"/>
  </g>
  <g style="isolation:isolate">
    <path d="M189.37,386.37a5.86,5.86,0,0,1,.35-2.15l6.16-18.29A5.45,5.45,0,0,1,203,362.4l4.24,1.42a15,15,0,0,1,9.52,17.58l-.27,2.15a17.16,17.16,0,0,1-.71,3.11A14.94,14.94,0,0,1,197,396.39L192.8,395a5.36,5.36,0,0,1-3.77-5.84Zm17.57-21.63-4.24-1.43a4.53,4.53,0,0,0-5.91,2.93l-6.16,18.29a4.55,4.55,0,0,0,2.92,5.94l4.24,1.43a14.34,14.34,0,0,0,9.15-27.16Zm-8.81,26.18-4.25-1.43a3.58,3.58,0,0,1-2.32-4.64l6.16-18.29a3.56,3.56,0,0,1,4.65-2.27l4.24,1.43a13.3,13.3,0,0,1-8.48,25.2Zm6.5-24.65a21.09,21.09,0,0,0-2.16-.7,3.56,3.56,0,0,0-2.17-.1,3.36,3.36,0,0,0-1.63,2c-.18.48-.41,1.06-.61,1.68-.58,1.71-.82,2.41-.61,2.48s1.41-3.51,3.11-4.64c1.87-1.25,6,.62,6.12.37S206.14,366.83,204.63,366.27Zm0,6.51-1.46-.49-3.83,11.36,1.46.49c2.74.92,5.93-.95,6.95-4S207.4,373.7,204.67,372.78Zm-3.45,10.39-.57-.19,3.17-9.42.52.18c2.24.75,3.37,3.57,2.52,6.1S203.41,383.91,201.22,383.17Zm1.94-.87a4.14,4.14,0,0,0,2.39-1.88,3.67,3.67,0,0,0-1.16-1.77Z"/>
  </g>
  <g style="isolation:isolate">
    <path d="M230.93,397l-2.71-.34-.21,1.59a5.47,5.47,0,0,1-6,4.85,5.41,5.41,0,0,1-4.65-5.07l-.21-2.71a5.85,5.85,0,0,1-.1-2.09l1.6-12.57a12.38,12.38,0,0,1,13.89-10.75,12.1,12.1,0,0,1,10.77,12.74l.16,2.18a13.35,13.35,0,0,1-.06,2.6L241.8,400a5.46,5.46,0,0,1-6,4.85,5.4,5.4,0,0,1-4.61-5.06C231,397.05,231,397,230.93,397Zm-11.34-16.22L218,393.35a4.48,4.48,0,1,0,8.88,1.13l.32-2.48,4.93.63-.32,2.47a4.47,4.47,0,1,0,8.86,1.13l1.6-12.57a11.27,11.27,0,0,0-9.85-12.8A11.38,11.38,0,0,0,219.59,380.78Zm21.69,2.75-1.6,12.57a3.48,3.48,0,1,1-6.9-.87l.44-3.5-6.88-.88-.44,3.5a3.5,3.5,0,1,1-6.93-.88l1.59-12.57a10.44,10.44,0,0,1,20.72,2.63Zm-15.82-7.48c3-2.56,5.46-2.59,5.51-2.95a8.48,8.48,0,0,0-9.23,7.66A18.42,18.42,0,0,1,225.46,376.05Zm2,5.73-.27,2.14,6.88.88.28-2.15a3.32,3.32,0,0,0-3.11-3.53A3.35,3.35,0,0,0,227.49,381.78Zm5.91.75-.14,1.12-4.93-.63.14-1.12a2.23,2.23,0,0,1,2.67-1.76A2.33,2.33,0,0,1,233.4,382.53Z"/>
  </g>
  <g style="isolation:isolate">
    <path d="M243.25,379.37a5.4,5.4,0,0,1-.53-2,5.61,5.61,0,0,1,2-4.74,5.41,5.41,0,0,1,3.12-1.26,5.65,5.65,0,0,1,4.68,2.11l3.39,4.25c.92-1.56,1.88-3.12,2.78-4.68a5.56,5.56,0,0,1,4.34-2.74,5.37,5.37,0,0,1,3.22.81,5.7,5.7,0,0,1,2.68,4.23l.75,2.67a6.44,6.44,0,0,1,.17,1.07,5.67,5.67,0,0,1-.74,3.26l-5.84,10,.45,6.41a5.59,5.59,0,0,1-11,1.9l-.72-2.6a6.31,6.31,0,0,1-.53-2.06l-.27-3.92-.72-.93c-1.88-2.38-3.89-4.89-5.58-7.11a5.94,5.94,0,0,1-1-2Zm18.64,15.87-.47-6.7,6-10.23a4.87,4.87,0,0,0,.63-2.75,4.7,4.7,0,0,0-2.24-3.67,4.48,4.48,0,0,0-2.65-.66,4.66,4.66,0,0,0-3.6,2.27l-3.48,5.87L251.82,374a4.5,4.5,0,0,0-6.44-.73,4.72,4.72,0,0,0-1.7,4,4.84,4.84,0,0,0,1,2.63c2.28,3,5,6.4,7.36,9.35l.44,6.65a4.72,4.72,0,1,0,9.41-.66Zm-8.4.59-.46-7-7.55-9.6a3.7,3.7,0,0,1,.51-5.12,3.6,3.6,0,0,1,2-.8,3.64,3.64,0,0,1,3,1.36l5.13,6.47,4.2-7.13a3.69,3.69,0,0,1,2.82-1.76,3.46,3.46,0,0,1,2.06.51,3.62,3.62,0,0,1,1.75,2.86,3.9,3.9,0,0,1-.48,2.16l-6.11,10.54c.16,2.32.3,4.63.46,7a3.7,3.7,0,1,1-7.39.52ZM247.11,377a2.71,2.71,0,0,1,1-2.58c-1.22-.2-2.49.59-2.34,2.65a4.88,4.88,0,0,0,1.29,2.57,11.33,11.33,0,0,0,2.22,2.42A11.52,11.52,0,0,1,247.11,377Zm15.11-2.26a3.37,3.37,0,0,1,1.85-.83,3.21,3.21,0,0,1,.7,0,1.9,1.9,0,0,0-1.73-.65,2.22,2.22,0,0,0-1.4.72,19.42,19.42,0,0,0-2.58,4.48C259.3,378.51,260.55,376.06,262.22,374.74Z"/>
  </g>
  <g style="isolation:isolate">
    <path d="M300.88,373.26a53,53,0,0,1,3.14,5.88,4,4,0,0,1,.2,1.25,5.33,5.33,0,0,1-3.51,5.35l-6.33,2.18,1.35,3.91a5.44,5.44,0,0,1-3.23,7,5.35,5.35,0,0,1-6.31-2.48c-.15-.21-.18-.3-1.4-2.34a5.63,5.63,0,0,1-1-1.84l-6.29-18.21a5.48,5.48,0,0,1,3.39-7.12l11.2-3.87a5.32,5.32,0,0,1,6.78,3.15l1.34,2.43.11.17a5,5,0,0,1,.48,1A5.84,5.84,0,0,1,300.88,373.26Zm.36,2.67a4.3,4.3,0,0,0-5.61-2.71l-7.17,2.48-.28-.82,7.17-2.48a4.53,4.53,0,0,0,2.65-5.84,4.31,4.31,0,0,0-5.6-2.71l-11.21,3.87a4.53,4.53,0,0,0-2.79,5.89l6.29,18.22A4.42,4.42,0,1,0,293,389L291.33,384l7.17-2.47A4.42,4.42,0,0,0,301.24,375.93Zm-19.71-7.23,11.2-3.87a3.29,3.29,0,0,1,4.34,2.05,3.51,3.51,0,0,1-2.06,4.55l-8.1,2.8,1,2.76,8.1-2.79a3.36,3.36,0,1,1,2.19,6.35l-8.1,2.8,2.05,5.92a3.45,3.45,0,1,1-6.51,2.25l-6.3-18.22A3.55,3.55,0,0,1,281.53,368.7Zm3.07.15c-.87.28-1.5.5-2.12.76a3.64,3.64,0,0,0-1.78,1.25,3.39,3.39,0,0,0-.09,2.55c.14.48.32,1.08.54,1.69.58,1.7.83,2.4,1,2.33s-1-3.63-.37-5.55c.71-2.13,5.14-3.2,5.06-3.45S286.14,368.37,284.6,368.85Z"/>
  </g>
  <g style="isolation:isolate">
    <path d="M307.85,380.28a12.47,12.47,0,0,1-2.21-2.78l-6.3-11A5.49,5.49,0,1,1,308.8,361l1.78,2a4.64,4.64,0,0,1,.66.9l5,8.66a1.44,1.44,0,0,0,.72-.19,1.33,1.33,0,0,0,.64-1.73l-6.29-11a5.48,5.48,0,1,1,9.46-5.53l1.75,2a5,5,0,0,1,.66.91l6.3,11a12.28,12.28,0,0,1-20,14.12ZM320,354.7a4.52,4.52,0,1,0-7.83,4.5l6.3,11a2.37,2.37,0,0,1-4.09,2.35l-6.3-11a4.53,4.53,0,1,0-7.85,4.51l6.3,11a11.4,11.4,0,1,0,19.77-11.36Zm5.44,11.45a10.4,10.4,0,1,1-18,10.36l-6.29-11a3.53,3.53,0,1,1,6.11-3.51l6.3,11a3.36,3.36,0,0,0,5.81-3.34l-6.3-11a3.53,3.53,0,1,1,6.11-3.51Zm-22.17-4.81c-1.19.35-2.11,2.24-1.07,4,.72,1.26,2.8,5.22,3.16,5C305.28,370.4,302,363.06,303.22,361.34Zm11.28-3.85a4.22,4.22,0,0,1,.51-2.93c-1.19.35-2.1,2.24-1.07,4,.72,1.26,1.79,3.12,2,3A15.44,15.44,0,0,1,314.5,357.49Z"/>
  </g>
  <g style="isolation:isolate">
    <path d="M333.6,368.19a6.48,6.48,0,0,1-1.7-1.35,5.93,5.93,0,0,1-1.28-5.24,9.08,9.08,0,0,1-2.18-1.24l-2-1.51a9.37,9.37,0,0,1-2.3-1.92c-3.69-4.2-2.84-11.52,1.63-15.45a12.44,12.44,0,0,1,5.74-2.92c2.23-.45,6-.47,8,1.72l2.24,1.71a4,4,0,0,1,.7.66,5.8,5.8,0,0,1,1.43,3.83,9.43,9.43,0,0,1,4.27,2.38l2,1.51a9.83,9.83,0,0,1,1.42,1.33c4.25,4.83,2.64,11.9-2,16a13.49,13.49,0,0,1-12.25,3,6.55,6.55,0,0,1-1.51-.84Zm5.14-20.76a4.71,4.71,0,0,0,.11-6.42c-1.7-1.93-5.1-1.95-7.11-1.51a11.34,11.34,0,0,0-5.33,2.7c-4.09,3.59-4.88,10.3-1.53,14.1,2.37,2.7,5.58,3.08,9,2.77a4.71,4.71,0,0,0-.95.62,4.61,4.61,0,0,0-.28,6.51,4.78,4.78,0,0,0,2,1.35A12.35,12.35,0,0,0,346,364.78c4.28-3.77,5.81-10.29,1.91-14.72a8.63,8.63,0,0,0-7.65-2.93A13.09,13.09,0,0,0,338.74,347.43Zm8.45,3.28c3.49,4,2.07,9.84-1.86,13.3A11.28,11.28,0,0,1,335,366.63a4.06,4.06,0,0,1-1.62-1.08,3.9,3.9,0,0,1,.24-5.32c.89-.78,2.07-.48,3.37-.47a6.24,6.24,0,0,0,3.82-1.54c.67-.58,2-2.08,1.19-2.68-.5-.35-2.78.91-3.67,1.25a24.93,24.93,0,0,1-5.44,1.37,8.42,8.42,0,0,1-7.24-2.53c-3-3.37-2.23-9.41,1.46-12.66a10.52,10.52,0,0,1,4.87-2.49c1.79-.36,4.76-.41,6.15,1.18a3.66,3.66,0,0,1-.21,5.13,3.5,3.5,0,0,1-2.86.79,4.33,4.33,0,0,0-3.53,1,2,2,0,0,0-.54,2.4c.27.31,2-.4,3.9-1.13a23.33,23.33,0,0,1,5.54-1.65A7.69,7.69,0,0,1,347.19,350.71Zm-21.16-.8c.09-4,1.88-5.58,1.64-5.85a8.15,8.15,0,0,0-.53,11.72A17.3,17.3,0,0,1,326,349.91Zm8.42-1c-1,.38-2.15.93-2.47,1.08a1.15,1.15,0,0,1,.35-.88,3.17,3.17,0,0,1,2.77-.45Zm1.49,9.72c.95-.26,1.92-.57,2.77-.88a19.25,19.25,0,0,0,2.66-1.34,4.4,4.4,0,0,1-.83.95,7.15,7.15,0,0,1-1.48,1A3.85,3.85,0,0,1,335.94,358.59Z"/>
  </g>
  <g style="isolation:isolate">
    <path d="M142,158.47a7.35,7.35,0,0,1,1.15.82l9.34,8.28,3.84-4.33a6.87,6.87,0,0,1,9.54-.45l2.88,1.68a7.63,7.63,0,0,1,1.18.84,6.77,6.77,0,0,1,.85,9.53l-8.76,9.88a6.72,6.72,0,0,1-8.47,1.19l-2.88-1.67a7,7,0,0,1-2.3-1.4l-18-15.94a6.68,6.68,0,1,1,8.74-10.09Zm10.05,11.4-13.6-12.06a5.48,5.48,0,1,0-7.26,8.19l18,15.95a5.71,5.71,0,0,0,8.06-.28L166,171.8a5.86,5.86,0,0,0-8.75-7.76Zm6.14-5a4.57,4.57,0,0,1,6.83,6.05l-8.76,9.88a4.47,4.47,0,0,1-6.3.23l-18-15.94a4.28,4.28,0,1,1,5.67-6.4l14.57,12.92ZM133,159.25c-1.27.88-1.6,3.47.33,5.18,1.35,1.2,5.38,5.06,5.72,4.68C139,169.13,132.16,161.78,133,159.25Z"/>
  </g>
  <g style="isolation:isolate">
    <path d="M189.87,136a7.77,7.77,0,0,1,.88,1.15,8,8,0,0,1,.79,1.91,7.21,7.21,0,0,1,4.87,3.17l2.3,2.49a7.53,7.53,0,0,1,.87,1.13,6.77,6.77,0,0,1-2,9.35L184.81,163a6.67,6.67,0,0,1-8.45-1.25l-2.28-2.47a6.9,6.9,0,0,1-1.8-2l-12.6-20.53a6.83,6.83,0,0,1,2.2-9.59l12.63-7.76a6.65,6.65,0,0,1,9.12,2l2.47,2.78a6.44,6.44,0,0,1,.87,1.12,7.22,7.22,0,0,1,.06,7.5,4.71,4.71,0,0,1,.58.77Zm-10,10.24-.57-.92,5.55-3.41a5.49,5.49,0,1,0-5.75-9.36l-5.55,3.41L173,135l8.08-5a5.67,5.67,0,0,0,1.65-7.85,5.41,5.41,0,0,0-7.57-1.79l-12.63,7.76a5.67,5.67,0,0,0-1.81,7.94l12.61,20.53a5.71,5.71,0,0,0,7.81,2.06l12.73-7.82a5.44,5.44,0,0,0,1.8-7.62,5.64,5.64,0,0,0-7.72-2Zm8.75-3.87a4.34,4.34,0,0,1,6,1.57,4.16,4.16,0,0,1-1.42,5.87l-12.73,7.82a4.46,4.46,0,0,1-6.12-1.59l-12.61-20.53a4.42,4.42,0,0,1,1.46-6.21l12.63-7.76a4.13,4.13,0,0,1,5.86,1.34,4.38,4.38,0,0,1-1.29,6.1l-9.13,5.61,1.92,3.11,6.6-4a4.2,4.2,0,1,1,4.39,7.16l-6.59,4,1.91,3.12ZM167,128.62c-1,.57-1.7,1-2.39,1.5a4.53,4.53,0,0,0-1.83,2,4.22,4.22,0,0,0,.58,3.13c.31.55.69,1.23,1.12,1.92,1.17,1.92,1.66,2.71,1.89,2.57s-2.24-4.15-2-6.68c.3-2.79,5.41-5.3,5.24-5.58S168.72,127.62,167,128.62Z"/>
  </g>
  <g style="isolation:isolate">
    <path d="M240.37,109.41a7.33,7.33,0,0,1,.38,1.29l3.05,15.24c1.53,7.62-.4,15.84-11.22,18a11.79,11.79,0,0,1-6.21-.29,15,15,0,0,1-6.47,2.83c-8.5,1.71-12.73-2.28-15-7.76l-1.09-2.56a22.87,22.87,0,0,1-2.16-6.33l-3.06-15.24a7.15,7.15,0,0,1,5.58-8.34c2.88-.57,5.94.19,7.56,3.08a7,7,0,0,1,5.74-5.74,6.88,6.88,0,0,1,7.48,3,7.28,7.28,0,0,1,5.78-5.62,7.12,7.12,0,0,1,8.31,5.28Zm-15.74,0A5.92,5.92,0,0,0,213,111.71l3.09,15.41c.3,1.53.19,2.5-.34,2.61s-1-.75-1.31-2.25L211.37,112a5.93,5.93,0,0,0-11.62,2.33l3.06,15.23c1.41,7.06,6.05,13.42,16,11.42a10.42,10.42,0,0,0,5.56-2.8,10.67,10.67,0,0,0,6.24.44c10-2,11.77-9.65,10.35-16.71l-3-15.23a5.93,5.93,0,0,0-11.62,2.33l3.09,15.41c.31,1.53.2,2.5-.33,2.61s-1-.75-1.31-2.25Zm1.84,15.69c.51,2.56,1.29,3.54,2.82,3.23s1.86-1.69,1.38-4.1l-3.1-15.41a4.62,4.62,0,0,1,9.06-1.82l3.06,15.24c1.29,6.44-.37,13.41-9.34,15.21a8.87,8.87,0,0,1-6.3-.73,8.73,8.73,0,0,1-5.5,3.1c-8.94,1.79-13.16-4-14.45-10.45L201,114.11a4.62,4.62,0,0,1,9.06-1.82l3.1,15.44c.51,2.56,1.29,3.54,2.82,3.23s1.86-1.69,1.38-4.1l-3.09-15.41a4.62,4.62,0,0,1,9.06-1.82ZM205.21,110c-1.54-.06-3.37,1.81-2.87,4.34.36,1.76,1.25,7.27,1.75,7.17C204.06,121.52,203,111.54,205.21,110Zm11.51.63a5.22,5.22,0,0,1,1.76-3.26c-1.54-.06-3.37,1.81-2.86,4.34.35,1.76.87,4.38,1.17,4.32A19.41,19.41,0,0,1,216.72,110.63Zm13.22-2.71a5.22,5.22,0,0,1,1.76-3.26c-1.54-.06-3.37,1.8-2.86,4.33.35,1.77.88,4.39,1.17,4.33A19.86,19.86,0,0,1,229.94,107.92Z"/>
  </g>
  <g style="isolation:isolate">
    <path d="M269,108.57l6.58-4A6.66,6.66,0,0,1,285,107a7.22,7.22,0,0,1,.93,4.53l.14,3.4a6.71,6.71,0,0,1-.1,1.35,7,7,0,0,1-3.29,4.88l-4.46,2.73,3.78,7.19a7.28,7.28,0,0,1,.78,4.32v.18l.14,3.22a6.52,6.52,0,0,1-.09,1.32,7.07,7.07,0,0,1-3.44,5,7,7,0,0,1-4.38.77,6.65,6.65,0,0,1-4.88-3.6c-1.9-3.65-2.46-4.5-4.4-8.23l-.52,3.14a6.91,6.91,0,0,1-7.81,5.78,6.83,6.83,0,0,1-5.61-6.58v-.3l-.11-3a6.73,6.73,0,0,1-.06-2.65l3.89-23.72A6.84,6.84,0,1,1,269,108.57Zm-1.22.19a5.66,5.66,0,1,0-11.16-1.82l-3.88,23.71a5.66,5.66,0,1,0,11.16,1.83l1-6.4,6,11.23a5.61,5.61,0,0,0,4.05,2.94,5.9,5.9,0,0,0,5.94-8.6c-2.08-3.87-4.12-7.73-6.16-11.62l7.1-4.37a5.9,5.9,0,0,0,2.08-8,5.73,5.73,0,0,0-3.92-2.77,5.59,5.59,0,0,0-3.8.74l-8.78,5.35Zm-2,4.66,11.08-6.73a4.32,4.32,0,0,1,3-.58,4.42,4.42,0,0,1,3.08,2.15,4.69,4.69,0,0,1,.53,3.06,4.64,4.64,0,0,1-2.16,3.18l-8.19,5.07,6.74,12.68a4.68,4.68,0,0,1-1.77,6.19,4.41,4.41,0,0,1-2.85.54A4.69,4.69,0,0,1,272,136.7c-2.37-4.46-4.28-8-6.65-12.49l-1.55.93-1.16,7.13a4.41,4.41,0,1,1-8.71-1.42l3.88-23.71a4.41,4.41,0,1,1,8.71,1.42Zm-2.48-8.62c-1.42-.59-3.79.51-4.21,3-.29,1.78-1.4,7.25-.89,7.33C258.14,115.18,260.7,105.48,263.27,104.8Zm15.66,3.9a3.26,3.26,0,0,1,2.62.34c.11-.31-.22-.89-.91-1.3a2.91,2.91,0,0,0-1.94-.41c-1,.13-5.21,2.85-6.48,3.71C272.43,111.23,276.16,109.28,278.93,108.7Z"/>
  </g>
  <g style="isolation:isolate">
    <path d="M305,148.5l-3-1.6-.95,1.77a6.85,6.85,0,0,1-9.17,3,6.77,6.77,0,0,1-3.2-8l1-3.27a7.42,7.42,0,0,1,.81-2.49l7.43-14a15.45,15.45,0,0,1,21-6.41,15.13,15.13,0,0,1,7,19.65l-.78,2.61a16,16,0,0,1-1.23,3l-7.42,14a6.82,6.82,0,0,1-9.2,3,6.74,6.74,0,0,1-3.15-7.95C305,148.57,305,148.54,305,148.5Zm-6.08-24-7.43,14a5.6,5.6,0,1,0,9.88,5.24l1.46-2.75,5.49,2.91-1.47,2.76a5.59,5.59,0,1,0,9.86,5.23l7.43-14a14.06,14.06,0,0,0-5.85-19.3A14.21,14.21,0,0,0,299,124.52Zm24.13,12.81-7.43,14a4.36,4.36,0,1,1-7.68-4.09l2.07-3.89-7.66-4.07-2.07,3.9a4.37,4.37,0,1,1-7.71-4.1l7.43-14a13,13,0,0,1,23.05,12.24ZM307.9,121.6c4.69-1.66,7.53-.62,7.74-1-4.82-2.56-11.23-.66-14.17,4.87C301.69,125.56,303.72,123.08,307.9,121.6Zm-.16,7.59-1.26,2.38,7.65,4.07,1.27-2.39a4.14,4.14,0,0,0-2.07-5.51A4.2,4.2,0,0,0,307.74,129.19Zm6.57,3.49-.66,1.24L308.17,131l.66-1.24a2.78,2.78,0,0,1,3.9-.89C314.32,129.73,315,131.41,314.31,132.68Z"/>
  </g>
  <g style="isolation:isolate">
    <path d="M322.9,159.29a6.8,6.8,0,0,1,1.56-2.14l17.41-16.56c2.5-2.38,7.08-2.79,9.74,0,2.21,2.33,1.89,5,1.49,7.36l-1.34,7.86,2.43-2.31a6.83,6.83,0,1,1,9.54,9.77c-1.78,2.47-1.76,2.45-1.94,2.75a6.84,6.84,0,0,1-.9,1.06l-17.41,16.55c-2.44,2.32-6.89,2.9-9.51.14-2.21-2.32-1.8-5-1.57-7.57.2-2.22.3-5.25.69-7.32l-1.93,1.84A6.71,6.71,0,0,1,321,162l.18-.25Zm22.46,19.79,17.41-16.55a5.63,5.63,0,1,0-7.75-8.15l-5.17,4.92,2.07-11.54c.37-2,.66-4.39-1.18-6.33-2.19-2.3-5.95-2-8,0L325.28,158a5.63,5.63,0,1,0,7.76,8.15l5.06-4.82-1.94,11.29c-.29,2.3-.65,4.58,1.28,6.61C339.61,181.53,343.31,181,345.36,179.08Zm-8-6.24,2.67-15-7.87,7.48a4.4,4.4,0,1,1-6.06-6.37l17.42-16.56a4.52,4.52,0,0,1,6.26,0c1.44,1.52,1.2,3.49.86,5.26l-2.8,15.29,8-7.6a4.39,4.39,0,1,1,6.05,6.37l-17.41,16.55c-1.59,1.51-4.44,1.95-6.14.17C336.84,176.75,337.1,174.8,337.39,172.84Zm11.89-29.07c-.77-1.34-3.32-1.89-5.19-.11-1.31,1.24-5.5,4.93-5.14,5.3C338.92,148.94,346.83,142.75,349.28,143.77ZM357.9,157a5.26,5.26,0,0,1,3.7-.24c-.77-1.34-3.32-1.89-5.19-.11-1.31,1.24-3.24,3.08-3,3.3A19.54,19.54,0,0,1,357.9,157Z"/>
  </g>
  <g style="isolation:isolate">
    <path d="M100.76,241.63a6,6,0,0,1-.36-2.07,5.6,5.6,0,0,1,2.33-4.58,5.45,5.45,0,0,1,3.19-1,5.39,5.39,0,0,1,4.52,2.43c1,1.51,2.06,2.95,3.09,4.46,1-1.48,2.07-3,3.08-4.46a5.64,5.64,0,0,1,4.51-2.43,5.37,5.37,0,0,1,3.14,1,5.71,5.71,0,0,1,2.4,4.34l.55,2.78a4.65,4.65,0,0,1,.1,1.06,5.73,5.73,0,0,1-1,3.19l-3.51,5.16,2.83,4.16a5.83,5.83,0,0,1,1,3l.55,2.71a4.94,4.94,0,0,1,.1,1.08,5.6,5.6,0,0,1-2.38,4.56,5.38,5.38,0,0,1-7.58-1.39l-3.1-4.54c-1,1.52-2.11,3-3.14,4.52a5.54,5.54,0,0,1-4.47,2.4,5.43,5.43,0,0,1-3.14-1,5.36,5.36,0,0,1-2.18-3.43l-.53-2.64a6.1,6.1,0,0,1-.39-2.09,5.66,5.66,0,0,1,1-3.21l3.58-5.21-2.81-4.11a5.33,5.33,0,0,1-.81-2Zm24.1.62a4.83,4.83,0,0,0,.84-2.69,4.73,4.73,0,0,0-2-3.82,4.56,4.56,0,0,0-2.59-.84,4.63,4.63,0,0,0-3.75,2l-3.84,5.59-3.86-5.59a4.48,4.48,0,0,0-6.36-1.18,4.74,4.74,0,0,0-2,3.82,4.82,4.82,0,0,0,.8,2.69l4.75,7-4.75,7a4.8,4.8,0,0,0-.8,2.66,4.64,4.64,0,0,0,2,3.84,4.51,4.51,0,0,0,2.61.82,4.67,4.67,0,0,0,3.75-2l3.86-5.61,3.84,5.61a4.76,4.76,0,0,0,3.75,2,4.6,4.6,0,0,0,2.59-.82,4.71,4.71,0,0,0,2-3.84,4.78,4.78,0,0,0-.84-2.66l-4.73-7Zm-6,7c1.7,2.52,3.46,5,5.14,7.56a3.69,3.69,0,0,1-.89,5.07,3.53,3.53,0,0,1-5-.91l-4.66-6.8-4.68,6.8a3.65,3.65,0,0,1-2.93,1.56,3.58,3.58,0,0,1-2-.65,3.65,3.65,0,0,1-1.53-3,3.9,3.9,0,0,1,.65-2.09l5.13-7.56L103,241.67a3.94,3.94,0,0,1-.65-2.11,3.66,3.66,0,0,1,1.53-3,3.57,3.57,0,0,1,2-.64,3.63,3.63,0,0,1,2.93,1.56l4.68,6.79,4.66-6.79a3.55,3.55,0,0,1,5-.92,3.69,3.69,0,0,1,.89,5.07Zm-14.11-9.69A2.69,2.69,0,0,1,106,237c-1.2-.29-2.52.41-2.52,2.47a4.85,4.85,0,0,0,1.1,2.64,11.37,11.37,0,0,0,2,2.57A11.52,11.52,0,0,1,104.8,239.54Zm15.19-1.2a3.25,3.25,0,0,1,1.9-.7,3,3,0,0,1,.69.1,1.89,1.89,0,0,0-1.68-.77,2.25,2.25,0,0,0-1.44.62,19.68,19.68,0,0,0-2.88,4.28C116.82,241.89,118.24,239.54,120,238.34Z"/>
  </g>
  <g style="isolation:isolate">
    <path d="M373.85,242.58a6,6,0,0,1-.36-2.07,5.6,5.6,0,0,1,2.33-4.58,5.45,5.45,0,0,1,3.19-1,5.39,5.39,0,0,1,4.52,2.43c1,1.51,2.06,3,3.09,4.46,1-1.49,2.07-3,3.08-4.46a5.64,5.64,0,0,1,4.51-2.43,5.37,5.37,0,0,1,3.14,1,5.71,5.71,0,0,1,2.4,4.34l.55,2.78a4.65,4.65,0,0,1,.1,1.06,5.73,5.73,0,0,1-1,3.19l-3.51,5.16,2.83,4.16a5.83,5.83,0,0,1,1,3l.55,2.71a4.94,4.94,0,0,1,.1,1.08A5.6,5.6,0,0,1,398,268a5.38,5.38,0,0,1-7.58-1.39l-3.1-4.54c-1,1.52-2.11,3-3.14,4.52a5.54,5.54,0,0,1-4.47,2.4,5.37,5.37,0,0,1-5.32-4.42l-.53-2.64a6.1,6.1,0,0,1-.39-2.09,5.66,5.66,0,0,1,1-3.21l3.58-5.21-2.81-4.11a5.31,5.31,0,0,1-.81-2Zm24.1.62a4.83,4.83,0,0,0,.84-2.69,4.73,4.73,0,0,0-2-3.82,4.56,4.56,0,0,0-2.59-.84,4.63,4.63,0,0,0-3.75,2l-3.84,5.59-3.86-5.59a4.48,4.48,0,0,0-6.36-1.18,4.74,4.74,0,0,0-1.95,3.82,4.82,4.82,0,0,0,.8,2.69l4.75,7-4.75,7a4.8,4.8,0,0,0-.8,2.66,4.64,4.64,0,0,0,1.95,3.84,4.51,4.51,0,0,0,2.61.82,4.64,4.64,0,0,0,3.75-2l3.86-5.61,3.84,5.61a4.73,4.73,0,0,0,3.75,2,4.6,4.6,0,0,0,2.59-.82,4.71,4.71,0,0,0,2-3.84,4.78,4.78,0,0,0-.84-2.66l-4.73-7Zm-5.95,7c1.7,2.52,3.46,5,5.14,7.56a3.69,3.69,0,0,1-.89,5.07,3.53,3.53,0,0,1-5-.91l-4.66-6.8-4.68,6.8a3.65,3.65,0,0,1-2.93,1.56,3.58,3.58,0,0,1-2-.65,3.65,3.65,0,0,1-1.53-3,3.9,3.9,0,0,1,.65-2.09l5.13-7.56-5.13-7.56a3.94,3.94,0,0,1-.65-2.11,3.65,3.65,0,0,1,1.53-3,3.57,3.57,0,0,1,2-.64,3.63,3.63,0,0,1,2.93,1.56l4.68,6.79,4.66-6.79a3.55,3.55,0,0,1,5-.92,3.69,3.69,0,0,1,.89,5.07Zm-14.11-9.69a2.69,2.69,0,0,1,1.2-2.5c-1.2-.29-2.52.41-2.52,2.47a4.85,4.85,0,0,0,1.1,2.64,11.37,11.37,0,0,0,2,2.57A11.56,11.56,0,0,1,377.89,240.49Zm15.19-1.2a3.25,3.25,0,0,1,1.9-.7,3,3,0,0,1,.69.1,1.89,1.89,0,0,0-1.68-.77,2.25,2.25,0,0,0-1.44.62,19.44,19.44,0,0,0-2.88,4.28C389.91,242.84,391.33,240.49,393.08,239.29Z"/>
  </g>
  <path d="M113,250" style="fill:none;stroke:#000;stroke-miterlimit:10"/>
  <path d="M386,250" style="fill:none;stroke:#000;stroke-miterlimit:10"/>
</svg>
