<?xml version="1.0" encoding="iso-8859-1"?>
<!-- Generator: Adobe Illustrator 18.0.0, SVG Export Plug-In . SVG Version: 6.00 Build 0)  -->
<!DOCTYPE svg PUBLIC "-//W3C//DTD SVG 1.1//EN" "http://www.w3.org/Graphics/SVG/1.1/DTD/svg11.dtd">
<svg version="1.1" id="&#x421;&#x43B;&#x43E;&#x439;_1"
	 xmlns="http://www.w3.org/2000/svg" xmlns:xlink="http://www.w3.org/1999/xlink" x="0px" y="0px" viewBox="0 0 595.28 841.89"
	 style="enable-background:new 0 0 595.28 841.89;" xml:space="preserve">
<g>
	<path style="fill:#FFFFFF;" d="M189.114,203.078c3.704-7.778,5.556-11.643,9.26-19.331c-20.359,0.964-40.701,2.136-61.04,3.518
		c-0.023,10.987-0.045,21.973-0.068,32.96c5.11,5.075,7.666,7.593,12.778,12.6c9.44-0.932,14.164-1.363,23.617-2.155
		c1,1.017,1.5,1.525,2.501,2.541c-0.014,5.865-0.021,8.798-0.035,14.663c-1.006,1.152-1.508,1.73-2.514,2.887
		c-4.707,0.454-7.06,0.69-11.764,1.184c-1.039-0.96-1.558-1.44-2.596-2.402c0.006-2.8,0.01-4.2,0.016-7
		c-8.823-1.398-13.231-2.08-22.042-3.423c-0.018,8.555-0.026,12.833-0.044,21.388c5.107,4.914,7.661,7.355,12.772,12.214
		c11.778-1.505,23.574-2.84,35.385-4.007c5.148-5.895,7.723-8.808,12.874-14.576c0.024-10.525,0.048-21.051,0.072-31.576
		c-4.817-4.714-7.224-7.076-12.038-11.823c-9.728,0.633-14.589,0.981-24.307,1.741c-1.039-0.988-1.558-1.482-2.597-2.472
		c0.005-1.977,0.007-2.965,0.011-4.942C169.269,204.322,179.191,203.659,189.114,203.078z"/>
	<path style="fill:#FFFFFF;" d="M536.951,242.38c-2.109-2.732-3.165-4.089-5.276-6.789c2.109-2.126,3.164-3.193,5.274-5.338
		c-0.002-9.393-0.003-14.089-0.005-23.482c-5.107-6.424-7.664-9.59-12.782-15.84c-16.537-1.492-33.091-2.779-49.651-3.928
		c0.017,7.804,0.025,11.706,0.041,19.51c1.926,0.161,2.889,0.243,4.815,0.409c0.033,15.987,0.065,31.975,0.098,47.962
		c-1.924-0.238-2.887-0.355-4.812-0.587c0.017,7.846,0.025,11.769,0.041,19.614c10.552,1.412,21.098,2.976,31.612,4.688
		c-0.011-8.053-0.017-12.08-0.028-20.134c-1.919-0.275-2.879-0.411-4.799-0.68c-0.01-6.398-0.015-9.598-0.025-15.996
		c4.381,0.552,6.57,0.835,10.947,1.418c1.038,1.301,1.557,1.953,2.595,3.261c0.012,11.19,0.025,22.38,0.037,33.57
		c10.697,1.805,16.039,2.766,26.704,4.805c0-8.33,0-12.495,0-20.826c-1.912-0.325-2.868-0.486-4.781-0.804
		C536.953,254.882,536.952,250.715,536.951,242.38z M512.375,223.07c-4.38-0.503-6.57-0.747-10.953-1.223
		c-0.008-5.162-0.012-7.742-0.02-12.904c4.384,0.427,6.576,0.646,10.957,1.097c1.039,1.27,1.559,1.907,2.598,3.184
		c0.003,2.893,0.005,4.339,0.008,7.232C513.93,221.503,513.411,222.026,512.375,223.07z"/>
	<path style="fill:#FFFFFF;" d="M357.028,309.51c-0.005-4.254-0.008-6.381-0.014-10.635c-1.222-1.296-1.833-1.943-3.055-3.234
		c1.219-1.183,1.828-1.774,3.047-2.956c-0.006-4.794-0.009-7.191-0.015-11.985c-2.954-3.122-4.431-4.675-7.385-7.769
		c-9.535-0.351-19.083-0.573-28.623-0.668c0.002,4.186,0.002,6.279,0.004,10.465c1.11,0.013,1.665,0.02,2.775,0.036
		c0.004,10.255,0.007,15.382,0.011,25.637c-1.111-0.018-1.666-0.026-2.776-0.041c0.002,4.209,0.002,6.313,0.004,10.521
		c7.311,0.103,10.966,0.191,18.275,0.437c-0.004-4.217-0.005-6.325-0.009-10.542c-1.111-0.036-1.666-0.053-2.776-0.085
		c-0.003-3.363-0.004-5.045-0.006-8.408c2.531,0.071,3.797,0.111,6.328,0.198c0.6,0.626,0.9,0.94,1.5,1.568
		c0.007,6.982,0.01,10.472,0.017,17.454c6.197,0.243,9.295,0.39,15.489,0.735c-0.006-4.234-0.009-6.351-0.014-10.586
		C358.693,309.595,358.138,309.566,357.028,309.51z M342.801,289.99c-2.53-0.082-3.796-0.12-6.327-0.188
		c-0.002-2.713-0.003-4.069-0.005-6.782c2.53,0.065,3.795,0.101,6.325,0.181c0.6,0.625,0.9,0.938,1.5,1.564
		c0.001,1.504,0.002,2.256,0.004,3.76C343.699,289.111,343.4,289.404,342.801,289.99z"/>
	<path style="fill:#FFFFFF;" d="M209.436,154.001c-6.855,1.315-10.282,1.984-17.136,3.349c-0.003,1.153-0.004,1.729-0.007,2.883
		c-5.32,0.164-7.98,0.25-13.299,0.432c0.012-4.753,0.018-7.13,0.031-11.883c1.239-0.034,1.858-0.05,3.097-0.083
		c-0.003,1.16-0.005,1.74-0.008,2.899c6.812-0.192,10.219-0.281,17.034-0.447c0.022-8.808,0.033-13.212,0.055-22.019
		c-6.813,0.089-10.219,0.136-17.031,0.239c-0.003,1.16-0.004,1.74-0.007,2.899c-1.239,0.021-1.858,0.031-3.096,0.052
		c0.012-4.788,0.019-26.507,0.031-31.295c5.318-0.053,7.977-0.078,13.296-0.125c-0.003,1.153-0.004,16.369-0.007,17.522
		c6.844,1.681,10.267,7.2,17.112,8.863c0.022-9.358,0.033-33.361,0.055-42.719c-18.606,0-37.213,0-55.819,0
		c-0.017,6.695-0.025,10.042-0.041,16.737c1.821-0.022,2.731-0.032,4.552-0.053c-0.034,13.621-0.068,46.566-0.103,60.187
		c-1.82,0.073-2.73,0.109-4.551,0.184c-0.017,6.731-0.025,10.096-0.042,16.827c18.607-0.948,37.214-1.756,55.833-2.424
		C209.405,167.215,209.415,162.81,209.436,154.001z"/>
	<path style="fill:#FFFFFF;" d="M316.394,158.466c-1.827-0.004-2.74-0.006-4.567-0.008c-0.002-12.915-0.003-45.153-0.005-58.068
		c1.825,0.001,2.737,0.001,4.562,0.002c-0.002-6.33-0.002-9.495-0.004-15.825c-9.987,0-19.973,0-29.96,0c0,0.309,0,0.463,0,0.772
		c0.33,0.019,0.6,0.279,0.6,0.595c0,0.316-0.27,0.577-0.6,0.595c0,0.086,0,0.128,0,0.214c0.33,0.018,0.6,0.279,0.6,0.595
		c0,0.316-0.27,0.567-0.6,0.586c0,0.115,0,0.173,0,0.288c0.33,0.018,0.6,0.269,0.6,0.586c0,0.326-0.27,0.577-0.601,0.596
		c0,0.119,0,0.179,0,0.298c-2.296,0.001-3.445,0.002-5.741,0.004c0-0.13,0-0.195,0-0.326c-0.25-0.074-0.43-0.298-0.43-0.568
		c0-0.261,0.18-0.484,0.43-0.559c0-0.138,0-0.207,0-0.344c-0.25-0.074-0.43-0.298-0.43-0.558c0-0.261,0.18-0.484,0.43-0.568
		c0-0.108,0-0.162,0-0.27c-0.25-0.084-0.43-0.307-0.43-0.568c0-0.261,0.18-0.484,0.43-0.568c0-0.32,0-0.48,0.001-0.8
		c-9.99,0-19.98,0-29.97,0c-0.001,0.318-0.001,0.478-0.001,0.796c0.27,0.065,0.469,0.3,0.469,0.58s-0.201,0.515-0.471,0.581
		c0,0.101,0,0.152,0,0.253c0.27,0.065,0.47,0.299,0.469,0.58c0,0.281-0.201,0.506-0.471,0.572c0,0.131,0,0.197-0.001,0.328
		c0.27,0.065,0.47,0.29,0.469,0.571c0,0.281-0.201,0.515-0.471,0.581c0,0.127,0,0.191,0,0.318c-2.296,0.003-3.444,0.005-5.741,0.009
		c0-0.124,0-0.186,0.001-0.31c-0.31-0.028-0.56-0.281-0.559-0.59c0.001-0.3,0.251-0.554,0.561-0.582c0-0.124,0-0.186,0.001-0.31
		c-0.31-0.028-0.56-0.281-0.559-0.581s0.251-0.563,0.561-0.591c0-0.094,0-0.141,0-0.234c-0.31-0.028-0.56-0.291-0.559-0.591
		c0.001-0.3,0.251-0.563,0.561-0.591c0-0.315,0.001-0.473,0.001-0.788c-9.983,0-19.967,0-29.95,0
		c-0.015,6.462-0.022,9.693-0.037,16.155c1.82-0.013,2.731-0.019,4.551-0.032c-0.029,13.16-0.059,45.643-0.088,58.803
		c-1.822,0.043-2.732,0.065-4.554,0.11c-0.015,6.496-0.022,9.744-0.037,16.24c33.845-1.005,67.684-1.494,101.543-1.469
		C316.396,168.012,316.396,164.83,316.394,158.466z M255.183,156.075c-0.002,1.525-1.316,2.768-2.938,2.792
		c-3.593,0.053-5.389,0.082-8.982,0.143c-1.622,0.028-2.941-1.179-2.939-2.71c0.021-11.426,0.042-42.176,0.063-53.602
		c0.002-1.174,1.024-2.138,2.285-2.144c0.63-0.003,1.201-0.25,1.612-0.637c0.411-0.387,0.662-0.922,0.663-1.513
		c0.005-2.687,0.007-3.165,0.012-5.851c2.051-0.614,3.982-0.626,5.741,0.063c-0.004,2.281-0.005,2.557-0.009,4.838
		c-0.002,1.395,1.233,2.66,2.636,3.098c1.077,0.336,1.907,2.274,1.906,3.341C255.215,114.845,255.199,145.122,255.183,156.075z
		 M290.944,155.761c-0.001,1.515-1.313,2.739-2.946,2.748c-3.59,0.019-5.385,0.031-8.974,0.058
		c-1.633,0.013-2.943-1.196-2.942-2.714c0.01-10.906,0.02-41.136,0.03-52.042c0.001-1.434,1.186-3.025,2.644-3.443
		c1.087-0.311,1.912-1.977,1.913-3.029c0.002-2.267,0.003-2.536,0.005-4.803c2.051-0.626,3.971-0.673,5.741-0.014
		c-0.001,2.284-0.002,2.561-0.004,4.846c-0.001,1.386,1.224,2.646,2.629,3.084c1.088,0.339,1.92,2.266,1.919,3.326
		C290.955,114.663,290.949,144.874,290.944,155.761z"/>
	<path style="fill:#FFFFFF;" d="M324.9,262.8c19.795,0.245,39.592,1.016,59.357,2.231c-0.016-8.76-0.024-13.14-0.04-21.901
		c-7.273-0.389-10.91-0.56-18.187-0.857c0.002,1.3,0.003,1.951,0.005,3.251c-5.651-0.235-8.478-0.339-14.131-0.517
		c-0.006-5.301-0.009-7.952-0.015-13.254c1.316,0.038,1.974,0.057,3.29,0.098c0.002,1.297,0.002,1.945,0.004,3.242
		c7.238,0.229,10.857,0.365,18.092,0.681c-0.016-9.991-0.024-14.987-0.041-24.978c-7.232-0.259-10.848-0.371-18.082-0.559
		c0.002,1.297,0.002,1.945,0.004,3.242c-1.315-0.035-1.973-0.052-3.289-0.085c-0.006-5.341-0.009-8.011-0.016-13.352
		c5.647,0.124,8.47,0.196,14.116,0.36c0.002,1.3,0.003,1.951,0.005,3.251c7.27,0.218,10.905,0.344,18.172,0.629
		c-0.016-8.721-0.024-13.081-0.04-21.801c-19.742-0.619-39.493-1.011-59.243-1.136c0.003,7.314,0.005,10.971,0.009,18.285
		c1.934,0.017,2.901,0.026,4.835,0.047c0.009,14.935,0.018,29.87,0.027,44.805c-1.936-0.03-2.905-0.044-4.841-0.067
		C324.895,251.77,324.897,255.447,324.9,262.8z"/>
	<path style="fill:#FFFFFF;" d="M390.769,293.595c-5.407-0.421-8.112-0.614-13.522-0.966c-0.6-0.65-0.9-0.975-1.5-1.624
		c-0.003-1.901-0.005-2.851-0.008-4.751c0.598-0.574,0.897-0.861,1.494-1.435c2.705,0.169,4.057,0.258,6.761,0.443
		c0.577,0.652,0.866,0.979,1.444,1.632c0.003,1.884,0.005,2.826,0.009,4.711c5.076,0.366,7.613,0.565,12.686,0.991
		c-0.008-3.742-0.012-5.613-0.019-9.356c-2.952-3.271-4.428-4.896-7.381-8.13c-8.131-0.573-12.198-0.825-20.335-1.257
		c-2.944,2.848-4.417,4.272-7.362,7.126c0.008,5.545,0.012,8.318,0.02,13.863c2.955,3.153,4.433,4.738,7.388,7.924
		c5.435,0.336,8.152,0.522,13.584,0.931c0.578,0.656,0.866,0.985,1.444,1.642c0.003,1.816,0.005,2.724,0.008,4.54
		c-0.576,0.545-0.863,0.817-1.439,1.362c-2.705-0.211-4.058-0.312-6.764-0.504c-0.6-0.631-0.9-0.946-1.5-1.576
		c-0.003-1.787-0.005-2.681-0.008-4.468c-5.08-0.343-7.62-0.499-12.702-0.778c0.005,3.607,0.008,5.41,0.013,9.016
		c2.956,3.167,4.435,4.759,7.391,7.962c8.145,0.548,12.216,0.866,20.353,1.592c2.943-2.763,4.414-4.142,7.355-6.9
		c-0.011-5.522-0.017-8.283-0.028-13.805C395.199,298.486,393.722,296.85,390.769,293.595z"/>
	<path style="fill:#FFFFFF;" d="M425.458,176.738c-0.017-6.576-0.025-9.865-0.042-16.441c-0.984-0.031-2.46-0.076-2.46-0.076
		l1.175-3.285c0,0,12.078,0.362,20.128,0.637c0.441,1.359,0.661,2.04,1.102,3.401c-0.984-0.036-1.475-0.054-2.459-0.089
		c0.017,6.645,0.026,9.967,0.043,16.612c9.711,0.446,19.421,0.946,29.126,1.5c-0.016-6.78-0.024-10.17-0.04-16.951
		c-1.82-0.08-4.55-0.196-4.55-0.196l-16.761-60.675c0,0,2.294,0.025,3.824,0.043c-0.017-6.661-0.025-9.991-0.042-16.652
		c-13.446,0-26.893,0-40.339,0c0.016,6.503,0.024,9.754,0.04,16.257c1.312,0.011,3.28,0.027,3.28,0.027l-16.577,58.759
		c0,0-2.734-0.067-4.557-0.11c0.014,6.483,0.022,9.725,0.036,16.208C406.077,175.998,415.77,176.342,425.458,176.738z
		 M434.085,117.705l4.857,25.677l-9.653-0.226L434.085,117.705z"/>
	<path style="fill:#FFFFFF;" d="M390.061,265.401c10.283,0.667,20.569,1.476,30.833,2.425c-0.018-7.576-0.026-11.364-0.044-18.94
		c-1.042-0.085-1.563-0.126-2.606-0.209c0.498-1.49,0.748-2.235,1.246-3.726c8.537,0.666,12.803,1.032,21.331,1.826
		c0.466,1.592,0.7,2.389,1.166,3.984c-1.041-0.1-1.562-0.15-2.603-0.248c0.018,7.657,0.027,11.486,0.045,19.143
		c10.289,1.08,20.576,2.302,30.837,3.666c-0.017-7.82-0.025-11.729-0.042-19.549c-1.926-0.225-2.889-0.336-4.815-0.555
		c-5.835-16.291-11.761-32.544-17.744-48.771c1.62,0.113,2.43,0.171,4.05,0.288c-0.018-7.677-0.027-11.516-0.045-19.193
		c-14.245-0.81-28.491-1.528-42.744-2.155c0.016,7.491,0.025,11.236,0.041,18.727c1.39,0.07,2.085,0.106,3.476,0.179
		c-5.835,14.922-11.697,29.831-17.584,44.73c-1.933-0.12-2.9-0.179-4.833-0.293C390.039,254.199,390.046,257.933,390.061,265.401z
		 M430.041,216.353c2.059,5.487,3.088,8.24,5.147,13.765c-4.092-0.325-6.138-0.482-10.232-0.781
		C426.99,224.156,428.007,221.56,430.041,216.353z"/>
	<path style="fill:#FFFFFF;" d="M326.574,100.401c0.007,12.927,0.014,45.178,0.022,58.104c-1.824-0.009-2.736-0.013-4.56-0.02
		c0.003,6.365,0.004,9.548,0.007,15.913c10.006,0.043,20.013,0.144,30.018,0.301c-0.008-6.392-0.012-9.588-0.02-15.98
		c-1.824-0.021-2.736-0.032-4.559-0.051c-0.002-1.359-0.004-3.397-0.004-3.397l2.936-4.187c0,0,5.052,4.951,8.01,7.715
		c-0.839-0.011-1.258-0.017-2.097-0.028c0.009,6.398,0.013,9.598,0.022,15.996c12.041,0.201,24.08,0.476,36.117,0.825
		c-0.014-6.473-0.021-9.709-0.035-16.182c-2.297-0.052-3.445-0.077-5.742-0.125c-7.027-6.759-24.046-22.723-24.046-22.723
		l19.048-35.938c0,0,8.141,0.023,10.656,0.04c-0.014-6.438-0.021-9.658-0.035-16.096c-12.02,0-24.04,0-36.06,0
		c0.009,6.364,0.013,9.546,0.022,15.911c0.802,0.003,2.004,0.008,2.004,0.008l-10.829,22.756c0,0-0.007-18.785-0.011-22.793
		c1.822,0.006,2.733,0.008,4.554,0.015c-0.008-6.358-0.012-9.537-0.02-15.895c-9.986,0-19.972,0-29.958,0
		c0.003,6.331,0.004,9.497,0.007,15.828C323.842,100.397,324.753,100.398,326.574,100.401z"/>
	<path style="fill:#FFFFFF;" d="M541.736,84.567c-9.986,0-19.972,0-29.958,0c0.009,6.971,0.014,10.457,0.023,17.428
		c1.82,0.029,2.73,0.043,4.551,0.073c0.005,4.268,0.007,25.725,0.012,29.993c-5.931-0.154-8.897-0.228-14.829-0.371
		c-0.007-4.211-0.011-25.641-0.018-29.852c1.82,0.027,2.731,0.041,4.551,0.069c-0.011-6.935-0.016-10.403-0.026-17.339
		c-9.986,0-19.972,0-29.958,0c0.015,6.766,0.023,10.149,0.038,16.914c1.82,0.024,2.73,0.036,4.55,0.06
		c0.03,13.858,0.061,47.04,0.091,60.898c-1.819-0.084-2.728-0.125-4.547-0.207c0.015,6.802,0.023,10.203,0.039,17.005
		c9.971,0.573,19.941,1.203,29.905,1.89c-0.011-6.973-0.016-10.459-0.027-17.432c-1.818-0.096-2.727-0.144-4.545-0.238
		c-0.009-5.135-0.013-7.702-0.021-12.837c5.929,0.24,8.893,0.365,14.82,0.624c0.006,5.203,0.009,7.805,0.015,13.008
		c-1.817-0.101-2.726-0.151-4.544-0.25c0.009,7.008,0.014,10.513,0.023,17.521c9.955,0.695,19.908,1.448,29.855,2.258
		c0-7.212,0-10.818,0-18.031c-1.815-0.114-2.722-0.17-4.537-0.281c-0.003-14.576-0.007-48.475-0.01-63.051
		c1.819,0.032,2.728,0.049,4.547,0.081C541.736,95.328,541.736,91.741,541.736,84.567z"/>
	<path style="fill:#FFFFFF;" d="M307.224,306.427c0,0.738,0,1.108,0,1.846c-3.244,0.002-4.865,0.01-8.109,0.038
		c0.001-3.021,0.001-4.532,0.002-7.554c0.755-0.006,1.133-0.009,1.888-0.014c0,0.738,0,1.108,0,1.846
		c4.154-0.028,6.23-0.031,10.384-0.017c-0.001-5.661-0.001-8.492-0.001-14.154c-4.152-0.014-6.228-0.011-10.38,0.015
		c0,0.738,0,1.108,0,1.846c-0.755,0.005-1.132,0.008-1.887,0.014c0.001-3.044,0.001-4.566,0.002-7.61
		c3.241-0.025,4.862-0.032,8.103-0.034c0,0.738,0,1.108,0,1.846c4.174-0.002,6.261,0.007,10.434,0.044
		c-0.001-4.924-0.002-7.386-0.003-12.31c-11.344-0.038-22.668,0.031-34.011,0.206c-0.003,4.19-0.004,6.285-0.007,10.476
		c1.11-0.024,1.665-0.035,2.774-0.057c-0.006,10.26-0.009,15.39-0.015,25.65c-1.111,0.024-1.666,0.037-2.776,0.065
		c-0.003,4.213-0.004,6.319-0.007,10.532c11.361-0.222,22.691-0.309,34.054-0.261c-0.001-4.946-0.002-7.42-0.003-12.366
		C313.488,306.434,311.4,306.424,307.224,306.427z"/>
	<path style="fill:#FFFFFF;" d="M102.846,164.053c-0.981,0.054-1.472,0.081-2.453,0.135c3.717-10.36,7.459-20.709,11.225-31.051
		c3.68,9.971,7.391,19.932,11.134,29.88c-0.982,0.048-1.473,0.073-2.454,0.122c-0.013,6.908-0.019,10.361-0.032,17.269
		c9.696-0.632,19.397-1.21,29.099-1.734c0.016-6.751,0.025-10.127,0.041-16.878c-1.82,0.077-2.73,0.116-4.55,0.195
		c-5.562-13.662-11.082-46.664-16.561-60.359c1.529-0.021,2.294-0.032,3.823-0.052c0.015-6.805,0.022-10.207,0.036-17.012
		c-13.446,0-26.893,0-40.339,0c-0.006,7.049-0.009,10.574-0.015,17.623c1.31-0.022,1.966-0.033,3.276-0.054
		c-5.649,14.634-11.193,48.633-16.661,63.335c-1.815,0.111-2.723,0.168-4.538,0.281c0,7.212,0,10.818,0,18.031
		c9.644-0.785,19.295-1.517,28.947-2.194C102.833,174.574,102.837,171.067,102.846,164.053z"/>
	<path style="fill:#FFFFFF;" d="M444.689,317.874c-4.067-11.283-6.101-16.879-10.17-27.989c0.928,0.106,1.392,0.16,2.32,0.268
		c-0.01-4.353-0.016-6.53-0.026-10.884c-9.789-1.077-14.689-1.565-24.493-2.437c0.01,4.295,0.014,6.443,0.024,10.738
		c0.797,0.075,1.196,0.113,1.993,0.19c-4.026,10.141-6.04,15.193-10.072,25.271c-1.108-0.109-1.662-0.163-2.769-0.27
		c0.009,4.296,0.014,6.444,0.023,10.74c7.068,0.712,10.601,1.102,17.661,1.949c-0.01-4.333-0.015-6.5-0.025-10.833
		c-0.598-0.068-0.896-0.102-1.494-0.17c0.286-0.843,0.428-1.264,0.714-2.108c4.891,0.549,7.335,0.839,12.221,1.449
		c0.268,0.915,0.401,1.372,0.669,2.288c-0.597-0.076-0.896-0.113-1.493-0.188c0.01,4.358,0.015,6.538,0.026,10.896
		c7.076,0.931,10.612,1.43,17.678,2.496c-0.01-4.406-0.016-6.608-0.026-11.014C446.345,318.108,445.793,318.03,444.689,317.874z
		 M421.507,303.527c1.165-2.916,1.748-4.376,2.913-7.299c1.18,3.179,1.77,4.772,2.95,7.965
		C425.025,303.919,423.852,303.786,421.507,303.527z"/>
	<path style="fill:#FFFFFF;" d="M485.742,324.541c-0.009-4.555-0.013-6.832-0.022-11.387c-1.213-1.537-1.819-2.303-3.032-3.83
		c1.208-1.117,1.812-1.677,3.02-2.797c-0.01-5.133-0.015-7.7-0.025-12.833c-2.933-3.671-4.4-5.492-7.336-9.106
		c-9.464-1.396-18.954-2.665-28.447-3.805c0.01,4.39,0.015,6.584,0.026,10.974c1.104,0.142,1.656,0.214,2.759,0.358
		c0.025,10.771,0.038,16.156,0.063,26.927c-1.104-0.165-1.655-0.246-2.759-0.408c0.01,4.413,0.016,6.62,0.026,11.033
		c7.262,1.116,10.89,1.71,18.139,2.969c-0.01-4.469-0.015-6.704-0.025-11.173c-1.102-0.182-1.653-0.273-2.755-0.452
		c-0.008-3.559-0.012-5.338-0.02-8.897c2.513,0.392,3.769,0.592,6.281,1c0.596,0.74,0.894,1.111,1.491,1.853
		c0.016,7.421,0.024,11.132,0.04,18.553c6.144,1.101,9.213,1.678,15.346,2.882c-0.008-4.541-0.013-6.811-0.021-11.352
		C487.391,324.845,486.841,324.743,485.742,324.541z M471.61,301.971c-2.512-0.387-3.768-0.577-6.281-0.949
		c-0.006-2.871-0.01-4.306-0.016-7.177c2.514,0.359,3.77,0.542,6.282,0.915c0.596,0.732,0.895,1.099,1.491,1.833
		c0.003,1.599,0.005,2.398,0.009,3.997C472.501,301.144,472.204,301.42,471.61,301.971z"/>
	<path style="fill:#FFFFFF;" d="M283.294,181.411c-0.005,7.32-0.007,10.979-0.012,18.299c1.315-0.016,1.973-0.024,3.288-0.038
		c-3.871,3.954-5.807,5.937-9.679,9.92c-3.866-3.852-5.798-5.776-9.662-9.622c1.276-0.026,1.915-0.038,3.191-0.062
		c0.007-7.334,0.011-11.001,0.018-18.334c-12.757,0.196-25.513,0.492-38.266,0.888c-0.014,7.411-0.02,11.116-0.034,18.526
		c3.015-0.114,4.523-0.168,7.538-0.271c8.687,8.598,17.383,17.186,26.073,25.779c-0.008,7.38-0.012,11.069-0.02,18.449
		c-1.936,0.058-2.904,0.089-4.84,0.154c-0.009,7.387-0.014,11.081-0.023,18.468c10.615-0.414,21.247-0.679,31.868-0.793
		c0.003-7.352,0.005-11.028,0.008-18.38c-1.937,0.021-2.905,0.033-4.841,0.06c0.004-7.355,0.006-11.033,0.01-18.388
		c8.677-8.87,17.391-17.697,26.128-26.497c2.553,0.008,3.83,0.014,6.383,0.03c-0.003-7.312-0.004-10.968-0.006-18.279
		C308.041,181.256,295.667,181.286,283.294,181.411z"/>
	<path style="fill:#FFFFFF;" d="M261.945,283.596c0.599-0.025,0.898-0.037,1.497-0.061c-2.048,6.332-3.073,9.503-5.123,15.859
		c-2.056-6.158-3.084-9.238-5.138-15.402c0.621-0.031,0.932-0.046,1.553-0.075c0.006-4.213,0.009-6.319,0.014-10.532
		c-7.452,0.336-11.177,0.533-18.624,0.987c-0.007,4.236-0.011,6.355-0.019,10.591c1.485-0.096,2.228-0.143,3.714-0.233
		c3.353,10.157,5.03,15.227,8.387,25.358c-0.799,0.049-1.198,0.073-1.997,0.124c-0.007,4.245-0.01,6.368-0.016,10.613
		c9.832-0.65,14.751-0.91,24.591-1.3c0.004-4.221,0.006-6.331,0.01-10.552c-0.955,0.036-1.432,0.055-2.387,0.093
		c3.408-10.424,5.111-15.619,8.515-25.985c1.665-0.046,2.497-0.068,4.162-0.108c0.003-4.192,0.005-6.287,0.008-10.479
		c-7.655,0.173-11.483,0.291-19.135,0.589C261.953,277.287,261.95,279.39,261.945,283.596z"/>
	<path style="fill:#FFFFFF;" d="M193.035,288.581c1.106-0.115,1.659-0.171,2.766-0.283c-0.01,4.473-0.015,6.71-0.026,11.183
		c-5.047-8.243-7.568-12.376-12.609-20.685c-5.99,0.637-8.984,0.974-14.967,1.688c-0.01,4.382-0.016,6.574-0.026,10.956
		c1.104-0.139,1.656-0.208,2.76-0.345c-0.025,10.714-0.038,16.072-0.063,26.786c-1.104,0.156-1.656,0.234-2.76,0.393
		c-0.01,4.406-0.016,6.609-0.026,11.015c7.264-1.096,10.899-1.609,18.174-2.562c0.01-4.357,0.015-6.536,0.026-10.893
		c-1.106,0.138-1.658,0.208-2.763,0.349c0.01-4.294,0.015-6.442,0.025-10.736c4.931,8.057,7.398,12.068,12.336,20.07
		c6.108-0.736,9.164-1.079,15.279-1.715c0.009-4.302,0.014-6.453,0.023-10.755c-1.108,0.11-1.661,0.165-2.769,0.278
		c0.023-10.494,0.034-15.74,0.057-26.234c1.107-0.099,1.661-0.148,2.768-0.244c0.009-4.279,0.014-6.418,0.023-10.697
		c-7.284,0.598-10.925,0.926-18.201,1.637C193.05,282.104,193.045,284.263,193.035,288.581z"/>
	<path style="fill:#FFFFFF;" d="M131.431,252.533c-10.157,1.268-15.23,1.947-25.366,3.398c8.34-10.511,16.817-20.893,25.42-31.149
		c0.018-9.25,0.027-13.875,0.045-23.125c-5.111-5.162-7.666-7.763-12.776-13.015c-10.71,0.861-21.413,1.768-32.117,2.723
		c-5.115,6.287-7.669,9.472-12.773,15.937c0,10.917,0,16.375,0,27.291c8.776-4.832,13.17-7.177,21.968-11.744
		c0.003-3.643,0.005-5.464,0.009-9.107c1.039-1.285,1.558-1.925,2.597-3.203c3.382-0.356,5.073-0.531,8.456-0.873
		c1.036,1.055,1.555,1.581,2.591,2.631c-0.003,2.313-0.005,3.469-0.008,5.782c-12.101,14.888-23.962,29.964-35.612,45.275
		c0,8.596,0,12.894,0,21.49c19.134-3.557,38.29-6.757,57.522-9.609C131.404,266.155,131.413,261.615,131.431,252.533z"/>
	<path style="fill:#FFFFFF;" d="M520.72,303.186c0.746,0.145,1.118,0.218,1.864,0.364c-2.19,2.059-3.285,3.085-5.475,5.13
		c-2.195-2.908-3.293-4.353-5.49-7.225c0.724,0.135,1.086,0.202,1.81,0.338c-0.005-4.616-0.008-6.923-0.013-11.539
		c-8.691-1.538-13.042-2.267-21.753-3.641c0.008,4.529,0.012,6.793,0.02,11.322c1.715,0.287,2.573,0.432,4.287,0.726
		c5.946,7.579,8.916,11.428,14.847,19.263c0.006,4.629,0.009,6.944,0.015,11.573c-1.096-0.231-1.644-0.346-2.74-0.574
		c0.006,4.618,0.009,6.927,0.016,11.544c7.214,1.575,10.817,2.399,18.012,4.117c-0.003-4.696-0.005-7.044-0.008-11.74
		c-1.094-0.249-1.641-0.372-2.736-0.618c-0.004-4.683-0.006-7.025-0.009-11.709c5.907-5.466,8.86-8.223,14.764-13.801
		c1.444,0.305,2.165,0.458,3.608,0.768c0-4.744,0-7.116,0-11.859c-8.4-1.699-12.606-2.51-21.027-4.056
		C520.714,296.215,520.716,298.539,520.72,303.186z"/>
	<path style="fill:#FFFFFF;" d="M106.628,300.965c0.922-0.169,1.383-0.253,2.305-0.42c0.006-4.587,0.01-6.881,0.016-11.469
		c-9.73,1.664-14.589,2.547-24.292,4.416c-0.002,4.693-0.003,7.039-0.006,11.732c0.788-0.161,1.182-0.241,1.971-0.401
		c-3.38,10.33-6.72,20.677-10.016,31.039c-1.092,0.264-1.638,0.396-2.729,0.663c0,4.769,0,7.154,0,11.923
		c6.96-1.787,10.445-2.646,17.424-4.299c0.004-4.688,0.005-7.031,0.009-11.719c-0.591,0.133-0.886,0.2-1.477,0.334
		c0.285-1.013,0.427-1.52,0.712-2.532c4.837-1.083,7.257-1.61,12.102-2.632c0.262,0.882,0.393,1.323,0.655,2.204
		c-0.592,0.126-0.888,0.189-1.479,0.315c-0.005,4.642-0.008,6.962-0.013,11.604c7.011-1.576,10.521-2.33,17.548-3.771
		c0.008-4.57,0.012-6.855,0.019-11.425c-1.098,0.215-1.648,0.323-2.746,0.54C112.631,316.706,110.63,311.487,106.628,300.965z
		 M93.673,319.652c1.164-3.529,1.746-5.288,2.911-8.796c1.159,3.042,1.738,4.559,2.896,7.587
		C97.156,318.92,95.995,319.161,93.673,319.652z"/>
	<path style="fill:#FFFFFF;" d="M146.718,294.362c1.102-0.161,1.653-0.241,2.756-0.399c-0.01,4.605-0.015,6.908-0.026,11.514
		c-5.028-8.278-7.541-12.441-12.566-20.833c-5.968,0.874-8.951,1.33-14.911,2.281c-0.008,4.536-0.012,6.804-0.02,11.34
		c1.099-0.186,1.649-0.278,2.749-0.461c-0.02,11.085-0.03,16.627-0.05,27.711c-1.099,0.208-1.648,0.313-2.747,0.525
		c-0.008,4.56-0.012,6.841-0.02,11.401c7.227-1.461,10.845-2.156,18.088-3.474c0.009-4.495,0.014-6.742,0.024-11.236
		c-1.101,0.191-1.651,0.287-2.752,0.481c0.009-4.432,0.014-6.648,0.023-11.08c4.913,8.11,7.37,12.135,12.287,20.143
		c6.083-1.042,9.127-1.538,15.219-2.48c0.01-4.415,0.016-6.623,0.026-11.039c-1.104,0.162-1.656,0.245-2.759,0.41
		c0.025-10.777,0.038-16.165,0.063-26.942c1.104-0.146,1.655-0.218,2.759-0.36c0.01-4.392,0.015-6.588,0.026-10.98
		c-7.263,0.887-10.892,1.358-18.144,2.358C146.733,287.689,146.728,289.913,146.718,294.362z"/>
	<path style="fill:#FFFFFF;" d="M229.489,274.745l0.013-0.022l0.245-0.335c0.327-0.439,0.589-0.972,0.804-1.628
		c0.003-0.009,0.005-0.018,0.008-0.027l0.2-0.848c0.004-0.019,0.007-0.038,0.009-0.058c0.003-0.039,0.005-0.077,0.008-0.116
		c0.007-0.09,0.014-0.183,0.016-0.279c0.002-0.099,0.003-0.197,0.005-0.296c0.004-0.021,0.006-0.042,0.006-0.064v-0.491
		c0-0.014-0.001-0.027-0.002-0.041l-0.072-0.621c-0.001-0.01-0.003-0.02-0.005-0.031c-0.008-0.038-0.015-0.077-0.022-0.115
		c-0.019-0.101-0.039-0.205-0.07-0.312c-0.028-0.096-0.066-0.179-0.1-0.252c-0.006-0.012-0.011-0.025-0.017-0.037l-0.036-0.327
		c-0.002-0.021-0.007-0.042-0.013-0.062l-0.347-1.154c-0.003-0.011-0.007-0.021-0.011-0.032l-0.087-0.211l-0.237-0.904l-0.236-0.853
		c-0.001-0.014-0.001-0.028-0.002-0.042c-0.003-0.065-0.006-0.138-0.018-0.215c-0.06-0.41-0.054-0.773,0.019-1.109
		c0.021-0.096,0.05-0.196,0.082-0.302c0.016-0.055,0.033-0.111,0.049-0.17c0.033-0.118,0.001-0.248-0.079-0.326
		c-0.045-0.044-0.101-0.066-0.156-0.066c-0.044,0-0.087,0.014-0.127,0.042c-0.516,0.366-0.86,0.825-1.031,1.373
		c-0.001-0.004-0.092-0.212-0.092-0.212c0.006-0.044,0.008-0.096-0.002-0.155c-0.047-0.262-0.096-0.523-0.146-0.784l-0.042-0.22
		c-0.118-0.87-0.134-1.634-0.049-2.333l0.007-0.032c0.006-0.028,0.01-0.058,0.009-0.087l0-0.028l0.03-0.143
		c0.001-0.003,0.063-0.266,0.063-0.266l0.097-0.33l0.086-0.257c0.003-0.007,0.005-0.014,0.008-0.021l0.199-0.433l0.575-0.889
		c0.061-0.095,0.069-0.224,0.02-0.329c-0.044-0.094-0.127-0.152-0.216-0.152c-0.01,0-0.019,0.001-0.029,0.002
		c-0.619,0.086-1.185,0.243-1.732,0.481c-0.431,0.187-0.838,0.432-1.235,0.746c-0.023-0.151-0.047-0.303-0.071-0.454l-0.03-0.189
		c0.006-0.044,0.012-0.113-0.006-0.189c-0.028-0.119-0.055-0.238-0.081-0.357c-0.069-0.306-0.14-0.623-0.232-0.932
		c-0.521-1.747-1.378-3.339-2.546-4.73c-0.106-0.127-0.217-0.245-0.334-0.37c-0.056-0.059-0.113-0.121-0.173-0.186
		c-0.047-0.051-0.107-0.077-0.167-0.077c-0.038,0-0.077,0.011-0.113,0.033c-0.092,0.056-0.146,0.175-0.134,0.298
		c0.099,1.06,0.084,1.93-0.047,2.738c-0.075,0.461-0.179,0.929-0.279,1.381c-0.046,0.206-0.092,0.413-0.136,0.619l-0.044,0.169
		c-0.005,0.013-0.008,0.026-0.011,0.04l-0.003,0.006c-0.007,0.012-0.013,0.025-0.019,0.037l-0.012,0.024
		c-0.013,0.027-0.023,0.056-0.029,0.086l-0.019,0.104c-0.021,0.024-0.041,0.054-0.058,0.094c-0.148,0.351-0.295,0.703-0.441,1.055
		l-0.102,0.244l-0.112,0.213l-0.521,0.91l-0.474,0.746l-0.033,0.056l-0.071,0.111l-0.321,0.536c-0.003,0.006-0.007,0.011-0.01,0.017
		c-0.027,0.051-0.054,0.103-0.082,0.154c-0.063,0.118-0.128,0.239-0.189,0.366c-0.092,0.191-0.181,0.387-0.266,0.576
		c-0.036,0.08-0.073,0.16-0.109,0.239c-0.003,0.007-0.006,0.014-0.009,0.021l-0.098,0.258c-0.004,0.011-0.008,0.022-0.011,0.034
		l-0.407,1.552c-0.004,0.015-0.007,0.031-0.009,0.046l-0.041,0.335l-0.037,0.319l-0.024,0.235c-0.001,0.006-0.001,0.013-0.001,0.019
		l-0.003,0.061l-0.02,0.317c0,0.007-0.001,0.015-0.001,0.022l0,0.329c-0.128-0.477-0.201-0.917-0.224-1.354
		c-0.005-0.092-0.013-0.183-0.021-0.274c-0.004-0.039-0.007-0.078-0.01-0.117c-0.011-0.137-0.099-0.247-0.213-0.266
		c-0.012-0.002-0.023-0.003-0.035-0.003c-0.101,0-0.193,0.074-0.231,0.188c-0.103,0.313-0.189,0.624-0.262,0.95
		c-0.215,0.955-0.332,1.747-0.368,2.492c-0.001,0.018,0,0.037,0.002,0.055l0.002,0.014l-0.021,0.173
		c-0.001,0.01-0.002,0.02-0.002,0.03l-0.008,0.23c0,0.005,0,0.011,0,0.016l-0.012,0.205l-0.004,0.089
		c-0.029,0.728,0.01,1.464,0.119,2.245c0,0,0.034,0.276,0.034,0.279l0.103,0.587c0.002,0.01,0.004,0.019,0.006,0.029l0.478,1.804
		c0.002,0.006,0.003,0.012,0.005,0.018c0.013,0.042,0.026,0.084,0.038,0.126c0.031,0.106,0.063,0.216,0.109,0.326
		c0.134,0.32,0.274,0.643,0.409,0.955l0.154,0.356c0.003,0.006,0.005,0.012,0.009,0.018l0.022,0.044
		c0.008,0.038,0.023,0.075,0.043,0.108c-1.067,0.083-2.198,0.171-3.44,0.27c-0.009,4.272-0.013,6.409-0.022,10.681
		c1.107-0.093,1.661-0.139,2.768-0.229c-0.022,10.452-0.054,71.739-0.054,71.739l12.69-12.876c0,0,0.029-49.426,0.049-59.824
		c1.108-0.078,1.662-0.116,2.77-0.191c0.008-4.241,0.012-6.362,0.019-10.603c-1.208,0.077-2.309,0.148-3.349,0.216
		C229.466,274.779,229.478,274.763,229.489,274.745z M227.065,274.015c0.064-0.071,0.128-0.142,0.195-0.213
		c0.003-0.003,0.105-0.121,0.105-0.121l0.027-0.024c0.015-0.013,0.029-0.029,0.041-0.046l0.651-0.918
		c0.007-0.01,0.013-0.02,0.019-0.031l0.08-0.147c-0.016,0.143-0.033,0.285-0.049,0.425c-0.014,0.116-0.027,0.232-0.041,0.348
		l-0.01,0.049l-0.029,0.087c-0.002,0.005-0.003,0.011-0.005,0.016l-0.141,0.507l-0.03,0.12c-0.028,0.068-0.055,0.135-0.082,0.203
		c-0.062,0.155-0.127,0.314-0.194,0.466c-0.028,0.064-0.071,0.124-0.102,0.187c-0.55,0.037-1.088,0.073-1.615,0.11
		c0.236-0.159,0.472-0.333,0.71-0.54C226.766,274.346,226.918,274.178,227.065,274.015z M222.279,269.261
		c0.035-0.267,0.086-0.53,0.14-0.807c0.021-0.106,0.042-0.213,0.061-0.319l0.243-0.602c-0.003,0.313,0.022,0.665,0.119,1.02
		c0.001,0.003,0.095,0.311,0.095,0.311c0.096,0.406,0.234,0.739,0.422,1.018c0.002,0.003,0.056,0.078,0.056,0.078l0.016,0.034
		c0.008,0.018,0.018,0.035,0.029,0.05l0.523,0.719l0.354,0.54l0.419,1.224l0.049,0.964c-0.051,0.623-0.21,1.162-0.467,1.651
		c-0.571,0.04-1.139,0.081-1.711,0.123c0.205-0.329,0.329-0.748,0.345-1.218c0-0.009,0-0.018,0-0.027
		c-0.003-0.061-0.004-0.123-0.006-0.184c-0.004-0.149-0.009-0.302-0.025-0.458c-0.016-0.158-0.046-0.308-0.075-0.454
		c-0.008-0.04-0.016-0.079-0.023-0.119c-0.01-0.052-0.023-0.097-0.034-0.137c-0.007-0.024-0.014-0.048-0.019-0.073
		c-0.018-0.093-0.034-0.186-0.049-0.28l-0.021-0.122c-0.002-0.011-0.004-0.021-0.007-0.032c0,0-0.269-0.995-0.271-0.999
		c-0.095-0.301-0.141-0.64-0.151-1.1c-0.001-0.057-0.011-0.105-0.018-0.138c0-0.068-0.002-0.137-0.004-0.206
		C222.265,269.554,222.261,269.401,222.279,269.261z"/>
</g>
</svg>
